<?xml version="1.0" standalone="no"?>
<!DOCTYPE svg PUBLIC "-//W3C//DTD SVG 20010904//EN"
 "http://www.w3.org/TR/2001/REC-SVG-20010904/DTD/svg10.dtd">
<svg version="1.0" xmlns="http://www.w3.org/2000/svg"
 width="512.000000pt" height="512.000000pt" viewBox="0 0 512.000000 512.000000"
 preserveAspectRatio="xMidYMid meet">
<metadata>
Created by potrace 1.14, written by Peter Selinger 2001-2017
</metadata>
<g transform="translate(0.000000,512.000000) scale(0.100000,-0.100000)"
fill="#000000" stroke="none">
<path d="M2245 4429 c-380 -67 -792 -237 -1066 -441 -52 -38 -106 -77 -122
-86 -15 -9 -27 -20 -27 -24 0 -18 763 -777 783 -780 13 -2 67 22 127 56 188
106 359 177 524 216 94 23 116 40 116 90 0 34 2 37 25 32 20 -3 25 -10 25 -32
0 -50 27 -68 137 -95 159 -38 335 -112 524 -221 42 -24 87 -44 100 -44 18 0
105 82 360 336 298 298 335 338 331 362 -3 20 -23 40 -83 82 -44 30 -116 81
-162 112 -154 108 -507 267 -792 357 -138 44 -326 86 -437 97 -68 7 -68 7 -68
-18 0 -23 -5 -26 -60 -35 l-60 -10 0 34 c0 31 -2 33 -32 32 -18 0 -82 -9 -143
-20z m293 -535 l-3 -466 -110 -28 c-173 -44 -309 -100 -499 -209 l-110 -62
-326 333 -327 333 66 47 c220 157 374 245 561 323 100 42 305 110 405 135 80
20 280 56 328 59 16 1 17 -26 15 -465z m256 450 c300 -47 641 -164 895 -308
73 -41 325 -211 361 -243 2 -2 -144 -152 -325 -333 l-329 -329 -71 40 c-197
113 -417 205 -570 238 l-80 18 -3 466 c-2 345 1 467 9 467 6 0 57 -7 113 -16z"/>
<path d="M777 3633 c-99 -134 -172 -254 -247 -408 -150 -309 -226 -560 -245
-812 l-8 -93 47 0 46 0 0 -43 c0 -81 -24 -77 497 -77 424 0 462 1 481 18 13
10 29 47 41 98 50 196 133 403 219 542 29 46 52 93 52 105 0 16 -100 122 -337
358 -323 321 -339 336 -368 329 -26 -6 -36 -1 -71 32 l-41 39 -66 -88z m833
-695 c-109 -172 -183 -341 -245 -562 l-39 -136 -459 0 -459 0 7 88 c30 374
221 850 488 1209 l61 83 331 -330 c319 -319 329 -331 315 -352z"/>
<path d="M3787 3382 l-335 -337 34 -50 c83 -119 200 -403 248 -602 18 -72 18
-72 54 -75 33 -3 37 -6 47 -45 18 -76 -5 -72 511 -73 451 0 461 0 479 20 17
19 18 29 7 148 -35 370 -229 840 -495 1199 -54 73 -65 83 -92 83 -17 0 -36 -5
-42 -11 -8 -8 -20 2 -45 34 l-35 45 -336 -336z m536 136 c41 -57 96 -139 123
-183 70 -118 186 -364 232 -491 69 -191 122 -437 122 -571 l0 -33 -459 0 -459
0 -7 37 c-13 69 -105 338 -149 436 -24 54 -66 132 -92 173 l-47 76 329 329
c181 181 330 329 331 329 1 0 35 -46 76 -102z"/>
<path d="M2350 2834 c-232 -49 -437 -252 -485 -480 -30 -143 -12 -292 51 -420
40 -81 216 -284 298 -342 63 -46 179 -97 251 -113 81 -17 215 -15 299 5 179
43 352 181 434 347 96 194 96 400 1 597 -53 110 -169 230 -274 284 -239 122
-408 158 -575 122z"/>
<path d="M250 2146 c0 -50 43 -274 75 -391 60 -217 164 -470 263 -639 77 -130
225 -335 242 -336 8 0 31 -25 50 -55 61 -95 45 -105 428 278 250 250 332 338
332 356 0 13 -23 63 -50 112 -106 185 -185 373 -221 529 -26 109 -36 120 -111
120 -55 0 -58 1 -58 25 l0 25 -475 0 -475 0 0 -24z m1066 -93 c45 -211 113
-377 265 -650 l24 -43 -330 -330 -330 -329 -65 91 c-125 177 -161 234 -229
373 -81 164 -157 364 -200 525 -28 105 -71 330 -71 373 0 16 29 17 465 17
l465 0 6 -27z"/>
<path d="M3751 2080 c-36 -158 -136 -391 -251 -587 l-30 -53 381 -385 c341
-344 385 -385 413 -385 28 1 39 12 119 125 117 165 159 236 233 390 118 247
205 527 241 775 17 115 17 119 -1 139 -16 17 -31 21 -83 21 -63 0 -63 0 -57
25 l6 25 -475 0 -475 0 -21 -90z m1075 -62 c-37 -335 -220 -835 -400 -1092
-28 -40 -76 -107 -106 -149 l-54 -78 -330 330 -330 330 27 48 c120 210 212
428 249 584 l21 89 465 0 465 0 -7 -62z"/>
</g>
</svg>
