<?xml version="1.0" encoding="UTF-8" standalone="no"?>
<svg
   xmlns:dc="http://purl.org/dc/elements/1.1/"
   xmlns:cc="http://creativecommons.org/ns#"
   xmlns:rdf="http://www.w3.org/1999/02/22-rdf-syntax-ns#"
   xmlns:svg="http://www.w3.org/2000/svg"
   xmlns="http://www.w3.org/2000/svg"
   xmlns:sodipodi="http://sodipodi.sourceforge.net/DTD/sodipodi-0.dtd"
   xmlns:inkscape="http://www.inkscape.org/namespaces/inkscape"
   id="screenshot"
   viewBox="0.062496849 0.49999393 496.00001 538.00001"
   width="496"
   height="538"
   version="1.1"
   sodipodi:docname="right_side_cards.svg"
   inkscape:version="0.92.3 (2405546, 2018-03-11)">
  <metadata
     id="metadata412">
    <rdf:RDF>
      <cc:Work
         rdf:about="">
        <dc:format>image/svg+xml</dc:format>
        <dc:type
           rdf:resource="http://purl.org/dc/dcmitype/StillImage" />
        <dc:title></dc:title>
      </cc:Work>
    </rdf:RDF>
  </metadata>
  <defs
     id="defs410" />
  <sodipodi:namedview
     pagecolor="#ffffff"
     bordercolor="#666666"
     borderopacity="1"
     objecttolerance="10"
     gridtolerance="10"
     guidetolerance="10"
     inkscape:pageopacity="0"
     inkscape:pageshadow="2"
     inkscape:window-width="1920"
     inkscape:window-height="1008"
     id="namedview408"
     showgrid="false"
     fit-margin-top="3"
     fit-margin-left="3"
     fit-margin-bottom="10"
     fit-margin-right="10"
     inkscape:zoom="0.5"
     inkscape:cx="202.68049"
     inkscape:cy="319.80667"
     inkscape:window-x="0"
     inkscape:window-y="32"
     inkscape:window-maximized="1"
     inkscape:current-layer="screenshot" />
  <g
     id="shape-5782ddd0-b372-11eb-a19f-b902f2f7b4ee"
     transform="translate(10.999999,10.999996)">
    <g
       id="g404">
      <g
         id="shape-1723e7f0-b365-11eb-a19f-b902f2f7b4ee"
         style="filter:url(#filter_b98e96c0-b374-11eb-bad9-23164b13e969)">
        <defs
           id="defs220">
          <filter
             id="filter_b98e96c0-b374-11eb-bad9-23164b13e969"
             x="82.0625"
             y="-7.5000019"
             width="393"
             height="239"
             filterUnits="userSpaceOnUse"
             style="color-interpolation-filters:sRGB">
            <feFlood
               flood-opacity="0"
               result="BackgroundImageFix"
               id="feFlood205" />
            <feColorMatrix
               in="SourceAlpha"
               type="matrix"
               values="0 0 0 0 0 0 0 0 0 0 0 0 0 0 0 0 0 0 127 0"
               id="feColorMatrix207" />
            <feOffset
               dx="4"
               dy="4"
               id="feOffset209" />
            <feGaussianBlur
               stdDeviation="3.5"
               id="feGaussianBlur211" />
            <feColorMatrix
               type="matrix"
               values="0 0 0 0 0 0 0 0 0 0 0 0 0 0 0 0 0 0 0.2 0"
               id="feColorMatrix213" />
            <feBlend
               mode="normal"
               in2="BackgroundImageFix"
               result="filter_e9d62510-6850-11eb-859f-87a287cc736d"
               id="feBlend215" />
            <feBlend
               mode="normal"
               in="SourceGraphic"
               in2="filter_e9d62510-6850-11eb-859f-87a287cc736d"
               result="shape"
               id="feBlend217" />
          </filter>
        </defs>
        <rect
           rx="0"
           ry="0"
           x="90.0625"
           y="0.49999392"
           transform="translate(1.8500491e-6,4.5271698e-6)"
           width="365"
           height="211"
           style="fill:#fec6b4;fill-opacity:1;stroke:#000000;stroke-width:5;stroke-opacity:1"
           id="rect222" />
      </g>
      <g
         id="shape-1723e7f1-b365-11eb-a19f-b902f2f7b4ee"
         style="filter:url(#filter_b98fa830-b374-11eb-bad9-23164b13e969)">
        <defs
           id="defs240">
          <filter
             id="filter_b98fa830-b374-11eb-bad9-23164b13e969"
             x="48.062504"
             y="45.499996"
             width="393"
             height="239"
             filterUnits="userSpaceOnUse"
             style="color-interpolation-filters:sRGB">
            <feFlood
               flood-opacity="0"
               result="BackgroundImageFix"
               id="feFlood225" />
            <feColorMatrix
               in="SourceAlpha"
               type="matrix"
               values="0 0 0 0 0 0 0 0 0 0 0 0 0 0 0 0 0 0 127 0"
               id="feColorMatrix227" />
            <feOffset
               dx="4"
               dy="4"
               id="feOffset229" />
            <feGaussianBlur
               stdDeviation="3.5"
               id="feGaussianBlur231" />
            <feColorMatrix
               type="matrix"
               values="0 0 0 0 0 0 0 0 0 0 0 0 0 0 0 0 0 0 0.2 0"
               id="feColorMatrix233" />
            <feBlend
               mode="normal"
               in2="BackgroundImageFix"
               result="filter_e0eb4700-6850-11eb-859f-87a287cc736d"
               id="feBlend235" />
            <feBlend
               mode="normal"
               in="SourceGraphic"
               in2="filter_e0eb4700-6850-11eb-859f-87a287cc736d"
               result="shape"
               id="feBlend237" />
          </filter>
        </defs>
        <rect
           rx="0"
           ry="0"
           x="56.0625"
           y="53.499992"
           transform="translate(2.7750735e-6,3.8187858e-6)"
           width="365"
           height="211"
           style="fill:#ffc700;fill-opacity:1;stroke:#000000;stroke-width:5;stroke-opacity:1"
           id="rect242" />
      </g>
      <g
         id="shape-1723e7f2-b365-11eb-a19f-b902f2f7b4ee"
         style="filter:url(#filter_b9904470-b374-11eb-bad9-23164b13e969)">
        <defs
           id="defs260">
          <filter
             id="filter_b9904470-b374-11eb-bad9-23164b13e969"
             x="16.062502"
             y="99.5"
             width="393"
             height="239"
             filterUnits="userSpaceOnUse"
             style="color-interpolation-filters:sRGB">
            <feFlood
               flood-opacity="0"
               result="BackgroundImageFix"
               id="feFlood245" />
            <feColorMatrix
               in="SourceAlpha"
               type="matrix"
               values="0 0 0 0 0 0 0 0 0 0 0 0 0 0 0 0 0 0 127 0"
               id="feColorMatrix247" />
            <feOffset
               dx="4"
               dy="4"
               id="feOffset249" />
            <feGaussianBlur
               stdDeviation="3.5"
               id="feGaussianBlur251" />
            <feColorMatrix
               type="matrix"
               values="0 0 0 0 0 0 0 0 0 0 0 0 0 0 0 0 0 0 0.2 0"
               id="feColorMatrix253" />
            <feBlend
               mode="normal"
               in2="BackgroundImageFix"
               result="filter_d19298d0-6850-11eb-859f-87a287cc736d"
               id="feBlend255" />
            <feBlend
               mode="normal"
               in="SourceGraphic"
               in2="filter_d19298d0-6850-11eb-859f-87a287cc736d"
               result="shape"
               id="feBlend257" />
          </filter>
        </defs>
        <rect
           rx="0"
           ry="0"
           x="24.062502"
           y="107.49999"
           transform="translate(0,6.7483353e-6)"
           width="365"
           height="211"
           style="fill:#db353f;fill-opacity:1;stroke:#000000;stroke-width:5;stroke-opacity:1"
           id="rect262" />
      </g>
      <g
         id="shape-1723e7f3-b365-11eb-a19f-b902f2f7b4ee">
        <g
           class="svg-raw"
           transform="translate(4.0142547e-7,-2.1260292e-6)"
           id="g269">
          <svg
             viewBox="0 0 32 32"
             x="105.8125"
             y="6.9999843"
             width="32"
             height="32"
             preserveAspectRatio="none"
             version="1.1"
             id="svg267">
            <path
               d="M 4,4 V 28 H 28 V 12.187 l -2,2.001 V 26 H 6 V 6 h 19.813 l 2,-2 z M 27.281,7.281 16,18.563 11.719,14.28 l -1.439,1.44 5.001,4.999 0.719,0.687 0.719,-0.686 12,-12.001 z"
               id="path265"
               inkscape:connector-curvature="0" />
          </svg>
        </g>
      </g>
      <g
         id="shape-1723e7f5-b365-11eb-a19f-b902f2f7b4ee">
        <g
           id="g274">
          <path
             d="m 2693,1858 c -12,-13 -24,-42 -28,-65 l -7,-43 h 41 c 34,0 41,-3 41,-19 0,-11 -20,-185 -45,-388 -25,-202 -45,-376 -45,-385 0,-16 11,-18 98,-18 89,0 100,2 119,23 11,12 23,41 27,65 l 6,42 h -41 -41 l 6,38 c 3,20 24,188 46,372 22,184 42,350 45,368 l 6,32 h -104 c -95,0 -105,-2 -124,-22 z m 360,0 c -12,-13 -24,-42 -28,-65 l -7,-43 h 41 c 34,0 41,-3 41,-19 0,-11 -20,-185 -45,-388 -25,-202 -45,-376 -45,-385 0,-16 11,-18 98,-18 89,0 100,2 119,23 11,12 23,41 27,65 l 6,42 h -41 -41 l 6,38 c 3,20 24,188 46,372 22,184 42,350 45,368 l 6,32 h -104 c -95,0 -105,-2 -124,-22 z M 105,1783 c -3,-27 -8,-63 -11,-80 l -5,-33 h 49 48 l -12,-112 c -6,-62 -20,-191 -29,-285 L 127,1100 H 80 33 l -7,-52 c -3,-29 -6,-65 -6,-80 v -28 h 324 c 301,0 325,1 330,18 12,45 48,233 45,236 -2,2 -33,5 -68,7 l -64,4 -17,-50 -17,-50 -132,-3 -133,-3 6,48 c 3,26 8,74 12,106 l 6,57 h 184 183 l 5,33 c 3,17 7,51 11,75 l 5,42 H 514 327 l 7,63 c 4,34 9,81 12,105 l 6,42 h 123 c 137,0 135,1 135,-71 0,-36 2,-39 29,-39 15,0 49,3 75,6 l 46,7 v 128 129 H 436 111 Z m 6722,37 c -116,-29 -228,-125 -282,-242 -45,-99 -58,-168 -53,-274 3,-74 9,-101 35,-156 37,-79 99,-145 168,-178 61,-29 202,-39 298,-20 67,13 175,58 193,81 7,8 21,57 31,110 l 20,97 -51,6 c -85,10 -83,11 -96,-46 -7,-29 -16,-60 -21,-69 -21,-42 -219,-55 -289,-19 -78,40 -112,114 -111,246 0,164 53,262 165,309 49,21 179,19 236,-3 47,-19 57,-36 59,-104 1,-42 6,-44 95,-32 l 46,7 v 98 98 l -33,25 c -73,56 -123,70 -252,73 -66,1 -137,-2 -158,-7 z m 560,-41 c -13,-108 -13,-109 37,-109 45,0 45,0 40,-32 -6,-48 -54,-507 -54,-524 0,-10 -13,-14 -45,-14 -52,0 -51,1 -59,-92 l -7,-68 h 174 174 l 7,61 c 10,103 12,99 -39,99 -42,0 -45,2 -41,23 3,12 8,52 11,90 l 7,67 h 62 63 l 66,-167 66,-168 104,-3 104,-3 7,62 c 10,102 12,98 -46,101 l -51,3 -44,104 c -23,57 -43,110 -43,116 0,7 15,19 33,26 58,24 125,96 142,152 18,60 18,80 4,148 -15,69 -63,121 -137,150 -51,19 -83,22 -293,27 l -236,5 z m 474,-135 c 30,-30 35,-99 12,-144 -27,-52 -71,-70 -175,-70 -102,0 -94,-15 -76,141 l 11,101 103,-4 c 90,-3 106,-6 125,-24 z m 355,140 c -3,-26 -6,-62 -6,-80 v -34 h 50 c 28,0 50,-1 50,-2 0,-2 -14,-129 -30,-283 -16,-154 -30,-281 -30,-282 0,-2 -20,-3 -44,-3 h -45 l -6,-47 c -3,-27 -7,-63 -10,-81 l -4,-32 h 165 c 153,0 164,1 164,19 0,10 3,46 6,80 l 7,61 h -41 c -40,0 -41,0 -36,33 2,17 11,97 19,176 9,80 18,147 20,149 5,6 34,-54 133,-278 68,-154 69,-155 103,-158 l 34,-2 133,210 c 74,115 137,210 141,210 6,0 -3,-118 -24,-287 l -6,-53 h -40 c -38,0 -39,-1 -39,-34 0,-18 -3,-54 -6,-80 l -7,-46 h 167 c 126,0 166,3 167,13 0,6 3,42 8,80 l 7,67 h -43 c -28,0 -43,4 -43,13 -1,6 12,135 27,285 l 27,272 h 52 51 l 7,46 c 3,26 6,62 6,80 v 34 h -118 -117 l -174,-281 c -95,-154 -177,-277 -181,-272 -5,4 -62,130 -128,278 l -120,270 -119,3 -120,3 z m -2328,-68 c -19,-24 -29,-50 -34,-95 -5,-50 -10,-61 -25,-61 -32,0 -68,-42 -75,-87 l -7,-43 h 43 42 l -6,-37 c -20,-126 -36,-308 -31,-334 9,-39 51,-89 92,-105 39,-17 140,-18 180,-3 42,16 73,48 99,104 30,64 30,73 -3,86 -62,23 -80,23 -86,-3 -11,-43 -46,-78 -78,-78 -47,0 -52,29 -34,184 24,205 15,186 95,186 85,0 115,21 123,88 l 5,42 h -92 -93 l 8,63 c 5,34 10,77 13,95 l 5,32 h -57 c -53,0 -59,-3 -84,-34 z M 831,1536 c -13,-13 -25,-42 -28,-65 l -6,-41 h 42 c 33,0 41,-4 41,-17 -1,-10 -13,-119 -28,-243 l -28,-225 74,-3 c 41,-2 77,-1 79,2 3,3 16,93 29,201 31,249 47,283 142,293 102,9 116,-39 83,-293 -30,-229 -39,-205 77,-205 89,0 100,2 119,23 11,12 23,41 26,65 l 5,42 h -39 c -25,0 -39,5 -39,13 1,6 9,81 19,165 20,161 17,206 -16,250 -29,39 -81,62 -141,62 -71,0 -110,-18 -159,-74 -46,-52 -53,-48 -53,30 v 44 h -88 c -81,0 -91,-2 -111,-24 z m 732,2 c -11,-13 -23,-42 -26,-65 l -5,-43 h 42 42 l -22,-177 c -12,-98 -23,-179 -23,-180 -1,-2 -9,-3 -18,-3 -34,-1 -61,-33 -68,-82 l -7,-48 h 159 c 153,0 160,1 180,23 11,12 23,41 27,65 l 6,42 h -61 c -53,0 -60,2 -55,18 2,9 10,60 17,112 19,151 47,186 143,178 61,-5 56,-13 72,111 8,61 0,71 -55,71 -43,0 -92,-49 -117,-117 -9,-27 -20,-52 -24,-56 -4,-5 -11,32 -14,82 l -8,91 h -82 c -73,0 -85,-3 -103,-22 z m 647,13 c -84,-27 -141,-80 -184,-171 -29,-60 -31,-73 -31,-170 0,-89 3,-111 22,-147 49,-91 130,-129 261,-121 128,7 215,67 271,188 22,47 26,69 26,151 0,87 -3,101 -30,154 -23,45 -42,66 -79,90 -44,27 -58,30 -140,32 -50,1 -102,-1 -116,-6 z m 153,-132 c 35,-27 51,-88 44,-171 -11,-128 -57,-188 -144,-188 -52,0 -78,21 -92,74 -26,106 -4,235 50,280 39,33 104,36 142,5 z m 1028,117 c -13,-13 -25,-42 -28,-65 l -6,-41 h 42 c 33,0 41,-4 41,-17 -1,-10 -13,-119 -28,-243 l -28,-225 74,-3 c 41,-2 77,-1 79,2 3,3 16,91 29,195 31,260 51,301 145,301 86,0 97,-39 70,-268 -12,-97 -23,-189 -26,-204 l -4,-28 h 79 c 44,0 80,2 80,5 0,40 45,363 56,402 18,65 51,93 109,93 91,0 101,-51 65,-330 -11,-85 -20,-158 -20,-162 0,-5 44,-8 98,-8 117,1 137,12 147,83 l 7,47 h -40 c -40,0 -41,0 -36,33 17,126 34,277 34,307 0,48 -28,100 -69,127 -26,18 -48,23 -95,23 -73,0 -122,-27 -171,-91 l -29,-39 -21,42 c -28,60 -74,88 -142,88 -29,0 -68,-6 -86,-13 -33,-14 -107,-89 -107,-108 0,-5 -4,-7 -10,-4 -5,3 -10,33 -10,66 v 59 h -88 c -81,0 -91,-2 -111,-24 z m 1242,8 c -63,-23 -128,-86 -164,-160 -27,-54 -33,-81 -37,-150 -5,-101 8,-158 51,-209 93,-113 308,-115 414,-4 18,19 39,51 48,72 18,43 19,41 -62,55 l -51,9 -17,-37 c -19,-42 -49,-60 -100,-60 -52,0 -82,19 -99,62 -23,56 -20,66 17,72 125,21 162,29 199,42 161,57 188,223 48,297 -44,23 -64,27 -129,26 -42,0 -95,-7 -118,-15 z m 151,-107 c 13,-9 17,-23 14,-52 -2,-31 -10,-44 -35,-61 -28,-19 -151,-50 -160,-41 -8,9 31,110 53,137 21,25 33,30 68,30 23,0 50,-6 60,-13 z m 287,99 c -13,-13 -25,-42 -28,-65 l -6,-41 h 42 c 33,0 41,-4 41,-17 -1,-10 -13,-119 -28,-243 l -28,-225 74,-3 c 41,-2 77,-1 79,2 3,3 16,93 29,201 31,249 47,283 142,293 102,9 116,-39 83,-293 -30,-229 -39,-205 77,-205 89,0 100,2 119,23 11,12 23,41 26,65 l 5,42 h -39 c -25,0 -39,5 -39,13 1,6 9,81 19,165 20,161 17,206 -16,250 -29,39 -81,62 -141,62 -71,0 -110,-18 -159,-74 -46,-52 -53,-48 -53,30 v 44 h -88 c -81,0 -91,-2 -111,-24 z M 0,280 V 180 h 5395 5395 V 90 0 h 95 95 V 190 380 H 5490 0 Z"
             transform="matrix(0.025,0,0,-0.025,117.0625,114.49999)"
             id="path272"
             inkscape:connector-curvature="0"
             style="fill:#000000;stroke:none" />
        </g>
      </g>
      <g
         id="shape-1723e7f6-b365-11eb-a19f-b902f2f7b4ee">
        <g
           class="svg-raw"
           id="g281">
          <svg
             viewBox="0 0 32 32"
             x="70.0625"
             y="64.499992"
             width="32"
             height="32"
             preserveAspectRatio="none"
             version="1.1"
             id="svg279">
            <path
               d="M 4,4 V 28 H 28 V 12.187 l -2,2.001 V 26 H 6 V 6 h 19.813 l 2,-2 z M 27.281,7.281 16,18.563 11.719,14.28 l -1.439,1.44 5.001,4.999 0.719,0.687 0.719,-0.686 12,-12.001 z"
               id="path277"
               inkscape:connector-curvature="0" />
          </svg>
        </g>
      </g>
      <g
         id="shape-1723e7f8-b365-11eb-a19f-b902f2f7b4ee">
        <g
           id="g286">
          <path
             d="m 7753,1858 c -12,-13 -24,-42 -28,-65 l -7,-43 h 56 c 31,0 56,-4 56,-8 0,-24 -31,-257 -35,-261 -3,-2 -14,8 -26,23 -32,40 -71,56 -140,56 -82,0 -139,-27 -189,-91 -64,-81 -84,-146 -84,-274 -1,-104 1,-113 29,-164 19,-35 42,-61 65,-73 41,-22 126,-24 173,-4 33,13 117,97 117,116 0,5 5,10 10,10 6,0 10,-30 10,-70 v -70 h 84 c 105,0 132,17 138,85 l 3,45 h -37 c -27,0 -38,4 -38,14 0,8 20,179 45,380 25,201 45,377 45,391 v 25 h -113 c -105,0 -115,-2 -134,-22 z m -43,-433 c 42,-22 60,-63 60,-140 0,-80 -25,-139 -82,-190 -34,-31 -45,-36 -80,-33 -31,2 -46,10 -62,31 -18,25 -21,42 -20,125 0,80 4,105 23,145 35,72 96,95 161,62 z m -5860,396 c 0,-15 -3,-56 -6,-90 l -7,-61 h 76 75 l 7,63 c 3,34 8,74 11,90 l 6,27 h -81 -81 z m 6366,2 c -3,-16 -8,-56 -11,-90 l -7,-63 h 76 75 l 5,33 c 3,17 8,58 11,90 l 6,57 h -74 c -74,0 -75,0 -81,-27 z M 385,1817 C 240,1768 120,1650 70,1505 -4,1291 75,1058 248,973 c 48,-23 73,-28 157,-31 86,-4 111,-1 173,20 l 73,25 59,-65 59,-66 53,51 54,50 -54,61 -54,61 31,40 c 81,102 123,261 101,383 -24,133 -110,253 -213,299 -64,28 -237,37 -302,16 z m 242,-169 c 28,-18 50,-45 69,-84 24,-50 28,-68 27,-148 -1,-90 -28,-195 -55,-212 -6,-4 -40,25 -77,65 l -66,71 -54,-49 -54,-48 62,-67 c 34,-37 59,-71 56,-76 -9,-15 -151,-12 -188,4 -42,18 -71,50 -98,111 -32,69 -32,206 -1,286 28,70 79,130 134,158 36,18 57,21 124,19 68,-3 87,-7 121,-30 z m 3805,169 c -58,-22 -103,-67 -135,-135 -25,-54 -30,-76 -29,-136 1,-39 8,-93 16,-121 15,-46 15,-51 -1,-60 -71,-43 -140,-94 -155,-115 -24,-34 -33,-106 -18,-160 36,-136 231,-190 413,-116 l 67,27 58,-27 c 69,-33 193,-44 257,-22 38,13 40,15 38,53 -1,22 -5,54 -8,70 l -5,30 h -84 c -46,0 -88,3 -91,7 -4,4 17,32 47,63 30,31 65,74 79,95 22,36 28,39 67,40 48,0 48,-1 56,93 l 7,67 h -161 c -120,0 -162,-3 -164,-12 -3,-7 -7,-43 -10,-80 l -7,-68 h 31 c 36,0 37,-7 6,-68 -37,-73 -46,-77 -89,-41 -39,32 -127,148 -127,168 0,6 28,25 63,42 90,46 170,104 192,141 29,48 27,141 -3,190 -39,62 -82,82 -187,85 -54,2 -103,-2 -123,-10 z m 152,-129 c 20,-28 20,-68 3,-111 -14,-32 -77,-95 -115,-116 -18,-9 -21,-6 -31,34 -21,83 -8,163 31,198 30,25 93,23 112,-5 z m -218,-445 c 20,-32 56,-82 81,-110 l 45,-53 h -77 c -79,0 -127,16 -139,45 -10,27 -7,95 5,118 12,22 39,57 45,57 2,0 20,-26 40,-57 z m 1239,569 c -183,-63 -296,-215 -320,-432 -21,-181 81,-376 222,-424 105,-36 254,-15 336,48 l 35,26 6,-22 c 3,-13 6,-33 6,-45 0,-21 4,-23 64,-23 h 63 l 7,68 c 26,264 27,272 52,272 20,0 24,5 24,29 0,15 3,49 6,75 l 7,46 h -192 c -175,0 -191,-1 -192,-17 0,-10 -4,-44 -8,-75 l -7,-58 h 83 c 91,0 92,-1 72,-61 -17,-51 -57,-99 -95,-115 -51,-21 -150,-18 -201,7 -84,41 -125,162 -104,305 18,124 77,211 169,250 50,21 202,15 253,-10 34,-16 37,-22 44,-71 l 6,-53 62,5 c 34,3 66,9 70,13 5,4 5,49 0,100 l -8,93 -52,29 c -29,16 -76,36 -105,44 -75,20 -240,18 -303,-4 z M 1023,1541 c -13,-11 -24,-35 -28,-64 l -7,-47 h 41 c 38,0 41,-2 37,-22 -15,-72 -37,-313 -32,-343 8,-40 46,-89 87,-110 41,-22 132,-19 180,5 22,12 52,38 67,60 15,22 30,39 35,40 4,0 7,-17 7,-37 0,-82 2,-83 99,-83 78,0 90,2 108,23 11,12 23,41 27,65 l 6,42 h -43 -43 l 28,228 c 15,125 27,235 28,245 0,15 -10,17 -78,17 h -78 l -23,-192 c -25,-214 -41,-267 -90,-292 -42,-22 -93,-20 -125,5 -23,18 -26,27 -26,88 0,57 10,159 36,349 l 5,42 h -98 c -80,-1 -102,-4 -120,-19 z m 728,-5 c -13,-13 -25,-42 -28,-65 l -6,-41 h 42 c 33,0 41,-4 41,-17 -1,-10 -13,-120 -28,-245 l -28,-228 h 98 c 92,0 101,2 123,25 18,18 25,35 25,65 0,39 -1,40 -35,40 -19,0 -35,5 -35,11 0,12 48,420 54,457 3,22 1,22 -99,22 -94,0 -103,-2 -124,-24 z m 376,17 c -7,-12 -40,-203 -36,-207 2,-2 27,-6 56,-8 l 52,-5 16,48 17,49 h 89 c 49,0 89,-3 89,-7 -1,-5 -82,-93 -180,-198 -157,-164 -180,-193 -180,-221 0,-67 -13,-64 264,-64 h 251 l 28,101 c 15,56 25,104 22,107 -3,3 -30,7 -60,10 l -55,4 -19,-46 -20,-46 h -101 c -55,0 -100,3 -100,6 0,3 83,93 184,200 l 183,194 -10,45 -10,45 h -238 c -131,0 -240,-3 -242,-7 z m 746,-9 c -63,-23 -128,-86 -164,-160 -27,-54 -33,-81 -37,-150 -5,-101 8,-158 51,-209 93,-113 308,-115 414,-4 18,19 39,51 48,72 18,43 19,41 -62,55 l -51,9 -17,-37 c -19,-42 -49,-60 -100,-60 -52,0 -82,19 -99,62 -23,56 -20,66 17,72 125,21 162,29 199,42 161,57 188,223 48,297 -44,23 -64,27 -129,26 -42,0 -95,-7 -118,-15 z m 151,-107 c 13,-9 17,-23 14,-52 -2,-31 -10,-44 -35,-61 -28,-19 -151,-50 -160,-41 -8,9 31,110 53,137 21,25 33,30 68,30 23,0 50,-6 60,-13 z m 408,105 c -87,-31 -132,-88 -132,-167 0,-90 51,-136 195,-176 112,-30 117,-33 113,-77 -4,-49 -32,-63 -123,-60 l -70,3 -3,37 c -3,37 -3,37 -58,44 -30,3 -57,4 -60,1 -3,-3 -14,-38 -24,-78 -15,-56 -16,-75 -7,-81 64,-42 290,-62 376,-33 94,31 141,90 141,177 0,88 -51,140 -170,174 -30,8 -74,22 -98,31 -40,14 -43,18 -40,46 4,43 37,59 110,54 31,-3 61,-8 67,-12 6,-3 11,-23 11,-44 0,-41 -3,-41 98,-25 l 32,5 v 75 75 l -47,21 c -69,31 -237,36 -311,10 z m 2771,-4 c -11,-13 -23,-42 -26,-65 l -5,-43 h 42 42 l -22,-177 c -12,-98 -23,-179 -23,-180 -1,-2 -9,-3 -18,-3 -34,-1 -61,-33 -68,-82 l -7,-48 h 159 c 153,0 160,1 180,23 11,12 23,41 27,65 l 6,42 h -61 c -53,0 -60,2 -55,18 2,9 10,60 17,112 19,151 47,186 143,178 61,-5 56,-13 72,111 8,61 0,71 -55,71 -43,0 -92,-49 -117,-117 -9,-27 -20,-52 -24,-56 -4,-5 -11,32 -14,82 l -8,91 h -82 c -73,0 -85,-3 -103,-22 z m 602,3 c -161,-73 -232,-390 -120,-536 36,-48 74,-65 143,-65 69,0 119,28 167,92 l 30,40 3,-44 c 5,-91 2,-88 95,-88 101,1 124,15 133,84 l 7,46 h -41 c -40,0 -41,1 -37,28 3,15 14,97 25,182 11,86 27,178 35,205 23,76 24,75 -59,75 h -75 l -12,-55 c -7,-30 -15,-55 -18,-55 -3,0 -15,16 -26,37 -11,20 -36,44 -55,55 -46,24 -141,24 -195,-1 z m 186,-118 c 45,-26 62,-74 57,-153 -11,-149 -121,-254 -205,-195 -66,46 -49,288 24,344 32,26 85,27 124,4 z m 1122,115 c -12,-13 -24,-42 -28,-65 l -7,-43 h 41 c 50,0 49,14 16,-254 -14,-110 -25,-208 -25,-218 0,-16 10,-18 98,-18 89,0 100,2 119,23 11,12 23,41 26,65 l 5,42 h -40 -40 l 6,38 c 3,20 15,114 26,207 11,94 23,187 26,208 l 6,37 h -104 c -96,0 -106,-2 -125,-22 z m 358,-2 c -13,-13 -25,-42 -28,-65 l -6,-41 h 42 c 33,0 41,-4 41,-17 -1,-10 -13,-119 -28,-243 l -28,-225 74,-3 c 41,-2 77,-1 79,2 3,3 16,93 29,201 31,249 47,283 142,293 102,9 116,-39 83,-293 -30,-229 -39,-205 77,-205 89,0 100,2 119,23 11,12 23,41 26,65 l 5,42 h -39 c -25,0 -39,5 -39,13 1,6 9,81 19,165 20,161 17,206 -16,250 -29,39 -81,62 -141,62 -71,0 -110,-18 -159,-74 -46,-52 -53,-48 -53,30 v 44 h -88 c -81,0 -91,-2 -111,-24 z m 851,3 c -173,-86 -232,-428 -97,-559 31,-30 43,-35 99,-38 78,-5 119,12 177,75 22,24 42,43 44,41 8,-8 -15,-138 -31,-178 -9,-22 -30,-52 -47,-66 -28,-24 -37,-26 -100,-22 -64,4 -72,6 -102,39 -18,20 -34,42 -37,49 -7,22 -114,-42 -110,-66 8,-46 58,-108 107,-133 57,-30 182,-41 251,-22 86,23 151,92 193,207 17,44 81,481 81,550 0,8 10,14 23,14 38,1 64,31 71,83 l 6,48 -107,-3 -106,-3 -14,-47 c -7,-27 -17,-48 -21,-48 -4,0 -15,14 -24,30 -9,16 -32,39 -50,50 -46,28 -148,28 -206,-1 z m 214,-130 c 60,-56 51,-200 -18,-289 -49,-62 -120,-78 -163,-36 -61,61 -38,268 38,332 26,22 38,25 75,21 26,-3 53,-14 68,-28 z M 0,480 V 380 h 5780 5780 V 480 580 H 5780 0 Z"
             transform="matrix(0.025,0,0,-0.025,79.062501,168.49999)"
             id="path284"
             inkscape:connector-curvature="0"
             style="fill:#000000;stroke:none" />
        </g>
      </g>
      <g
         id="shape-1723e7f9-b365-11eb-a19f-b902f2f7b4ee">
        <g
           class="svg-raw"
           id="g293">
          <svg
             viewBox="0 0 32 32"
             x="32.0625"
             y="118.49999"
             width="32"
             height="32"
             preserveAspectRatio="none"
             version="1.1"
             id="svg291">
            <path
               d="M 4,4 V 28 H 28 V 12.187 l -2,2.001 V 26 H 6 V 6 h 19.813 l 2,-2 z M 27.281,7.281 16,18.563 11.719,14.28 l -1.439,1.44 5.001,4.999 0.719,0.687 0.719,-0.686 12,-12.001 z"
               id="path289"
               inkscape:connector-curvature="0" />
          </svg>
        </g>
      </g>
      <g
         id="shape-1723e7fb-b365-11eb-a19f-b902f2f7b4ee"
         style="filter:url(#filter_b9939fd0-b374-11eb-bad9-23164b13e969)">
        <defs
           id="defs311">
          <filter
             id="filter_b9939fd0-b374-11eb-bad9-23164b13e969"
             x="40.062504"
             y="148.5"
             width="393"
             height="239"
             filterUnits="userSpaceOnUse"
             style="color-interpolation-filters:sRGB">
            <feFlood
               flood-opacity="0"
               result="BackgroundImageFix"
               id="feFlood296" />
            <feColorMatrix
               in="SourceAlpha"
               type="matrix"
               values="0 0 0 0 0 0 0 0 0 0 0 0 0 0 0 0 0 0 127 0"
               id="feColorMatrix298" />
            <feOffset
               dx="4"
               dy="4"
               id="feOffset300" />
            <feGaussianBlur
               stdDeviation="3.5"
               id="feGaussianBlur302" />
            <feColorMatrix
               type="matrix"
               values="0 0 0 0 0 0 0 0 0 0 0 0 0 0 0 0 0 0 0.2 0"
               id="feColorMatrix304" />
            <feBlend
               mode="normal"
               in2="BackgroundImageFix"
               result="filter_e9d62510-6850-11eb-859f-87a287cc736d"
               id="feBlend306" />
            <feBlend
               mode="normal"
               in="SourceGraphic"
               in2="filter_e9d62510-6850-11eb-859f-87a287cc736d"
               result="shape"
               id="feBlend308" />
          </filter>
        </defs>
        <rect
           rx="0"
           ry="0"
           x="48.0625"
           y="156.5"
           transform="translate(4.5727627e-6,3.4557239e-6)"
           width="365"
           height="211"
           style="fill:#fec6b4;fill-opacity:1;stroke:#000000;stroke-width:5;stroke-opacity:1"
           id="rect313" />
      </g>
      <g
         id="shape-1723e7fc-b365-11eb-a19f-b902f2f7b4ee">
        <g
           id="g318">
          <path
             d="m 0,1560 v -100 h 5535 5535 V 730 0 h 95 95 v 830 830 H 5630 0 Z"
             transform="matrix(0.025,0,0,-0.025,86.062501,325.49999)"
             id="path316"
             inkscape:connector-curvature="0"
             style="fill:#000000;stroke:none" />
        </g>
      </g>
      <g
         id="shape-1723e7fd-b365-11eb-a19f-b902f2f7b4ee"
         style="filter:url(#filter_b994b140-b374-11eb-bad9-23164b13e969)">
        <defs
           id="defs336">
          <filter
             id="filter_b994b140-b374-11eb-bad9-23164b13e969"
             x="73.197372"
             y="218.5"
             width="393"
             height="239"
             filterUnits="userSpaceOnUse"
             style="color-interpolation-filters:sRGB">
            <feFlood
               flood-opacity="0"
               result="BackgroundImageFix"
               id="feFlood321" />
            <feColorMatrix
               in="SourceAlpha"
               type="matrix"
               values="0 0 0 0 0 0 0 0 0 0 0 0 0 0 0 0 0 0 127 0"
               id="feColorMatrix323" />
            <feOffset
               dx="4"
               dy="4"
               id="feOffset325" />
            <feGaussianBlur
               stdDeviation="3.5"
               id="feGaussianBlur327" />
            <feColorMatrix
               type="matrix"
               values="0 0 0 0 0 0 0 0 0 0 0 0 0 0 0 0 0 0 0.2 0"
               id="feColorMatrix329" />
            <feBlend
               mode="normal"
               in2="BackgroundImageFix"
               result="filter_e0eb4700-6850-11eb-859f-87a287cc736d"
               id="feBlend331" />
            <feBlend
               mode="normal"
               in="SourceGraphic"
               in2="filter_e0eb4700-6850-11eb-859f-87a287cc736d"
               result="shape"
               id="feBlend333" />
          </filter>
        </defs>
        <rect
           rx="0"
           ry="0"
           x="81.197372"
           y="226.49998"
           transform="translate(5.7944931e-6,3.8821868e-6)"
           width="365"
           height="211"
           style="fill:#ffc700;fill-opacity:1;stroke:#000000;stroke-width:5;stroke-opacity:1"
           id="rect338" />
      </g>
      <g
         id="shape-1723e7fe-b365-11eb-a19f-b902f2f7b4ee">
        <g
           id="g343">
          <path
             d="m 8536,1855 c -20,-18 -26,-34 -26,-65 v -40 h 41 41 l -6,-37 c -3,-21 -24,-186 -46,-368 -22,-181 -42,-347 -45,-367 l -5,-38 h 97 c 121,0 142,13 150,83 l 6,47 h -37 c -31,0 -36,3 -36,23 0,12 20,187 45,389 25,203 45,375 45,383 0,12 -18,15 -99,15 -90,0 -100,-2 -125,-25 z m 443,-27 c 0,-13 -3,-53 -8,-90 l -7,-68 h 77 76 l 7,61 c 3,34 6,75 6,90 v 29 h -75 c -71,0 -75,-1 -76,-22 z M 116,1808 c -3,-13 -7,-49 -10,-80 l -6,-58 h 45 c 25,0 45,-3 45,-7 1,-17 -51,-520 -56,-540 -4,-20 -11,-23 -48,-23 H 43 l -7,-46 c -3,-26 -6,-62 -6,-80 v -34 h 170 169 l 5,33 c 3,17 8,53 11,80 l 6,47 h -45 c -56,0 -55,-26 -18,315 l 27,250 46,3 46,3 7,46 c 3,25 6,61 6,79 v 34 H 290 c -168,0 -170,0 -174,-22 z m 1560,1 c -3,-13 -7,-50 -10,-81 l -6,-58 h 45 c 25,0 45,-3 45,-7 1,-17 -51,-520 -56,-540 -4,-20 -11,-23 -48,-23 h -43 l -7,-46 c -3,-26 -6,-62 -6,-80 v -34 h 190 189 l 5,33 c 3,17 7,53 10,80 l 6,47 h -67 -66 l 7,53 c 3,28 6,60 6,70 0,14 10,17 58,17 284,2 435,124 420,339 -8,109 -56,179 -153,222 -46,20 -70,23 -282,27 l -232,5 z m 439,-151 c 36,-16 55,-57 55,-115 0,-110 -55,-153 -194,-153 h -88 l 6,53 c 3,28 8,81 11,117 11,118 4,110 100,110 46,0 96,-5 110,-12 z m 3854,144 c -42,-22 -61,-40 -87,-82 -55,-93 -64,-161 -37,-279 9,-36 12,-68 8,-71 -4,-4 -40,-27 -79,-52 -49,-31 -76,-56 -87,-81 -20,-42 -22,-126 -3,-170 17,-43 73,-90 130,-112 67,-26 190,-17 275,19 l 64,27 61,-28 c 54,-25 73,-28 156,-28 52,0 107,6 121,12 25,11 25,12 16,80 l -9,68 -77,-3 c -109,-4 -116,5 -55,70 28,29 63,72 79,96 25,38 31,42 70,42 h 42 l 7,46 c 3,26 6,62 6,80 v 34 h -159 -158 l -7,-46 c -3,-26 -6,-62 -6,-80 0,-31 3,-34 30,-34 17,0 30,-2 30,-5 0,-9 -48,-99 -64,-120 -14,-19 -16,-19 -66,30 -57,56 -129,157 -114,162 5,2 46,24 90,49 148,83 184,126 184,218 0,123 -76,185 -226,186 -70,0 -89,-4 -135,-28 z m 175,-108 c 16,-15 20,-36 16,-84 -2,-38 -44,-95 -95,-130 -41,-28 -46,-30 -53,-13 -4,10 -7,57 -7,105 0,78 2,89 24,112 29,30 90,36 115,10 z m -216,-446 c 16,-29 50,-76 76,-104 25,-29 46,-55 46,-59 0,-4 -39,-5 -86,-4 -79,4 -87,6 -110,32 -26,31 -32,83 -13,120 10,20 49,67 55,67 1,0 15,-24 32,-52 z m 1247,561 c -118,-41 -204,-115 -264,-228 -119,-223 -59,-499 130,-601 63,-35 65,-35 190,-35 125,0 125,0 203,38 98,49 172,121 219,216 45,90 60,164 55,266 -7,143 -89,275 -207,332 -48,24 -70,28 -161,31 -86,2 -116,-1 -165,-19 z m 222,-140 c 77,-29 125,-110 131,-226 8,-147 -51,-279 -147,-330 -35,-18 -60,-23 -121,-23 -107,0 -154,25 -195,105 -28,55 -30,66 -29,164 0,86 4,115 21,153 28,61 88,127 138,149 45,21 157,25 202,8 z M 513,1538 c -11,-13 -23,-42 -26,-65 l -5,-43 h 44 c 42,0 43,-1 39,-27 -5,-28 -55,-443 -55,-456 0,-4 35,-7 79,-7 h 78 l 22,193 c 25,213 42,266 90,291 67,35 144,7 154,-56 4,-27 -16,-241 -38,-390 l -5,-38 h 97 c 118,1 140,13 149,84 l 7,46 h -40 -40 l 13,103 c 29,225 29,260 4,305 -48,85 -171,110 -262,53 -25,-16 -54,-43 -64,-60 -10,-17 -22,-31 -26,-31 -4,0 -8,26 -10,58 l -3,57 -90,3 c -84,2 -92,1 -112,-20 z m 2071,-2 c -133,-62 -214,-232 -186,-394 14,-86 50,-137 122,-175 51,-26 62,-28 146,-25 80,3 96,6 140,33 51,32 117,117 112,144 -2,10 -23,19 -61,27 l -58,11 -19,-38 c -24,-46 -46,-59 -100,-59 -52,0 -76,13 -95,50 -13,26 -21,80 -11,80 29,0 188,35 230,50 164,62 178,240 24,304 -59,25 -182,21 -244,-8 z m 168,-103 c 22,-20 23,-61 3,-91 -15,-21 -74,-42 -154,-56 l -33,-6 7,37 c 9,48 40,109 62,122 28,16 94,13 115,-6 z m 299,103 c -13,-13 -25,-42 -28,-65 l -6,-41 h 42 c 22,0 41,-3 41,-7 0,-5 -9,-80 -20,-168 -11,-88 -20,-166 -20,-172 0,-7 -10,-13 -23,-13 -34,0 -64,-38 -69,-87 l -4,-43 h 156 c 182,1 199,7 208,85 l 5,45 h -57 c -38,0 -56,4 -56,13 0,6 7,58 15,115 23,159 45,187 145,180 l 57,-4 11,85 c 13,96 11,101 -49,101 -26,0 -44,-8 -62,-26 -26,-26 -77,-122 -77,-144 0,-6 -4,-8 -10,-5 -5,3 -10,44 -10,91 v 84 h -83 c -75,0 -86,-2 -106,-24 z m 576,0 c -32,-13 -64,-29 -71,-35 -27,-22 -46,-79 -46,-134 0,-90 42,-124 219,-179 80,-25 98,-41 88,-80 -9,-33 -46,-48 -120,-48 -77,0 -92,9 -84,48 6,28 4,30 -31,36 -86,14 -86,14 -106,-71 -18,-73 -18,-77 -1,-89 36,-26 162,-46 263,-42 84,3 104,8 150,33 80,44 115,120 92,204 -17,65 -74,102 -215,142 -80,22 -100,37 -92,71 11,44 94,62 166,37 27,-10 31,-15 31,-48 v -37 l 55,6 c 30,3 60,11 66,17 5,5 9,40 7,79 l -3,68 -50,20 c -34,12 -84,20 -155,23 -94,3 -111,1 -163,-21 z m 647,8 c -132,-47 -226,-236 -196,-396 26,-139 110,-208 251,-208 100,0 158,20 221,77 62,56 97,122 109,205 21,151 -34,278 -141,322 -47,20 -188,20 -244,0 z m 160,-115 c 38,-18 56,-66 56,-151 0,-96 -15,-145 -55,-185 -28,-28 -40,-33 -78,-33 -34,0 -53,6 -74,24 -27,23 -28,29 -31,126 -3,79 0,112 13,147 27,71 101,102 169,72 z m 319,109 c -11,-13 -23,-42 -26,-65 l -5,-43 h 44 c 42,0 43,-1 39,-27 -5,-28 -55,-443 -55,-456 0,-4 35,-7 79,-7 h 78 l 22,193 c 25,213 42,266 90,291 67,35 144,7 154,-56 4,-27 -16,-241 -38,-390 l -5,-38 h 97 c 118,1 140,13 149,84 l 7,46 h -40 -40 l 13,103 c 29,225 29,260 4,305 -48,85 -171,110 -262,53 -25,-16 -54,-43 -64,-60 -10,-17 -22,-31 -26,-31 -4,0 -8,26 -10,58 l -3,57 -90,3 c -84,2 -92,1 -112,-20 z m 3040,0 c -11,-13 -23,-42 -26,-65 l -5,-43 h 44 c 42,0 43,-1 39,-27 -5,-28 -55,-443 -55,-456 0,-4 35,-7 79,-7 h 78 l 22,193 c 25,213 42,266 90,291 67,35 144,7 154,-56 4,-27 -16,-241 -38,-390 l -5,-38 h 97 c 118,1 140,13 149,84 l 7,46 h -40 -40 l 13,103 c 29,225 29,260 4,305 -48,85 -171,110 -262,53 -25,-16 -54,-43 -64,-60 -10,-17 -22,-31 -26,-31 -4,0 -8,26 -10,58 l -3,57 -90,3 c -84,2 -92,1 -112,-20 z m 1083,-3 c -20,-18 -26,-34 -26,-65 v -40 h 41 41 l -6,-37 c -3,-21 -15,-117 -26,-213 -11,-96 -22,-190 -25,-207 l -6,-33 h 98 c 120,0 140,11 149,83 l 7,47 h -37 c -44,0 -43,-16 -11,245 14,110 25,210 25,223 0,21 -3,22 -99,22 -90,0 -100,-2 -125,-25 z m 357,3 c -11,-13 -23,-42 -26,-65 l -5,-43 h 44 c 42,0 43,-1 39,-27 -5,-28 -55,-443 -55,-456 0,-4 35,-7 79,-7 h 78 l 22,193 c 25,213 42,266 90,291 67,35 144,7 154,-56 4,-27 -16,-241 -38,-390 l -5,-38 h 97 c 118,1 140,13 149,84 l 7,46 h -40 -40 l 13,103 c 29,225 29,260 4,305 -48,85 -171,110 -262,53 -25,-16 -54,-43 -64,-60 -10,-17 -22,-31 -26,-31 -4,0 -8,26 -10,58 l -3,57 -90,3 c -84,2 -92,1 -112,-20 z m 907,13 c -147,-45 -248,-231 -220,-403 11,-73 30,-108 80,-150 50,-43 98,-58 186,-58 109,0 213,62 245,148 15,38 8,45 -54,58 l -56,11 -12,-29 c -35,-86 -170,-95 -204,-13 -25,57 -20,73 23,80 104,17 192,40 235,62 132,66 124,229 -15,287 -39,17 -163,20 -208,7 z m 134,-117 c 20,-20 20,-63 1,-92 -20,-27 -185,-75 -185,-54 0,30 36,118 55,138 29,29 104,34 129,8 z M 1226,1303 c -3,-21 -6,-55 -6,-75 v -38 h 150 c 170,0 153,-10 164,98 l 5,52 H 1386 1233 Z M 0,70 V 0 h 4510 4510 v 70 70 H 4510 0 Z"
             transform="matrix(0.025,0,0,-0.025,142.19737,287.49999)"
             id="path341"
             inkscape:connector-curvature="0"
             style="fill:#000000;stroke:none" />
        </g>
      </g>
      <g
         id="shape-1723e7ff-b365-11eb-a19f-b902f2f7b4ee">
        <g
           id="g348">
          <path
             d="m 2406,1815 c -20,-18 -26,-34 -26,-65 0,-39 1,-40 35,-40 24,0 35,-5 35,-14 0,-8 -20,-181 -45,-385 -25,-203 -45,-379 -45,-390 0,-19 6,-21 74,-21 87,0 79,-12 97,143 l 12,107 h 31 c 30,0 35,-6 100,-125 l 68,-125 h 64 c 82,0 114,25 114,90 v 40 h -44 -44 l -51,91 -50,90 63,62 c 68,68 106,135 114,203 l 5,44 h -77 c -53,0 -78,-4 -80,-12 -24,-88 -41,-132 -68,-178 -32,-53 -35,-55 -81,-58 -27,-2 -47,1 -47,7 0,15 59,501 65,534 l 5,27 h -99 c -90,0 -100,-2 -125,-25 z m 1810,-32 c -3,-16 -8,-56 -11,-90 l -7,-63 h 76 75 l 5,33 c 3,17 8,58 11,90 l 6,57 h -74 c -74,0 -75,0 -81,-27 z M 95,1743 c -3,-27 -7,-63 -10,-80 l -4,-33 h 54 54 l -5,-32 c -6,-44 -54,-509 -54,-525 0,-9 -16,-13 -45,-13 -52,0 -51,1 -59,-92 l -7,-68 h 160 c 88,0 162,3 164,8 2,4 8,40 11,80 l 7,72 h -42 c -41,0 -41,0 -36,33 3,17 11,91 18,162 6,72 15,139 19,150 8,22 5,28 136,-267 l 69,-157 h 35 c 35,0 36,2 160,200 69,110 131,205 139,212 15,13 15,2 -11,-230 l -11,-103 h -37 -37 l -7,-61 C 745,889 728,900 914,900 h 163 l 7,53 c 12,105 12,107 -38,107 -45,0 -45,0 -40,33 6,47 54,506 54,523 0,10 14,14 55,14 53,0 55,1 55,28 0,15 3,51 6,80 l 7,52 H 1062 942 L 769,1510 c -95,-154 -175,-280 -178,-280 -3,0 -62,126 -130,280 L 338,1790 H 219 101 Z m 6337,34 c -58,-22 -103,-67 -135,-135 -25,-54 -30,-76 -29,-136 1,-39 8,-93 16,-121 15,-46 15,-51 -1,-60 -71,-43 -140,-94 -155,-115 -24,-34 -33,-106 -18,-160 36,-136 231,-190 413,-116 l 67,27 58,-27 c 69,-33 193,-44 257,-22 38,13 40,15 38,53 -1,22 -5,54 -8,70 l -5,30 h -84 c -46,0 -88,3 -91,7 -4,4 17,32 47,63 30,31 65,74 79,95 22,36 28,39 67,40 48,0 48,-1 56,93 l 7,67 h -161 c -120,0 -162,-3 -164,-12 -3,-7 -7,-43 -10,-80 l -7,-68 h 31 c 36,0 37,-7 6,-68 -37,-73 -46,-77 -89,-41 -39,32 -127,148 -127,168 0,6 28,25 63,42 90,46 170,104 192,141 29,48 27,141 -3,190 -39,62 -82,82 -187,85 -54,2 -103,-2 -123,-10 z m 152,-129 c 20,-28 20,-68 3,-111 -14,-32 -77,-95 -115,-116 -18,-9 -21,-6 -31,34 -21,83 -8,163 31,198 30,25 93,23 112,-5 z m -218,-445 c 20,-32 56,-82 81,-110 l 45,-53 h -77 c -79,0 -127,16 -139,45 -10,27 -7,95 5,118 12,22 39,57 45,57 2,0 20,-26 40,-57 z m 1261,577 c -116,-29 -228,-125 -282,-242 -45,-99 -58,-168 -53,-274 3,-74 9,-101 35,-156 37,-79 99,-145 168,-178 61,-29 202,-39 298,-20 67,13 175,58 193,81 7,8 21,57 31,110 l 20,97 -51,6 c -85,10 -83,11 -96,-46 -7,-29 -16,-60 -21,-69 -21,-42 -219,-55 -289,-19 -78,40 -112,114 -111,246 0,164 53,262 165,309 49,21 179,19 236,-3 47,-19 57,-36 59,-104 1,-42 6,-44 95,-32 l 46,7 v 98 98 l -33,25 c -73,56 -123,70 -252,73 -66,1 -137,-2 -158,-7 z m 549,-36 c -3,-26 -6,-62 -6,-80 v -34 h 50 c 28,0 50,-1 50,-2 0,-2 -14,-129 -30,-283 -16,-154 -30,-281 -30,-282 0,-2 -20,-3 -44,-3 h -45 l -6,-47 c -3,-27 -7,-63 -10,-81 l -4,-32 h 165 c 153,0 164,1 164,19 0,10 3,46 6,80 l 7,61 h -41 c -40,0 -41,0 -36,33 2,17 11,97 19,176 9,80 18,147 20,149 5,6 34,-54 133,-278 68,-154 69,-155 103,-158 l 34,-2 133,210 c 74,115 137,210 141,210 6,0 -3,-118 -24,-287 l -6,-53 h -40 c -38,0 -39,-1 -39,-34 0,-18 -3,-54 -6,-80 l -7,-46 h 167 c 126,0 166,3 167,13 0,6 3,42 8,80 l 7,67 h -43 c -28,0 -43,4 -43,13 -1,6 12,135 27,285 l 27,272 h 52 51 l 7,46 c 3,26 6,62 6,80 v 34 h -118 -117 l -174,-281 c -95,-154 -177,-277 -181,-272 -5,4 -62,130 -128,278 l -120,270 -119,3 -120,3 z m 1353,31 c -71,-23 -140,-75 -167,-126 -44,-87 -38,-196 15,-259 36,-43 87,-67 206,-96 128,-32 147,-47 147,-121 0,-67 -12,-91 -55,-109 -47,-19 -168,-18 -207,2 -30,15 -30,17 -24,70 l 6,54 -50,2 c -27,1 -58,2 -67,2 -13,1 -21,-21 -40,-104 l -24,-104 23,-18 c 13,-10 48,-28 78,-40 48,-19 74,-22 195,-23 157,0 195,11 270,76 95,84 112,265 32,356 -39,44 -84,67 -186,93 -45,11 -97,28 -116,37 -65,31 -72,117 -12,154 41,25 154,26 203,3 32,-15 34,-19 34,-68 v -52 l 63,4 c 34,2 65,7 68,11 4,3 9,45 12,93 5,100 0,110 -88,150 -64,29 -243,36 -316,13 z m -5801,-99 c -19,-24 -29,-50 -34,-95 -5,-50 -10,-61 -25,-61 -32,0 -68,-42 -75,-87 l -7,-43 h 43 42 l -6,-37 c -20,-126 -36,-308 -31,-334 9,-39 51,-89 92,-105 39,-17 140,-18 180,-3 42,16 73,48 99,104 30,64 30,73 -3,86 -62,23 -80,23 -86,-3 -11,-43 -46,-78 -78,-78 -47,0 -52,29 -34,184 24,205 15,186 95,186 85,0 115,21 123,88 l 5,42 h -92 -93 l 8,63 c 5,34 10,77 13,95 l 5,32 h -57 c -53,0 -59,-3 -84,-34 z M 1325,1501 c -161,-73 -232,-390 -120,-536 36,-48 74,-65 143,-65 69,0 119,28 167,92 l 30,40 3,-44 c 5,-91 2,-88 95,-88 101,1 124,15 133,84 l 7,46 h -41 c -40,0 -41,1 -37,28 3,15 14,97 25,182 11,86 27,178 35,205 23,76 24,75 -59,75 h -75 l -12,-55 c -7,-30 -15,-55 -18,-55 -3,0 -15,16 -26,37 -11,20 -36,44 -55,55 -46,24 -141,24 -195,-1 z m 186,-118 c 45,-26 62,-74 57,-153 -11,-149 -121,-254 -205,-195 -66,46 -49,288 24,344 32,26 85,27 124,4 z m 412,115 c -11,-13 -23,-42 -26,-65 l -5,-43 h 42 42 l -22,-177 c -12,-98 -23,-179 -23,-180 -1,-2 -9,-3 -18,-3 -34,-1 -61,-33 -68,-82 l -7,-48 h 159 c 153,0 160,1 180,23 11,12 23,41 27,65 l 6,42 h -61 c -53,0 -60,2 -55,18 2,9 10,60 17,112 19,151 47,186 143,178 61,-5 56,-13 72,111 8,61 0,71 -55,71 -43,0 -92,-49 -117,-117 -9,-27 -20,-52 -24,-56 -4,-5 -11,32 -14,82 l -8,91 h -82 c -73,0 -85,-3 -103,-22 z m 1270,6 c -63,-23 -128,-86 -164,-160 -27,-54 -33,-81 -37,-150 -5,-101 8,-158 51,-209 93,-113 308,-115 414,-4 18,19 39,51 48,72 18,43 19,41 -62,55 l -51,9 -17,-37 c -19,-42 -49,-60 -100,-60 -52,0 -82,19 -99,62 -23,56 -20,66 17,72 125,21 162,29 199,42 161,57 188,223 48,297 -44,23 -64,27 -129,26 -42,0 -95,-7 -118,-15 z m 151,-107 c 13,-9 17,-23 14,-52 -2,-31 -10,-44 -35,-61 -28,-19 -151,-50 -160,-41 -8,9 31,110 53,137 21,25 33,30 68,30 23,0 50,-6 60,-13 z m 769,101 c -12,-13 -24,-42 -28,-65 l -7,-43 h 41 c 50,0 49,14 16,-254 -14,-110 -25,-208 -25,-218 0,-16 10,-18 98,-18 89,0 100,2 119,23 11,12 23,41 26,65 l 5,42 h -40 -40 l 6,38 c 3,20 15,114 26,207 11,94 23,187 26,208 l 6,37 h -104 c -96,0 -106,-2 -125,-22 z m 358,-2 c -13,-13 -25,-42 -28,-65 l -6,-41 h 42 c 33,0 41,-4 41,-17 -1,-10 -13,-119 -28,-243 l -28,-225 74,-3 c 41,-2 77,-1 79,2 3,3 16,93 29,201 31,249 47,283 142,293 102,9 116,-39 83,-293 -30,-229 -39,-205 77,-205 89,0 100,2 119,23 11,12 23,41 26,65 l 5,42 h -39 c -25,0 -39,5 -39,13 1,6 9,81 19,165 20,161 17,206 -16,250 -29,39 -81,62 -141,62 -71,0 -110,-18 -159,-74 -46,-52 -53,-48 -53,30 v 44 h -88 c -81,0 -91,-2 -111,-24 z m 851,3 c -173,-86 -232,-428 -97,-559 31,-30 43,-35 99,-38 78,-5 119,12 177,75 22,24 42,43 44,41 8,-8 -15,-138 -31,-178 -9,-22 -30,-52 -47,-66 -28,-24 -37,-26 -100,-22 -64,4 -72,6 -102,39 -18,20 -34,42 -37,49 -3,11 -17,7 -59,-17 -61,-35 -62,-42 -23,-110 19,-32 39,-49 89,-74 61,-30 69,-31 159,-27 83,3 100,7 142,34 55,33 103,98 133,180 17,44 81,481 81,550 0,8 10,14 23,14 38,1 64,31 71,83 l 6,48 -107,-3 -106,-3 -14,-47 c -7,-27 -17,-48 -21,-48 -4,0 -15,14 -24,30 -9,16 -32,39 -50,50 -46,28 -148,28 -206,-1 z m 214,-130 c 60,-56 51,-200 -18,-289 -49,-62 -120,-78 -163,-36 -61,61 -38,268 38,332 26,22 38,25 75,21 26,-3 53,-14 68,-28 z"
             transform="matrix(0.025,0,0,-0.025,113.0625,217.49999)"
             id="path346"
             inkscape:connector-curvature="0"
             style="fill:#000000;stroke:none" />
        </g>
      </g>
      <g
         id="shape-1723e800-b365-11eb-a19f-b902f2f7b4ee">
        <g
           class="svg-raw"
           id="g355">
          <svg
             viewBox="0 0 32 32"
             x="95.197372"
             y="237.49998"
             width="32"
             height="32"
             preserveAspectRatio="none"
             version="1.1"
             id="svg353">
            <path
               d="M 4,4 V 28 H 28 V 12.187 l -2,2.001 V 26 H 6 V 6 h 19.813 l 2,-2 z M 27.281,7.281 16,18.563 11.719,14.28 l -1.439,1.44 5.001,4.999 0.719,0.687 0.719,-0.686 12,-12.001 z"
               id="path351"
               inkscape:connector-curvature="0" />
          </svg>
        </g>
      </g>
      <g
         id="shape-1723e802-b365-11eb-a19f-b902f2f7b4ee">
        <g
           id="g360">
          <path
             d="m 0,2130 v -30 h 6175 6175 V 1050 0 h 95 95 V 1080 2160 H 6270 0 Z m 4176,-315 c -20,-18 -26,-34 -26,-65 v -40 h 53 53 l -17,-132 c -9,-73 -17,-135 -18,-138 -1,-3 -10,5 -20,17 -54,64 -170,84 -250,43 -54,-27 -116,-102 -142,-169 -48,-129 -49,-239 -1,-333 37,-73 78,-98 156,-98 77,0 127,27 176,93 l 35,47 5,-67 5,-68 85,-2 c 103,-3 125,9 135,80 l 7,47 h -40 c -40,0 -41,0 -36,33 5,37 94,766 94,773 0,2 -51,4 -114,4 -106,0 -115,-1 -140,-25 z m -21,-448 c 41,-41 52,-90 37,-168 -23,-123 -115,-204 -197,-173 -52,20 -67,184 -25,282 28,66 60,92 112,92 32,0 47,-7 73,-33 z m 3878,451 c -12,-13 -24,-42 -28,-65 l -7,-43 h 42 c 41,0 41,0 35,-32 -3,-18 -23,-184 -45,-368 -22,-184 -43,-352 -46,-372 l -6,-38 h 81 c 45,0 81,3 81,8 -1,58 47,377 62,413 29,70 96,98 162,68 46,-22 50,-60 27,-262 -12,-100 -24,-192 -27,-204 -4,-23 -3,-23 93,-23 121,0 142,13 150,83 l 6,47 h -37 c -43,0 -42,-5 -21,165 26,210 17,255 -60,300 -85,50 -204,25 -263,-55 -13,-17 -25,-30 -28,-28 -2,2 8,94 21,203 14,110 25,206 25,213 0,9 -26,12 -98,12 -89,0 -100,-2 -119,-22 z M 876,1758 c -4,-29 -9,-70 -12,-90 l -6,-38 h 76 c 41,0 77,3 79,8 3,4 8,44 12,90 l 7,82 h -75 -75 z m 2683,30 c 0,-13 -3,-53 -8,-90 l -7,-68 h 77 76 l 7,61 c 3,34 6,75 6,90 v 29 h -75 c -71,0 -75,-1 -76,-22 z M 86,1738 c -12,-107 -12,-108 39,-108 25,0 45,-1 45,-2 0,-2 -14,-129 -30,-283 -16,-154 -30,-281 -30,-282 0,-2 -20,-3 -45,-3 -52,0 -51,1 -59,-92 l -7,-68 h 319 318 l 28,151 c 15,83 25,153 21,157 -3,4 -34,7 -67,7 h -61 l -21,-77 -20,-78 H 398 c -106,0 -118,2 -118,18 -1,9 12,137 27,285 l 27,267 h 62 61 l 7,46 c 3,26 6,62 6,80 v 34 H 281 93 Z m 2520,0 c -12,-104 -11,-108 32,-108 h 39 l 93,-302 c 51,-167 102,-331 112,-366 l 19,-63 56,3 55,3 187,362 186,362 43,1 c 39,0 42,2 42,28 0,15 3,51 6,80 l 7,52 h -161 -161 l -6,-47 c -3,-27 -7,-63 -10,-80 -4,-32 -3,-33 36,-33 21,0 39,-2 39,-4 0,-18 -223,-457 -229,-450 -4,5 -34,104 -66,219 -32,116 -60,216 -63,223 -3,8 8,12 37,12 33,0 41,3 41,19 0,10 3,46 6,80 l 7,61 h -170 -170 z m 3663,24 c -42,-22 -61,-40 -87,-82 -55,-93 -64,-161 -37,-279 9,-36 12,-68 8,-71 -4,-4 -40,-27 -79,-52 -49,-31 -76,-56 -87,-81 -20,-42 -22,-126 -3,-170 17,-43 73,-90 130,-112 67,-26 190,-17 275,19 l 64,27 61,-28 c 54,-25 73,-28 156,-28 52,0 107,6 121,12 25,11 25,12 16,80 l -9,68 -77,-3 c -109,-4 -116,5 -55,70 28,29 63,72 79,96 25,38 31,42 70,42 h 42 l 7,46 c 3,26 6,62 6,80 v 34 h -159 -158 l -7,-46 c -3,-26 -6,-62 -6,-80 0,-31 3,-34 30,-34 17,0 30,-2 30,-5 0,-9 -48,-99 -64,-120 -14,-19 -16,-19 -66,30 -57,56 -129,157 -114,162 5,2 46,24 90,49 148,83 184,126 184,218 0,123 -76,185 -226,186 -70,0 -89,-4 -135,-28 z m 175,-108 c 16,-15 20,-36 16,-84 -2,-38 -44,-95 -95,-130 -41,-28 -46,-30 -53,-13 -4,10 -7,57 -7,105 0,78 2,89 24,112 29,30 90,36 115,10 z m -216,-446 c 16,-29 50,-76 76,-104 25,-29 46,-55 46,-59 0,-4 -39,-5 -86,-4 -79,4 -87,6 -110,32 -26,31 -32,83 -13,120 10,20 49,67 55,67 1,0 15,-24 32,-52 z m 1240,563 c -31,-10 -72,-28 -91,-39 -51,-32 -132,-122 -162,-181 -33,-66 -65,-189 -65,-252 0,-162 88,-313 215,-371 102,-45 299,-35 419,23 74,35 78,41 97,145 10,54 17,99 16,101 -2,2 -32,4 -67,5 l -64,3 -15,-62 c -18,-79 -36,-88 -182,-88 -98,0 -108,2 -146,27 -57,38 -84,98 -90,202 -6,89 7,165 38,227 25,50 91,104 144,119 64,18 193,9 236,-16 32,-19 34,-24 37,-77 3,-57 3,-57 35,-57 18,0 49,3 70,6 l 37,7 v 102 102 l -39,26 c -22,15 -67,35 -100,47 -80,27 -240,27 -323,1 z m 2089,-89 c -15,-15 -29,-41 -31,-57 -3,-17 -8,-47 -11,-67 -4,-27 -11,-38 -24,-38 -28,0 -68,-51 -73,-92 -4,-38 -4,-38 34,-38 45,0 44,7 23,-165 -8,-65 -15,-142 -15,-170 0,-100 66,-155 186,-155 104,0 161,42 198,147 l 15,42 -46,15 c -26,9 -50,16 -54,16 -5,0 -17,-20 -28,-45 -31,-69 -101,-76 -110,-9 -1,16 5,95 14,177 l 18,147 h 72 c 63,0 74,3 94,24 13,13 25,42 28,65 l 6,41 h -93 -92 l 6,43 c 3,23 8,66 12,95 l 7,52 h -55 c -46,0 -58,-4 -81,-28 z M 773,1498 c -11,-13 -23,-42 -26,-65 l -5,-43 h 44 c 42,0 43,-1 39,-27 -5,-28 -55,-446 -55,-457 0,-3 44,-6 98,-6 89,0 100,2 119,23 12,12 24,41 28,65 l 7,42 h -41 c -39,0 -40,1 -36,28 6,33 55,437 55,452 0,6 -40,10 -103,10 -95,0 -105,-2 -124,-22 z m 340,0 c -12,-13 -24,-42 -28,-65 -6,-41 -6,-42 26,-45 l 33,-3 80,-242 81,-243 h 31 c 27,0 44,12 105,78 111,119 189,221 222,291 24,52 31,80 35,157 l 5,94 h -93 c -84,0 -91,-2 -85,-17 4,-10 10,-54 12,-99 5,-69 2,-89 -19,-140 -28,-68 -88,-164 -103,-164 -6,0 -31,65 -56,145 -46,144 -46,145 -23,145 33,0 64,45 64,91 v 39 h -133 c -126,0 -135,-1 -154,-22 z m 832,10 c -84,-30 -134,-81 -182,-183 -25,-53 -28,-71 -28,-160 1,-83 4,-107 23,-142 42,-79 123,-123 230,-123 89,0 149,21 200,71 42,42 77,103 68,118 -3,5 -27,12 -52,16 -26,3 -52,8 -58,11 -6,2 -19,-14 -28,-36 -18,-44 -47,-60 -107,-60 -50,0 -88,30 -101,82 -6,22 -9,42 -7,44 2,3 45,11 95,19 194,32 272,88 272,198 0,57 -31,103 -89,134 -36,19 -59,23 -125,22 -45,0 -94,-5 -111,-11 z m 149,-120 c 22,-31 20,-52 -9,-86 -24,-29 -40,-35 -152,-58 -28,-5 -30,14 -8,77 24,67 50,89 106,89 38,0 51,-5 63,-22 z m 1362,107 c -20,-18 -26,-34 -26,-65 v -40 h 41 41 l -6,-37 c -3,-21 -15,-117 -26,-213 -11,-96 -22,-190 -25,-207 l -6,-33 h 98 c 120,0 140,11 149,83 l 7,47 h -37 c -44,0 -43,-16 -11,245 14,110 25,210 25,223 0,21 -3,22 -99,22 -90,0 -100,-2 -125,-25 z m 1228,1 c -133,-62 -214,-232 -186,-394 14,-86 50,-137 122,-175 51,-26 62,-28 146,-25 80,3 96,6 140,33 51,32 117,117 112,144 -2,10 -23,19 -61,27 l -58,11 -19,-38 c -24,-46 -46,-59 -100,-59 -52,0 -76,13 -95,50 -13,26 -21,80 -11,80 29,0 188,35 230,50 164,62 178,240 24,304 -59,25 -182,21 -244,-8 z m 168,-103 c 22,-20 23,-61 3,-91 -15,-21 -74,-42 -154,-56 l -33,-6 7,37 c 9,48 40,109 62,122 28,16 94,13 115,-6 z m 442,111 c -132,-47 -226,-236 -196,-396 26,-139 110,-208 251,-208 100,0 158,20 221,77 62,56 97,122 109,205 21,151 -34,278 -141,322 -47,20 -188,20 -244,0 z m 160,-115 c 38,-18 56,-66 56,-151 0,-96 -15,-145 -55,-185 -28,-28 -40,-33 -78,-33 -34,0 -53,6 -74,24 -27,23 -28,29 -31,126 -3,79 0,112 13,147 27,71 101,102 169,72 z m 3420,117 c -112,-49 -203,-262 -176,-409 15,-78 47,-142 85,-169 27,-19 45,-23 108,-23 68,0 79,3 113,28 20,16 47,44 59,63 12,18 25,34 30,34 4,0 7,-29 7,-65 v -65 h 88 c 79,0 91,2 109,23 11,12 23,41 26,65 l 5,42 h -39 c -25,0 -39,5 -39,13 0,72 55,407 76,460 6,16 0,18 -72,15 l -78,-3 -12,-48 c -7,-27 -14,-51 -17,-53 -2,-3 -14,11 -25,30 -32,55 -75,76 -152,76 -36,-1 -79,-7 -96,-14 z m 196,-133 c 100,-90 19,-353 -109,-353 -27,0 -44,7 -62,26 -21,22 -24,37 -27,114 -5,108 15,177 59,215 43,35 98,34 139,-2 z M 0,90 V 0 h 5590 5590 v 90 90 H 5590 0 Z"
             transform="matrix(0.025,0,0,-0.025,143.68745,55.500004)"
             id="path358"
             inkscape:connector-curvature="0"
             style="fill:#000000;stroke:none" />
        </g>
      </g>
      <g
         id="shape-1723e803-b365-11eb-a19f-b902f2f7b4ee">
        <g
           class="svg-raw"
           transform="translate(3.2026791e-6,-1.3973543e-6)"
           id="g367">
          <svg
             viewBox="0 0 32 32"
             x="64.0625"
             y="167.5"
             width="32"
             height="32"
             preserveAspectRatio="none"
             version="1.1"
             id="svg365">
            <path
               d="M 4,4 V 28 H 28 V 12.187 l -2,2.001 V 26 H 6 V 6 h 19.813 l 2,-2 z M 27.281,7.281 16,18.563 11.719,14.28 l -1.439,1.44 5.001,4.999 0.719,0.687 0.719,-0.686 12,-12.001 z"
               id="path363"
               inkscape:connector-curvature="0" />
          </svg>
        </g>
      </g>
      <g
         id="shape-17240f03-b365-11eb-a19f-b902f2f7b4ee"
         style="filter:url(#filter_b996ad10-b374-11eb-bad9-23164b13e969)">
        <defs
           id="defs385">
          <filter
             id="filter_b996ad10-b374-11eb-bad9-23164b13e969"
             x="-7.9375019"
             y="278.5"
             width="393"
             height="239"
             filterUnits="userSpaceOnUse"
             style="color-interpolation-filters:sRGB">
            <feFlood
               flood-opacity="0"
               result="BackgroundImageFix"
               id="feFlood370" />
            <feColorMatrix
               in="SourceAlpha"
               type="matrix"
               values="0 0 0 0 0 0 0 0 0 0 0 0 0 0 0 0 0 0 127 0"
               id="feColorMatrix372" />
            <feOffset
               dx="4"
               dy="4"
               id="feOffset374" />
            <feGaussianBlur
               stdDeviation="3.5"
               id="feGaussianBlur376" />
            <feColorMatrix
               type="matrix"
               values="0 0 0 0 0 0 0 0 0 0 0 0 0 0 0 0 0 0 0.2 0"
               id="feColorMatrix378" />
            <feBlend
               mode="normal"
               in2="BackgroundImageFix"
               result="filter_d19298d0-6850-11eb-859f-87a287cc736d"
               id="feBlend380" />
            <feBlend
               mode="normal"
               in="SourceGraphic"
               in2="filter_d19298d0-6850-11eb-859f-87a287cc736d"
               result="shape"
               id="feBlend382" />
          </filter>
        </defs>
        <rect
           rx="0"
           ry="0"
           x="0.062496848"
           y="286.5"
           transform="translate(0,5.5222763e-6)"
           width="365"
           height="211"
           style="fill:#db353f;fill-opacity:1;stroke:#000000;stroke-width:5;stroke-opacity:1"
           id="rect387" />
      </g>
      <g
         id="shape-17240f09-b365-11eb-a19f-b902f2f7b4ee">
        <g
           id="g394">
          <path
             d="M 0,30 V 0 h 6120 6120 V 30 60 H 6120 0 Z"
             transform="matrix(0.025,0,0,-0.025,51.062497,496.49999)"
             id="path390"
             inkscape:connector-curvature="0"
             style="fill:#000000;stroke:none" />
          <path
             d="m 9213,7858 c -12,-13 -24,-42 -28,-65 l -7,-43 h 41 c 34,0 41,-3 41,-19 0,-11 -20,-185 -45,-388 -25,-202 -45,-376 -45,-385 0,-16 11,-18 98,-18 89,0 100,2 119,23 11,12 23,41 27,65 l 6,42 h -41 -41 l 6,38 c 3,20 24,188 46,372 22,184 42,350 45,368 l 6,32 h -104 c -95,0 -105,-2 -124,-22 z m -1717,-35 c -3,-16 -8,-56 -11,-90 l -7,-63 h 76 75 l 5,33 c 3,17 8,58 11,90 l 6,57 h -74 c -74,0 -75,0 -81,-27 z M 105,7783 c -3,-27 -8,-63 -11,-80 l -5,-33 h 46 c 29,0 45,-4 45,-12 1,-7 -12,-136 -27,-285 L 126,7100 H 78 c -46,0 -48,-1 -48,-27 0,-16 -3,-52 -6,-80 l -7,-53 h 196 196 l 6,48 c 3,26 7,62 10,80 l 4,32 h -70 -70 l 6,73 c 4,39 8,78 10,85 3,9 48,12 179,12 200,0 178,-11 191,98 l 6,52 H 500 c -168,0 -181,1 -176,18 2,9 7,53 11,97 3,44 8,92 11,108 l 6,27 h 117 118 l 7,-37 c 3,-21 6,-51 6,-67 0,-27 2,-28 31,-22 17,3 49,6 70,6 h 39 v 140 140 H 426 111 Z m 764,35 c 0,-7 -3,-43 -8,-80 l -7,-68 h 43 c 28,0 43,-4 43,-12 1,-7 -12,-136 -27,-285 l -27,-273 h -48 c -46,0 -48,-1 -48,-27 0,-16 -3,-52 -6,-80 l -7,-53 h 177 176 v 34 c 0,18 3,54 6,80 l 7,46 h -47 c -25,0 -46,3 -46,8 0,15 51,498 56,530 5,30 7,32 49,32 h 44 l 6,48 c 3,26 7,62 10,80 l 4,32 h -175 c -132,0 -174,-3 -175,-12 z m 466,-35 c -3,-27 -7,-63 -10,-80 l -4,-33 h 55 55 l -6,-42 c -6,-44 -55,-507 -55,-520 0,-5 -20,-8 -45,-8 -52,0 -51,1 -59,-92 l -7,-68 h 180 180 l 5,33 c 3,17 8,53 11,80 l 6,47 h -61 -62 l 6,28 c 3,15 13,107 22,205 10,97 20,177 24,177 3,0 95,-128 205,-284 l 200,-285 h 42 c 36,-1 43,2 47,22 3,12 19,159 36,327 42,420 33,380 85,380 49,0 46,-5 59,113 l 6,47 h -185 c -141,0 -185,-3 -186,-12 0,-7 -3,-43 -8,-80 l -7,-68 h 63 63 l -5,-27 c -5,-27 -35,-316 -35,-334 0,-28 -35,16 -205,256 l -187,265 h -109 -108 z m 1141,25 c -3,-13 -7,-49 -10,-80 l -6,-57 59,-3 58,-3 -149,-282 -150,-283 h -39 c -42,0 -40,4 -53,-112 l -6,-48 h 165 165 v 28 c 0,15 3,51 6,80 l 7,52 h -42 -42 l 23,43 23,42 151,3 151,3 6,-28 c 3,-16 9,-36 12,-45 6,-15 1,-18 -28,-18 -33,0 -34,-1 -41,-46 -3,-26 -6,-62 -6,-80 v -34 h 160 159 l 5,33 c 3,17 7,53 10,79 l 5,47 -41,3 -42,3 -115,363 -114,362 h -138 c -136,0 -139,0 -143,-22 z m 228,-290 c 29,-101 49,-189 44,-194 -3,-2 -48,-3 -100,-2 l -94,3 58,123 c 32,67 62,122 67,122 5,0 16,-24 25,-52 z m 482,290 c -3,-13 -7,-49 -10,-80 l -6,-58 h 45 c 29,0 45,-4 45,-12 1,-7 -12,-136 -27,-285 l -27,-273 h -47 -46 l -7,-46 c -3,-26 -6,-62 -6,-80 v -34 h 315 c 173,0 315,1 315,3 0,1 13,70 29,152 16,83 28,152 26,154 -2,2 -33,6 -68,8 -64,6 -64,5 -71,-23 -4,-16 -14,-53 -22,-81 l -15,-53 h -119 c -66,0 -120,1 -120,3 0,1 14,128 30,282 16,154 30,281 30,283 0,1 27,2 60,2 69,0 66,-3 74,93 l 7,67 h -191 c -189,0 -190,0 -194,-22 z m 720,0 c -3,-13 -7,-49 -10,-80 l -6,-58 h 45 c 29,0 45,-4 45,-12 1,-7 -12,-136 -27,-285 l -27,-273 h -47 -46 l -7,-46 c -3,-26 -6,-62 -6,-80 v -34 h 315 c 173,0 315,1 315,3 0,1 13,70 29,152 16,83 28,152 26,154 -2,2 -33,6 -68,8 -64,6 -64,5 -71,-23 -4,-16 -14,-53 -22,-81 l -15,-53 h -119 c -66,0 -120,1 -120,3 0,1 14,128 30,282 16,154 30,281 30,283 0,1 27,2 60,2 69,0 66,-3 74,93 l 7,67 h -191 c -189,0 -190,0 -194,-22 z m 594,-5 c 0,-16 -3,-52 -6,-80 l -7,-53 h 39 39 l 107,-189 106,-188 -9,-74 c -4,-41 -8,-84 -9,-96 0,-21 -4,-23 -65,-23 h -64 l -5,-32 c -3,-18 -8,-54 -11,-80 l -6,-48 h 216 c 164,0 217,3 219,13 3,6 7,42 10,80 l 7,67 h -71 c -63,0 -71,2 -66,18 2,9 7,53 11,96 l 7,79 142,189 c 139,185 142,188 178,188 42,0 42,1 52,103 l 6,57 h -165 -165 v -34 c 0,-18 -3,-54 -6,-79 l -7,-46 41,-3 40,-3 -82,-112 c -44,-62 -85,-111 -90,-110 -8,3 -125,206 -126,220 0,4 15,7 34,7 33,0 33,1 40,53 3,28 6,64 6,80 v 27 h -170 -170 z m 1465,-262 c -161,-73 -232,-390 -120,-536 36,-48 74,-65 143,-65 69,0 119,28 167,92 l 30,40 3,-44 c 5,-91 2,-88 95,-88 101,1 124,15 133,84 l 7,46 h -41 c -40,0 -41,1 -37,28 3,15 14,97 25,182 11,86 27,178 35,205 23,76 24,75 -59,75 h -75 l -12,-55 c -7,-30 -15,-55 -18,-55 -3,0 -15,16 -26,37 -11,20 -36,44 -55,55 -46,24 -141,24 -195,-1 z m 186,-118 c 45,-26 62,-74 57,-153 -11,-149 -121,-254 -205,-195 -66,46 -49,288 24,344 32,26 85,27 124,4 z m 761,119 c -87,-31 -132,-88 -132,-167 0,-90 51,-136 195,-176 112,-30 117,-33 113,-77 -4,-49 -32,-63 -123,-60 l -70,3 -3,37 c -3,37 -3,37 -58,44 -30,3 -57,4 -60,1 -3,-3 -14,-38 -24,-78 -15,-56 -16,-75 -7,-81 64,-42 290,-62 376,-33 94,31 141,90 141,177 0,88 -51,140 -170,174 -30,8 -74,22 -98,31 -40,14 -43,18 -40,46 4,43 37,59 110,54 31,-3 61,-8 67,-12 6,-3 11,-23 11,-44 0,-41 -3,-41 98,-25 l 32,5 v 75 75 l -47,21 c -69,31 -237,36 -311,10 z m 481,-4 c -12,-13 -24,-42 -28,-65 l -7,-43 h 41 c 50,0 49,14 16,-254 -14,-110 -25,-208 -25,-218 0,-16 10,-18 98,-18 89,0 100,2 119,23 11,12 23,41 26,65 l 5,42 h -40 -40 l 6,38 c 3,20 15,114 26,207 11,94 23,187 26,208 l 6,37 h -104 c -96,0 -106,-2 -125,-22 z m 358,-2 c -13,-13 -25,-42 -28,-65 l -6,-41 h 42 c 33,0 41,-4 41,-17 -1,-10 -13,-119 -28,-243 l -28,-225 74,-3 c 41,-2 77,-1 79,2 3,3 16,93 29,201 31,249 47,283 142,293 102,9 116,-39 83,-293 -30,-229 -39,-205 77,-205 89,0 100,2 119,23 11,12 23,41 26,65 l 5,42 h -39 c -25,0 -39,5 -39,13 1,6 9,81 19,165 20,161 17,206 -16,250 -29,39 -81,62 -141,62 -71,0 -110,-18 -159,-74 -46,-52 -53,-48 -53,30 v 44 h -88 c -81,0 -91,-2 -111,-24 z m 851,3 c -173,-86 -232,-428 -97,-559 31,-30 43,-35 99,-38 78,-5 119,12 177,75 22,24 42,43 44,41 8,-8 -15,-138 -31,-178 -9,-22 -30,-52 -47,-66 -28,-24 -37,-26 -100,-22 -64,4 -72,6 -102,39 -18,20 -34,42 -37,49 -3,11 -17,7 -59,-17 -61,-35 -62,-42 -23,-110 19,-32 39,-49 89,-74 61,-30 69,-31 159,-27 83,3 100,7 142,34 55,33 103,98 133,180 17,44 81,481 81,550 0,8 10,14 23,14 38,1 64,31 71,83 l 6,48 -107,-3 -106,-3 -14,-47 c -7,-27 -17,-48 -21,-48 -4,0 -15,14 -24,30 -9,16 -32,39 -50,50 -46,28 -148,28 -206,-1 z m 214,-130 c 60,-56 51,-200 -18,-289 -49,-62 -120,-78 -163,-36 -61,61 -38,268 38,332 26,22 38,25 75,21 26,-3 53,-14 68,-28 z m 897,135 c -63,-23 -128,-86 -164,-160 -27,-54 -33,-81 -37,-150 -5,-101 8,-158 51,-209 93,-113 308,-115 414,-4 18,19 39,51 48,72 18,43 19,41 -62,55 l -51,9 -17,-37 c -19,-42 -49,-60 -100,-60 -52,0 -82,19 -99,62 -23,56 -20,66 17,72 125,21 162,29 199,42 161,57 188,223 48,297 -44,23 -64,27 -129,26 -42,0 -95,-7 -118,-15 z m 151,-107 c 13,-9 17,-23 14,-52 -2,-31 -10,-44 -35,-61 -28,-19 -151,-50 -160,-41 -8,9 31,110 53,137 21,25 33,30 68,30 23,0 50,-6 60,-13 z M 5267,7123 c -3,-10 -28,-82 -56,-160 l -50,-143 h 78 79 l 53,152 c 30,83 56,155 57,160 2,4 -32,8 -76,8 -67,0 -80,-3 -85,-17 z M 2128,6271 c -104,-33 -167,-122 -184,-258 -6,-51 -8,-53 -38,-53 -46,0 -86,-44 -86,-93 v -37 h 50 c 28,0 50,-3 50,-7 0,-43 -72,-576 -80,-601 -28,-77 -130,-63 -130,18 0,35 -5,36 -77,13 l -53,-17 6,-35 c 13,-68 51,-119 107,-140 16,-6 59,-11 96,-11 55,0 74,5 107,26 48,31 81,76 100,141 11,36 83,555 84,606 0,4 47,7 105,7 102,0 105,-1 105,-22 0,-13 -11,-113 -25,-222 -14,-110 -25,-210 -25,-223 0,-23 2,-23 98,-23 89,0 100,2 119,23 12,13 22,40 25,65 l 4,42 h -38 c -21,0 -38,3 -38,6 0,11 50,429 55,457 l 5,27 h -186 -186 l 7,58 c 14,117 49,148 156,140 62,-5 78,-15 79,-53 1,-38 12,-44 73,-38 l 58,6 -3,76 -3,76 -50,25 c -42,21 -66,25 -155,27 -58,1 -117,-2 -132,-6 z m 1463,-15 c -13,-13 -25,-42 -28,-65 l -6,-41 h 58 c 54,0 57,-1 52,-22 -3,-13 -11,-74 -18,-135 -6,-62 -15,-113 -19,-113 -4,0 -15,11 -23,24 -36,55 -161,74 -242,37 -156,-70 -232,-371 -135,-525 40,-62 76,-79 160,-74 76,4 119,29 169,99 16,21 31,35 35,32 3,-3 6,-35 6,-70 v -63 h 83 c 103,1 127,15 134,83 l 6,47 h -37 c -32,0 -36,3 -36,25 0,14 20,190 45,391 25,201 45,372 45,380 0,11 -21,14 -113,14 -107,0 -115,-1 -136,-24 z m -46,-428 c 14,-6 35,-27 47,-45 17,-29 20,-46 16,-106 -9,-141 -97,-237 -194,-213 -36,9 -54,60 -54,150 0,168 81,262 185,214 z m 1386,428 c -13,-13 -25,-42 -28,-65 l -6,-41 h 42 c 33,0 41,-4 40,-17 0,-10 -21,-191 -48,-403 l -47,-385 95,-3 c 119,-3 143,10 151,82 l 6,46 h -38 c -30,0 -38,4 -38,18 1,9 22,191 48,405 l 48,387 h -101 c -94,0 -103,-2 -124,-24 z m 1758,-4 c -91,-47 -117,-94 -144,-254 -5,-35 -8,-38 -40,-38 -44,0 -85,-46 -85,-96 v -34 h 50 c 61,0 60,27 17,-315 -38,-295 -50,-338 -103,-343 -25,-2 -37,3 -53,24 -11,15 -21,37 -21,50 0,28 -8,29 -70,10 l -45,-14 1,-46 c 1,-90 73,-146 189,-146 88,0 137,26 178,91 41,66 51,116 87,418 l 33,271 h 53 c 46,0 55,4 78,31 17,20 26,43 26,65 v 34 h -71 -71 l 5,33 c 3,17 9,53 13,79 8,62 38,90 90,86 38,-3 39,-4 48,-51 9,-47 11,-49 39,-43 16,3 43,6 60,6 h 30 l -6,82 c -6,87 -7,89 -72,115 -16,6 -60,12 -96,12 -55,1 -77,-4 -120,-27 z m 3003,5 c -11,-12 -24,-41 -28,-65 l -7,-42 h 40 39 l -37,-312 c -33,-277 -52,-399 -75,-476 -6,-23 -6,-23 72,-20 l 78,3 14,49 14,48 25,-37 c 32,-47 76,-65 155,-65 112,0 198,70 251,204 16,40 21,75 21,156 1,98 -1,109 -28,158 -40,71 -91,102 -170,102 -70,0 -102,-16 -155,-76 -30,-35 -41,-42 -41,-28 0,10 11,109 25,219 14,110 25,201 25,203 0,1 -44,2 -98,2 -89,0 -100,-2 -120,-23 z m 351,-438 c 53,-41 60,-167 16,-270 -26,-60 -60,-89 -105,-89 -50,0 -82,16 -105,52 -41,67 -8,242 57,299 40,35 100,38 137,8 z m 1410,439 c -12,-13 -24,-42 -28,-65 l -7,-43 h 41 c 34,0 41,-3 41,-19 0,-11 -20,-185 -45,-388 -25,-202 -45,-376 -45,-385 0,-16 11,-18 98,-18 89,0 100,2 119,23 11,12 23,41 27,65 l 6,42 h -41 -41 l 6,38 c 3,20 24,188 46,372 22,184 42,350 45,368 l 6,32 h -104 c -95,0 -105,-2 -124,-22 z m -9843,-37 c 0,-15 -3,-56 -6,-90 l -7,-61 h 76 75 l 7,63 c 3,34 8,74 11,90 l 6,27 h -81 -81 z m 9566,2 c -3,-16 -8,-56 -11,-90 l -7,-63 h 76 75 l 5,33 c 3,17 8,58 11,90 l 6,57 h -74 c -74,0 -75,0 -81,-27 z M 6088,6116 c -19,-24 -29,-50 -34,-95 -5,-50 -10,-61 -25,-61 -32,0 -68,-42 -75,-87 l -7,-43 h 43 42 l -6,-37 c -20,-126 -36,-308 -31,-334 9,-39 51,-89 92,-105 39,-17 140,-18 180,-3 42,16 73,48 99,104 30,64 30,73 -3,86 -62,23 -80,23 -86,-3 -11,-43 -46,-78 -78,-78 -47,0 -52,29 -34,184 24,205 15,186 95,186 85,0 115,21 123,88 l 5,42 h -92 -93 l 8,63 c 5,34 10,77 13,95 l 5,32 h -57 c -53,0 -59,-3 -84,-34 z m 5800,0 c -19,-24 -29,-50 -34,-95 -5,-50 -10,-61 -25,-61 -32,0 -68,-42 -75,-87 l -7,-43 h 43 42 l -6,-37 c -20,-126 -36,-308 -31,-334 9,-39 51,-89 92,-105 39,-17 140,-18 180,-3 42,16 73,48 99,104 30,64 30,73 -3,86 -62,23 -80,23 -86,-3 -11,-43 -46,-78 -78,-78 -47,0 -52,29 -34,184 24,205 15,186 95,186 85,0 115,21 123,88 l 5,42 h -92 -93 l 8,63 c 5,34 10,77 13,95 l 5,32 h -57 c -53,0 -59,-3 -84,-34 z M 63,5941 c -13,-11 -24,-35 -28,-64 l -7,-47 h 41 c 38,0 41,-2 37,-22 -15,-72 -37,-313 -32,-343 8,-40 46,-89 87,-110 41,-22 132,-19 180,5 22,12 52,38 67,60 15,22 30,39 35,40 4,0 7,-17 7,-37 0,-82 2,-83 99,-83 78,0 90,2 108,23 11,12 23,41 27,65 l 6,42 h -43 -43 l 28,228 c 15,125 27,235 28,245 0,15 -10,17 -78,17 h -78 l -23,-192 c -25,-214 -41,-267 -90,-292 -42,-22 -93,-20 -125,5 -23,18 -26,27 -26,88 0,57 10,159 36,349 l 5,42 h -98 c -80,-1 -102,-4 -120,-19 z m 723,-6 c -20,-18 -26,-34 -26,-65 v -40 h 41 41 l -6,-37 c -3,-21 -15,-117 -26,-213 -11,-96 -23,-190 -26,-207 l -5,-33 h 81 c 44,0 80,3 80,8 1,62 51,396 64,423 21,44 62,69 115,69 49,0 77,-24 86,-73 5,-27 -17,-264 -39,-404 -3,-23 -1,-23 96,-23 92,0 101,2 123,25 18,18 25,35 25,65 0,39 -1,40 -35,40 -42,0 -42,1 -20,160 19,142 19,207 -3,250 -39,79 -176,107 -258,54 -22,-14 -50,-41 -63,-60 -13,-19 -27,-34 -32,-34 -5,0 -9,27 -9,60 v 60 h -89 c -80,0 -91,-2 -115,-25 z m 725,1 c -13,-13 -25,-42 -28,-65 l -6,-41 h 42 c 33,0 41,-4 41,-17 -1,-10 -13,-120 -28,-245 l -28,-228 h 98 c 92,0 101,2 123,25 18,18 25,35 25,65 0,39 -1,40 -35,40 -19,0 -35,5 -35,11 0,12 48,420 54,457 3,22 1,22 -99,22 -94,0 -103,-2 -124,-24 z m 1299,15 c -147,-45 -248,-231 -220,-403 11,-73 30,-108 80,-150 50,-43 98,-58 186,-58 109,0 213,62 245,148 15,38 8,45 -54,58 l -56,11 -12,-29 c -35,-86 -170,-95 -204,-13 -25,57 -20,73 23,80 104,17 192,40 235,62 132,66 124,229 -15,287 -39,17 -163,20 -208,7 z m 134,-117 c 20,-20 20,-63 1,-92 -20,-27 -185,-75 -185,-54 0,30 36,118 55,138 29,29 104,34 129,8 z m 1242,101 c -20,-18 -26,-34 -26,-65 v -40 h 41 41 l -6,-37 c -3,-21 -20,-150 -36,-288 -41,-344 -37,-325 -65,-325 -34,0 -65,-44 -65,-91 v -39 h 154 c 138,0 156,2 179,20 19,15 26,31 29,65 l 3,45 h -57 c -42,0 -58,4 -58,13 0,20 20,178 26,206 l 5,24 29,-31 c 37,-41 67,-52 142,-52 74,0 133,26 178,76 128,146 135,418 13,511 -28,21 -49,28 -99,31 -38,3 -77,-1 -94,-8 -31,-13 -110,-92 -110,-110 0,-5 -4,-10 -10,-10 -6,0 -10,28 -10,65 v 65 h -89 c -80,0 -91,-2 -115,-25 z m 394,-105 c 32,-17 54,-92 47,-168 -10,-125 -62,-202 -136,-202 -50,0 -83,19 -104,60 -40,77 4,257 75,300 36,21 88,26 118,10 z m 820,110 c -72,-38 -137,-132 -159,-230 -13,-58 -14,-175 -1,-221 14,-50 49,-99 89,-126 40,-27 135,-32 180,-9 30,16 101,90 101,106 0,6 5,10 10,10 6,0 10,-28 10,-65 v -65 h 88 c 79,0 91,2 109,23 12,12 24,41 28,65 l 7,42 h -42 -42 l 6,38 c 3,20 13,93 21,162 14,110 30,193 51,268 6,21 4,22 -69,22 h -76 l -11,-42 c -19,-73 -19,-73 -43,-37 -39,58 -81,79 -156,79 -45,-1 -77,-7 -101,-20 z m 199,-125 c 40,-34 55,-83 46,-153 -16,-141 -114,-235 -197,-191 -69,37 -62,267 12,341 38,38 96,39 139,3 z m 1491,136 c -84,-27 -141,-80 -184,-171 -29,-60 -31,-73 -31,-170 0,-89 3,-111 22,-147 49,-91 130,-129 261,-121 128,7 215,67 271,188 22,47 26,69 26,151 0,87 -3,101 -30,154 -23,45 -42,66 -79,90 -44,27 -58,30 -140,32 -50,1 -102,-1 -116,-6 z m 153,-132 c 35,-27 51,-88 44,-171 -11,-128 -57,-188 -144,-188 -52,0 -78,21 -92,74 -26,106 -4,235 50,280 39,33 104,36 142,5 z m 320,119 c -11,-13 -23,-42 -26,-65 l -5,-43 h 42 42 l -22,-177 c -12,-98 -23,-179 -23,-180 -1,-2 -9,-3 -18,-3 -34,-1 -61,-33 -68,-82 l -7,-48 h 159 c 153,0 160,1 180,23 11,12 23,41 27,65 l 6,42 h -61 c -53,0 -60,2 -55,18 2,9 10,60 17,112 19,151 47,186 143,178 61,-5 56,-13 72,111 8,61 0,71 -55,71 -43,0 -92,-49 -117,-117 -9,-27 -20,-52 -24,-56 -4,-5 -11,32 -14,82 l -8,91 h -82 c -73,0 -85,-3 -103,-22 z m 468,-2 c -13,-13 -25,-42 -28,-65 l -6,-41 h 42 c 33,0 41,-4 41,-17 -1,-10 -13,-119 -28,-243 l -28,-225 74,-3 c 41,-2 77,-1 79,2 3,3 16,91 29,195 31,260 51,301 145,301 86,0 97,-39 70,-268 -12,-97 -23,-189 -26,-204 l -4,-28 h 79 c 44,0 80,2 80,5 0,40 45,363 56,402 18,65 51,93 109,93 91,0 101,-51 65,-330 -11,-85 -20,-158 -20,-162 0,-5 44,-8 98,-8 117,1 137,12 147,83 l 7,47 h -40 c -40,0 -41,0 -36,33 17,126 34,277 34,307 0,48 -28,100 -69,127 -26,18 -48,23 -95,23 -73,0 -122,-27 -171,-91 l -29,-39 -21,42 c -28,60 -74,88 -142,88 -29,0 -68,-6 -86,-13 -33,-14 -107,-89 -107,-108 0,-5 -4,-7 -10,-4 -5,3 -10,33 -10,66 v 59 h -88 c -81,0 -91,-2 -111,-24 z m 2312,2 c -11,-13 -23,-42 -27,-65 l -6,-43 h 41 41 l -6,-37 c -27,-184 -36,-304 -27,-340 20,-72 82,-113 173,-113 65,0 110,22 158,78 l 39,46 7,-62 7,-62 h 87 c 77,0 89,2 108,23 11,12 24,41 28,65 l 7,42 h -42 c -32,0 -41,4 -41,18 0,9 11,109 25,222 14,113 25,215 25,228 0,21 -4,22 -75,22 -88,0 -76,25 -105,-219 -27,-233 -53,-280 -153,-281 -27,0 -45,7 -62,25 -31,31 -32,71 -5,289 11,88 20,166 20,173 0,10 -24,13 -98,13 -89,0 -100,-2 -119,-22 z m 730,0 c -12,-13 -24,-42 -28,-65 l -7,-43 h 41 c 50,0 49,14 16,-254 -14,-110 -25,-208 -25,-218 0,-16 10,-18 98,-18 89,0 100,2 119,23 11,12 23,41 26,65 l 5,42 h -40 -40 l 6,38 c 3,20 15,114 26,207 11,94 23,187 26,208 l 6,37 h -104 c -96,0 -106,-2 -125,-22 z m -2013,-556 -56,-157 74,-3 c 41,-2 76,-1 79,1 4,5 113,305 113,313 0,2 -35,4 -77,4 h -78 z M 91,4660 c -16,-14 -25,-34 -29,-65 l -5,-45 h 37 c 26,0 36,-4 36,-16 0,-8 -16,-146 -35,-307 -30,-251 -46,-356 -72,-464 -5,-22 -3,-23 70,-23 h 75 l 12,38 c 6,20 14,43 16,51 3,10 11,5 24,-17 31,-51 75,-72 150,-72 42,0 79,7 105,19 161,75 240,370 137,516 -44,63 -84,85 -156,85 -75,0 -119,-21 -163,-79 -32,-41 -33,-42 -33,-16 0,27 36,338 45,388 l 5,27 h -98 c -82,-1 -101,-4 -121,-20 z m 340,-430 c 86,-47 62,-307 -34,-356 -45,-24 -105,-13 -139,26 -25,27 -28,38 -28,100 0,132 66,240 146,240 19,0 44,-5 55,-10 z m 2120,426 c -13,-13 -25,-42 -28,-65 l -6,-41 h 58 c 54,0 57,-1 52,-22 -3,-13 -11,-74 -18,-135 -6,-62 -15,-113 -19,-113 -4,0 -15,11 -23,24 -36,55 -161,74 -242,37 -156,-70 -232,-371 -135,-525 40,-62 76,-79 160,-74 76,4 119,29 169,99 16,21 31,35 35,32 3,-3 6,-35 6,-70 v -63 h 83 c 103,1 127,15 134,83 l 6,47 h -37 c -32,0 -36,3 -36,25 0,14 20,190 45,391 25,201 45,372 45,380 0,11 -21,14 -113,14 -107,0 -115,-1 -136,-24 z m -46,-428 c 14,-6 35,-27 47,-45 17,-29 20,-46 16,-106 -9,-141 -97,-237 -194,-213 -36,9 -54,60 -54,150 0,168 81,262 185,214 z m 2542,294 c -20,-21 -28,-42 -34,-92 -7,-57 -11,-65 -30,-68 -34,-5 -73,-58 -73,-98 0,-33 1,-34 40,-34 38,0 39,-1 35,-27 -10,-56 -35,-282 -35,-315 0,-51 31,-99 81,-126 61,-33 177,-29 228,7 36,26 100,146 85,160 -5,5 -30,15 -55,24 l -46,15 -12,-39 c -13,-42 -43,-69 -78,-69 -43,0 -47,33 -27,207 l 19,158 70,3 c 60,3 74,7 97,29 21,20 28,36 28,65 v 38 h -91 c -89,0 -91,0 -86,23 3,12 9,55 13,95 l 7,72 h -55 c -46,0 -58,-4 -81,-28 z M 687,4335 c -21,-20 -27,-35 -27,-65 0,-37 2,-40 29,-40 29,0 30,-1 98,-207 l 69,-208 -13,-85 c -24,-159 -21,-150 -52,-150 -45,0 -72,-29 -78,-83 l -6,-47 h 149 c 176,1 193,8 202,85 l 5,45 h -43 c -42,0 -42,0 -37,33 4,17 12,70 18,117 12,84 14,86 74,155 133,150 176,224 196,330 6,33 8,78 4,102 l -6,43 h -89 -88 l 14,-47 c 18,-60 18,-107 -2,-174 -16,-55 -98,-199 -114,-199 -7,0 -100,264 -100,284 0,3 8,6 18,6 32,1 59,34 66,83 l 7,47 H 848 c -129,0 -134,-1 -161,-25 z m 1083,16 c -147,-45 -248,-231 -220,-403 11,-73 30,-108 80,-150 50,-43 98,-58 186,-58 109,0 213,62 245,148 15,38 8,45 -54,58 l -56,11 -12,-29 c -35,-86 -170,-95 -204,-13 -25,57 -20,73 23,80 104,17 192,40 235,62 132,66 124,229 -15,287 -39,17 -163,20 -208,7 z m 134,-117 c 20,-20 20,-63 1,-92 -20,-27 -185,-75 -185,-54 0,30 36,118 55,138 29,29 104,34 129,8 z m 999,107 c -13,-11 -24,-35 -28,-64 l -7,-47 h 41 c 38,0 41,-2 37,-22 -15,-72 -37,-313 -32,-343 8,-40 46,-89 87,-110 41,-22 132,-19 180,5 22,12 52,38 67,60 15,22 30,39 35,40 4,0 7,-17 7,-37 0,-82 2,-83 99,-83 78,0 90,2 108,23 11,12 23,41 27,65 l 6,42 h -43 -43 l 28,228 c 15,125 27,235 28,245 0,15 -10,17 -78,17 h -78 l -23,-192 c -25,-214 -41,-267 -90,-292 -42,-22 -93,-20 -125,5 -23,18 -26,27 -26,88 0,57 10,159 36,349 l 5,42 h -98 c -80,-1 -102,-4 -120,-19 z m 862,-5 c -106,-50 -166,-154 -173,-299 -5,-108 9,-162 56,-218 50,-58 100,-79 192,-79 92,0 140,20 193,80 36,39 76,111 77,136 0,6 -26,16 -57,23 -70,14 -73,14 -73,-1 0,-27 -42,-96 -66,-106 -31,-15 -79,-15 -106,-1 -30,16 -48,71 -48,147 0,146 48,222 140,222 75,0 80,-4 80,-67 v -56 l 38,7 c 20,3 49,6 65,6 h 27 v 89 c 0,59 -4,92 -12,99 -27,22 -125,42 -202,42 -64,0 -91,-5 -131,-24 z m 595,4 c -72,-38 -137,-132 -159,-230 -13,-58 -14,-175 -1,-221 14,-50 49,-99 89,-126 40,-27 135,-32 180,-9 30,16 101,90 101,106 0,6 5,10 10,10 6,0 10,-28 10,-65 v -65 h 88 c 79,0 91,2 109,23 12,12 24,41 28,65 l 7,42 h -42 -42 l 6,38 c 3,20 13,93 21,162 14,110 30,193 51,268 6,21 4,22 -69,22 h -76 l -11,-42 c -19,-73 -19,-73 -43,-37 -39,58 -81,79 -156,79 -45,-1 -77,-7 -101,-20 z m 199,-125 c 40,-34 55,-83 46,-153 -16,-141 -114,-235 -197,-191 -69,37 -62,267 12,341 38,38 96,39 139,3 z m 1022,128 c -127,-45 -220,-239 -190,-399 14,-75 28,-102 77,-146 54,-49 98,-61 201,-56 72,3 95,9 140,33 65,36 123,105 147,177 21,64 24,176 5,240 -17,59 -72,125 -125,149 -52,24 -191,25 -255,2 z m 168,-117 c 66,-35 79,-188 24,-303 -19,-41 -58,-63 -113,-63 -50,0 -86,31 -96,85 -11,58 1,186 21,228 29,62 101,85 164,53 z m 334,112 c -11,-13 -23,-42 -26,-65 l -5,-43 h 42 42 l -22,-177 c -12,-98 -23,-179 -23,-180 -1,-2 -9,-3 -18,-3 -34,-1 -61,-33 -68,-82 l -7,-48 h 159 c 153,0 160,1 180,23 11,12 23,41 27,65 l 6,42 h -61 c -53,0 -60,2 -55,18 2,9 10,60 17,112 19,151 47,186 143,178 61,-5 56,-13 72,111 8,61 0,71 -55,71 -43,0 -92,-49 -117,-117 -9,-27 -20,-52 -24,-56 -4,-5 -11,32 -14,82 l -8,91 h -82 c -73,0 -85,-3 -103,-22 z m 589,4 c -87,-31 -132,-88 -132,-167 0,-90 51,-136 195,-176 112,-30 117,-33 113,-77 -4,-49 -32,-63 -123,-60 l -70,3 -3,37 c -3,37 -3,37 -58,44 -30,3 -57,4 -60,1 -3,-3 -14,-38 -24,-78 -15,-56 -16,-75 -7,-81 64,-42 290,-62 376,-33 94,31 141,90 141,177 0,88 -51,140 -170,174 -30,8 -74,22 -98,31 -40,14 -43,18 -40,46 4,43 37,59 110,54 31,-3 61,-8 67,-12 6,-3 11,-23 11,-44 0,-41 -3,-41 98,-25 l 32,5 v 75 75 l -47,21 c -69,31 -237,36 -311,10 z m 428,-560 -56,-157 74,-3 c 41,-2 76,-1 79,1 4,5 113,305 113,313 0,2 -35,4 -77,4 h -78 z M 1530,3600 v -60 h 2685 2685 v 60 60 H 4215 1530 Z m 5820,0 c 0,-57 1,-60 25,-60 24,0 25,3 25,60 0,57 -1,60 -25,60 -24,0 -25,-3 -25,-60 z M 563,3058 c -11,-13 -23,-42 -26,-65 l -5,-43 h 39 c 21,0 39,-2 39,-5 0,-11 -90,-752 -95,-777 l -4,-28 h 78 79 l 6,38 c 3,20 15,110 25,199 26,210 46,250 135,260 59,7 93,-14 102,-63 4,-21 -3,-115 -15,-218 -12,-99 -21,-189 -21,-198 0,-16 11,-18 94,-18 116,0 142,15 148,85 l 3,45 h -37 c -44,0 -43,-11 -23,145 22,174 20,235 -7,275 -32,46 -82,70 -146,70 -69,0 -109,-18 -155,-69 -21,-24 -40,-41 -41,-39 -2,1 7,86 20,188 13,102 23,197 24,213 v 27 h -98 c -89,0 -100,-2 -119,-22 z m 2508,-2 c -13,-13 -25,-42 -28,-65 l -6,-41 h 58 c 54,0 57,-1 52,-22 -3,-13 -11,-74 -18,-135 -6,-62 -15,-113 -19,-113 -4,0 -15,11 -23,24 -36,55 -161,74 -242,37 -156,-70 -232,-371 -135,-525 40,-62 76,-79 160,-74 76,4 119,29 169,99 16,21 31,35 35,32 3,-3 6,-35 6,-70 v -63 h 83 c 103,1 127,15 134,83 l 6,47 h -37 c -32,0 -36,3 -36,25 0,14 20,190 45,391 25,201 45,372 45,380 0,11 -21,14 -113,14 -107,0 -115,-1 -136,-24 z m -46,-428 c 14,-6 35,-27 47,-45 17,-29 20,-46 16,-106 -9,-141 -97,-237 -194,-213 -36,9 -54,60 -54,150 0,168 81,262 185,214 z m 4308,430 c -12,-13 -24,-42 -28,-65 l -7,-43 h 41 c 34,0 41,-3 41,-19 0,-11 -20,-185 -45,-388 -25,-202 -45,-376 -45,-385 0,-16 11,-18 98,-18 89,0 100,2 119,23 11,12 23,41 27,65 l 6,42 h -41 -41 l 6,38 c 3,20 24,188 46,372 22,184 42,350 45,368 l 6,32 h -104 c -95,0 -105,-2 -124,-22 z m 360,0 c -12,-13 -24,-42 -28,-65 l -7,-43 h 41 c 34,0 41,-3 41,-19 0,-11 -20,-185 -45,-388 -25,-202 -45,-376 -45,-385 0,-16 11,-18 98,-18 89,0 100,2 119,23 11,12 23,41 27,65 l 6,42 h -41 -41 l 6,38 c 3,20 24,188 46,372 22,184 42,350 45,368 l 6,32 h -104 c -95,0 -105,-2 -124,-22 z m -2083,-37 c 0,-15 -3,-56 -6,-90 l -7,-61 h 76 75 l 7,63 c 3,34 8,74 11,90 l 6,27 h -81 -81 z m 2630,-40 c 0,-27 -3,-62 -6,-79 l -6,-31 -58,44 -57,44 -33,-45 c -18,-25 -31,-46 -29,-48 2,-1 30,-17 62,-35 31,-18 57,-36 57,-40 0,-4 -31,-22 -69,-41 l -70,-33 21,-41 c 11,-23 22,-43 24,-45 2,-2 21,7 41,21 21,13 51,33 67,43 l 29,19 -7,-54 c -4,-30 -10,-65 -13,-77 -5,-22 -2,-23 51,-23 h 56 v 75 c 0,41 2,75 5,75 3,0 31,-19 61,-41 30,-23 56,-40 57,-38 2,2 18,23 36,46 l 32,42 -60,30 c -33,17 -62,35 -65,40 -4,5 25,24 64,42 38,17 70,36 70,42 0,5 -10,26 -21,47 l -22,38 -60,-39 c -33,-21 -64,-39 -69,-39 -9,0 -5,30 12,113 l 8,37 h -54 -54 z M 167,2922 c -20,-21 -28,-42 -34,-92 -7,-57 -11,-65 -30,-68 -34,-5 -73,-58 -73,-98 0,-33 1,-34 40,-34 38,0 39,-1 35,-27 -10,-56 -35,-282 -35,-315 0,-51 31,-99 81,-126 61,-33 177,-29 228,7 36,26 100,146 85,160 -5,5 -30,15 -55,24 l -46,15 -12,-39 c -13,-42 -43,-69 -78,-69 -43,0 -47,33 -27,207 l 19,158 70,3 c 60,3 74,7 97,29 21,20 28,36 28,65 v 38 h -91 c -89,0 -91,0 -86,23 3,12 9,55 13,95 l 7,72 h -55 c -46,0 -58,-4 -81,-28 z m 1920,0 c -20,-21 -28,-42 -34,-92 -7,-57 -11,-65 -30,-68 -34,-5 -73,-58 -73,-98 0,-33 1,-34 40,-34 38,0 39,-1 35,-27 -10,-56 -35,-282 -35,-315 0,-51 31,-99 81,-126 61,-33 177,-29 228,7 36,26 100,146 85,160 -5,5 -30,15 -55,24 l -46,15 -12,-39 c -13,-42 -43,-69 -78,-69 -43,0 -47,33 -27,207 l 19,158 70,3 c 60,3 74,7 97,29 21,20 28,36 28,65 v 38 h -91 c -89,0 -91,0 -86,23 3,12 9,55 13,95 l 7,72 h -55 c -46,0 -58,-4 -81,-28 z m 3881,-6 c -19,-24 -29,-50 -34,-95 -5,-50 -10,-61 -25,-61 -32,0 -68,-42 -75,-87 l -7,-43 h 43 42 l -6,-37 c -20,-126 -36,-308 -31,-334 9,-39 51,-89 92,-105 39,-17 140,-18 180,-3 42,16 73,48 99,104 30,64 30,73 -3,86 -62,23 -80,23 -86,-3 -11,-43 -46,-78 -78,-78 -47,0 -52,29 -34,184 24,205 15,186 95,186 85,0 115,21 123,88 l 5,42 h -92 -93 l 8,63 c 5,34 10,77 13,95 l 5,32 h -57 c -53,0 -59,-3 -84,-34 z M 1400,2740 c -72,-38 -137,-132 -159,-230 -13,-58 -14,-175 -1,-221 14,-50 49,-99 89,-126 40,-27 135,-32 180,-9 30,16 101,90 101,106 0,6 5,10 10,10 6,0 10,-28 10,-65 v -65 h 88 c 79,0 91,2 109,23 12,12 24,41 28,65 l 7,42 h -42 -42 l 6,38 c 3,20 13,93 21,162 14,110 30,193 51,268 6,21 4,22 -69,22 h -76 l -11,-42 c -19,-73 -19,-73 -43,-37 -39,58 -81,79 -156,79 -45,-1 -77,-7 -101,-20 z m 199,-125 c 40,-34 55,-83 46,-153 -16,-141 -114,-235 -197,-191 -69,37 -62,267 12,341 38,38 96,39 139,3 z m 1982,128 c -127,-45 -220,-239 -190,-399 14,-75 28,-102 77,-146 54,-49 98,-61 201,-56 72,3 95,9 140,33 65,36 123,105 147,177 21,64 24,176 5,240 -17,59 -72,125 -125,149 -52,24 -191,25 -255,2 z m 168,-117 c 66,-35 79,-188 24,-303 -19,-41 -58,-63 -113,-63 -50,0 -86,31 -96,85 -11,58 1,186 21,228 29,62 101,85 164,53 z m 501,125 c -147,-45 -248,-231 -220,-403 11,-73 30,-108 80,-150 50,-43 98,-58 186,-58 109,0 213,62 245,148 15,38 8,45 -54,58 l -56,11 -12,-29 c -35,-86 -170,-95 -204,-13 -25,57 -20,73 23,80 104,17 192,40 235,62 132,66 124,229 -15,287 -39,17 -163,20 -208,7 z m 134,-117 c 20,-20 20,-63 1,-92 -20,-27 -185,-75 -185,-54 0,30 36,118 55,138 29,29 104,34 129,8 z m 402,106 c -86,-34 -126,-86 -126,-167 0,-92 44,-131 195,-174 96,-27 117,-42 113,-83 -4,-40 -36,-56 -115,-56 -84,0 -93,4 -86,45 l 5,33 -57,7 c -31,4 -60,4 -64,-1 -14,-15 -42,-147 -34,-154 42,-38 283,-64 368,-40 105,29 165,110 152,205 -4,25 -14,56 -23,70 -20,30 -95,67 -197,96 -84,24 -106,44 -87,79 20,38 94,51 159,29 27,-10 31,-15 31,-48 0,-41 -2,-41 98,-25 l 33,5 -3,77 -3,77 -65,22 c -86,29 -223,31 -294,3 z m 725,-4 c -13,-13 -25,-42 -28,-65 l -6,-41 h 42 c 33,0 41,-4 41,-17 -1,-10 -13,-120 -28,-245 l -28,-228 h 98 c 92,0 101,2 123,25 18,18 25,35 25,65 0,39 -1,40 -35,40 -19,0 -35,5 -35,11 0,12 48,420 54,457 3,22 1,22 -99,22 -94,0 -103,-2 -124,-24 z m 1214,5 c -161,-73 -232,-390 -120,-536 36,-48 74,-65 143,-65 69,0 119,28 167,92 l 30,40 3,-44 c 5,-91 2,-88 95,-88 101,1 124,15 133,84 l 7,46 h -41 c -40,0 -41,1 -37,28 3,15 14,97 25,182 11,86 27,178 35,205 23,76 24,75 -59,75 h -75 l -12,-55 c -7,-30 -15,-55 -18,-55 -3,0 -15,16 -26,37 -11,20 -36,44 -55,55 -46,24 -141,24 -195,-1 z m 186,-118 c 45,-26 62,-74 57,-153 -11,-149 -121,-254 -205,-195 -66,46 -49,288 24,344 32,26 85,27 124,4 z"
             transform="matrix(0.025,0,0,-0.025,51.062497,496.49999)"
             id="path392"
             inkscape:connector-curvature="0"
             style="fill:#ffffff;stroke:none" />
        </g>
      </g>
      <g
         id="shape-17240f04-b365-11eb-a19f-b902f2f7b4ee">
        <g
           class="svg-raw"
           id="g401">
          <svg
             viewBox="0 0 32 32"
             x="9.062499"
             y="295"
             width="32"
             height="32"
             preserveAspectRatio="none"
             style="fill:#ffffff;fill-opacity:1"
             version="1.1"
             id="svg399">
            <path
               d="M 4,4 V 28 H 28 V 12.187 l -2,2.001 V 26 H 6 V 6 h 19.813 l 2,-2 z M 27.281,7.281 16,18.563 11.719,14.28 l -1.439,1.44 5.001,4.999 0.719,0.687 0.719,-0.686 12,-12.001 z"
               id="path397"
               inkscape:connector-curvature="0" />
          </svg>
        </g>
      </g>
    </g>
  </g>
</svg>
