<?xml version="1.0" encoding="UTF-8" standalone="no"?>
<svg
   xmlns:dc="http://purl.org/dc/elements/1.1/"
   xmlns:cc="http://creativecommons.org/ns#"
   xmlns:rdf="http://www.w3.org/1999/02/22-rdf-syntax-ns#"
   xmlns:svg="http://www.w3.org/2000/svg"
   xmlns="http://www.w3.org/2000/svg"
   xmlns:sodipodi="http://sodipodi.sourceforge.net/DTD/sodipodi-0.dtd"
   xmlns:inkscape="http://www.inkscape.org/namespaces/inkscape"
   id="screenshot"
   viewBox="0.062496849 0.49999393 496.00001 539.54008"
   width="496"
   height="539.5401"
   version="1.1"
   sodipodi:docname="right_side_cards_fixed.svg"
   inkscape:version="0.92.3 (2405546, 2018-03-11)">
  <metadata
     id="metadata640">
    <rdf:RDF>
      <cc:Work
         rdf:about="">
        <dc:format>image/svg+xml</dc:format>
        <dc:type
           rdf:resource="http://purl.org/dc/dcmitype/StillImage" />
        <dc:title></dc:title>
      </cc:Work>
    </rdf:RDF>
  </metadata>
  <defs
     id="defs638" />
  <sodipodi:namedview
     pagecolor="#ffffff"
     bordercolor="#666666"
     borderopacity="1"
     objecttolerance="10"
     gridtolerance="10"
     guidetolerance="10"
     inkscape:pageopacity="0"
     inkscape:pageshadow="2"
     inkscape:window-width="1920"
     inkscape:window-height="1008"
     id="namedview636"
     showgrid="false"
     fit-margin-top="3"
     fit-margin-left="3"
     fit-margin-right="10"
     fit-margin-bottom="10"
     inkscape:zoom="0.47338215"
     inkscape:cx="269.9375"
     inkscape:cy="279.27006"
     inkscape:window-x="0"
     inkscape:window-y="32"
     inkscape:window-maximized="1"
     inkscape:current-layer="screenshot" />
  <g
     id="shape-5782ddd0-b372-11eb-a19f-b902f2f7b4ee"
     transform="translate(10.999999,10.999996)">
    <g
       id="g632">
      <g
         id="shape-1723e7f0-b365-11eb-a19f-b902f2f7b4ee"
         style="filter:url(#filter_29ec2d80-b37d-11eb-9e3b-2d69cbd459c8)">
        <defs
           id="defs448">
          <filter
             id="filter_29ec2d80-b37d-11eb-9e3b-2d69cbd459c8"
             x="82.0625"
             y="-7.5000019"
             width="393"
             height="239.65385"
             filterUnits="userSpaceOnUse"
             style="color-interpolation-filters:sRGB">
            <feFlood
               flood-opacity="0"
               result="BackgroundImageFix"
               id="feFlood433" />
            <feColorMatrix
               in="SourceAlpha"
               type="matrix"
               values="0 0 0 0 0 0 0 0 0 0 0 0 0 0 0 0 0 0 127 0"
               id="feColorMatrix435" />
            <feOffset
               dx="4"
               dy="4"
               id="feOffset437" />
            <feGaussianBlur
               stdDeviation="3.5"
               id="feGaussianBlur439" />
            <feColorMatrix
               type="matrix"
               values="0 0 0 0 0 0 0 0 0 0 0 0 0 0 0 0 0 0 0.2 0"
               id="feColorMatrix441" />
            <feBlend
               mode="normal"
               in2="BackgroundImageFix"
               result="filter_e9d62510-6850-11eb-859f-87a287cc736d"
               id="feBlend443" />
            <feBlend
               mode="normal"
               in="SourceGraphic"
               in2="filter_e9d62510-6850-11eb-859f-87a287cc736d"
               result="shape"
               id="feBlend445" />
          </filter>
        </defs>
        <rect
           rx="0"
           ry="0"
           x="90"
           y="0"
           transform="translate(1.622954e-6,4.5022003e-6)"
           width="365"
           height="212"
           style="fill:#fec6b4;fill-opacity:1;stroke:#000000;stroke-width:5;stroke-opacity:1"
           id="rect450" />
      </g>
      <g
         id="shape-1723e7f1-b365-11eb-a19f-b902f2f7b4ee"
         style="filter:url(#filter_29ed6600-b37d-11eb-9e3b-2d69cbd459c8)">
        <defs
           id="defs468">
          <filter
             id="filter_29ed6600-b37d-11eb-9e3b-2d69cbd459c8"
             x="48.062504"
             y="45.664234"
             width="393"
             height="239.65385"
             filterUnits="userSpaceOnUse"
             style="color-interpolation-filters:sRGB">
            <feFlood
               flood-opacity="0"
               result="BackgroundImageFix"
               id="feFlood453" />
            <feColorMatrix
               in="SourceAlpha"
               type="matrix"
               values="0 0 0 0 0 0 0 0 0 0 0 0 0 0 0 0 0 0 127 0"
               id="feColorMatrix455" />
            <feOffset
               dx="4"
               dy="4"
               id="feOffset457" />
            <feGaussianBlur
               stdDeviation="3.5"
               id="feGaussianBlur459" />
            <feColorMatrix
               type="matrix"
               values="0 0 0 0 0 0 0 0 0 0 0 0 0 0 0 0 0 0 0.2 0"
               id="feColorMatrix461" />
            <feBlend
               mode="normal"
               in2="BackgroundImageFix"
               result="filter_e0eb4700-6850-11eb-859f-87a287cc736d"
               id="feBlend463" />
            <feBlend
               mode="normal"
               in="SourceGraphic"
               in2="filter_e0eb4700-6850-11eb-859f-87a287cc736d"
               result="shape"
               id="feBlend465" />
          </filter>
        </defs>
        <rect
           rx="0"
           ry="0"
           x="56"
           y="54"
           transform="translate(-2.0376072e-7,7.945031e-6)"
           width="365"
           height="212"
           style="fill:#ffc700;fill-opacity:1;stroke:#000000;stroke-width:5;stroke-opacity:1"
           id="rect470" />
      </g>
      <g
         id="shape-1723e7f2-b365-11eb-a19f-b902f2f7b4ee"
         style="filter:url(#filter_29ee0240-b37d-11eb-9e3b-2d69cbd459c8)">
        <defs
           id="defs488">
          <filter
             id="filter_29ee0240-b37d-11eb-9e3b-2d69cbd459c8"
             x="16.062502"
             y="99.831573"
             width="393"
             height="239.65385"
             filterUnits="userSpaceOnUse"
             style="color-interpolation-filters:sRGB">
            <feFlood
               flood-opacity="0"
               result="BackgroundImageFix"
               id="feFlood473" />
            <feColorMatrix
               in="SourceAlpha"
               type="matrix"
               values="0 0 0 0 0 0 0 0 0 0 0 0 0 0 0 0 0 0 127 0"
               id="feColorMatrix475" />
            <feOffset
               dx="4"
               dy="4"
               id="feOffset477" />
            <feGaussianBlur
               stdDeviation="3.5"
               id="feGaussianBlur479" />
            <feColorMatrix
               type="matrix"
               values="0 0 0 0 0 0 0 0 0 0 0 0 0 0 0 0 0 0 0.2 0"
               id="feColorMatrix481" />
            <feBlend
               mode="normal"
               in2="BackgroundImageFix"
               result="filter_d19298d0-6850-11eb-859f-87a287cc736d"
               id="feBlend483" />
            <feBlend
               mode="normal"
               in="SourceGraphic"
               in2="filter_d19298d0-6850-11eb-859f-87a287cc736d"
               result="shape"
               id="feBlend485" />
          </filter>
        </defs>
        <rect
           rx="0"
           ry="0"
           x="24"
           y="108"
           transform="translate(3.5526153e-6,3.0929612e-6)"
           width="365"
           height="212"
           style="fill:#db353f;fill-opacity:1;stroke:#000000;stroke-width:5;stroke-opacity:1"
           id="rect490" />
      </g>
      <g
         id="shape-1723e7f3-b365-11eb-a19f-b902f2f7b4ee">
        <g
           class="svg-raw"
           id="g497">
          <svg
             viewBox="0 0 32 32"
             x="106"
             y="7"
             width="32"
             height="32"
             preserveAspectRatio="none"
             version="1.1"
             id="svg495">
            <path
               d="M 4,4 V 28 H 28 V 12.187 l -2,2.001 V 26 H 6 V 6 h 19.813 l 2,-2 z M 27.281,7.281 16,18.563 11.719,14.28 l -1.439,1.44 5.001,4.999 0.719,0.687 0.719,-0.686 12,-12.001 z"
               id="path493"
               inkscape:connector-curvature="0" />
          </svg>
        </g>
      </g>
      <g
         id="shape-1723e7f5-b365-11eb-a19f-b902f2f7b4ee">
        <g
           id="g502">
          <path
             d="m 1311,1816 c -13,-13 -25,-42 -28,-65 l -6,-41 h 57 c 57,0 58,0 52,-27 -3,-16 -10,-76 -17,-135 -7,-60 -15,-108 -19,-108 -4,0 -15,11 -23,24 -36,55 -161,74 -242,37 -156,-70 -232,-371 -135,-525 40,-62 76,-79 160,-74 76,4 119,29 169,99 16,21 31,35 35,32 3,-3 6,-35 6,-70 v -63 h 83 c 103,1 127,15 134,83 l 6,47 h -37 c -32,0 -36,3 -36,25 0,14 20,190 45,391 25,201 45,372 45,380 0,11 -21,14 -113,14 -107,0 -115,-1 -136,-24 z m -40,-433 c 39,-23 59,-70 59,-140 -1,-134 -98,-243 -196,-219 -84,21 -69,303 20,357 38,23 79,24 117,2 z m 1579,398 c 0,-15 -3,-56 -6,-90 l -7,-61 h 76 75 l 7,63 c 3,34 8,74 11,90 l 6,27 h -81 -81 z m 1560,0 c 0,-15 -3,-56 -6,-90 l -7,-61 h 76 75 l 7,63 c 3,34 8,74 11,90 l 6,27 h -81 -81 z M 270,1756 c 0,-18 -3,-54 -6,-80 l -7,-46 h 57 c 31,0 56,-3 56,-7 0,-4 -66,-132 -147,-285 L 75,1060 H 38 0 v -80 -80 h 150 c 112,0 152,3 154,13 3,6 7,42 10,80 l 7,67 h -41 -40 l 22,45 22,45 150,-2 150,-3 12,-42 13,-43 h -34 c -33,0 -34,-1 -40,-47 -3,-27 -8,-63 -11,-80 l -5,-33 h 166 c 164,0 165,0 166,23 0,12 4,48 8,80 l 7,57 H 825 784 L 670,1425 555,1790 H 413 270 Z m 220,-230 c 0,-2 13,-55 30,-117 16,-63 30,-117 30,-121 0,-5 -45,-8 -100,-8 -55,0 -100,2 -100,5 0,16 122,245 130,245 6,0 10,-2 10,-4 z m 6656,249 c -125,-44 -191,-209 -148,-373 l 19,-73 -57,-30 c -102,-54 -140,-107 -140,-191 1,-91 68,-173 164,-199 65,-18 182,-7 257,24 l 66,27 59,-27 c 71,-33 194,-43 259,-21 43,15 44,17 30,113 l -6,40 h -83 c -47,0 -88,3 -92,7 -4,4 20,37 54,72 33,36 68,78 78,95 16,27 24,31 61,31 47,0 44,-5 57,113 l 6,47 h -165 -165 v -27 c 0,-16 -3,-52 -6,-80 l -7,-53 h 32 c 29,0 32,-2 26,-22 -9,-29 -52,-105 -65,-113 -20,-13 -170,154 -170,190 0,8 37,33 82,57 103,54 172,118 187,174 24,92 -21,181 -111,219 -46,19 -169,19 -222,0 z m 162,-138 c 27,-57 -7,-134 -87,-195 -52,-39 -59,-34 -68,53 -12,116 24,179 100,173 35,-2 44,-8 55,-31 z m -224,-435 c 19,-32 53,-79 76,-104 22,-25 40,-49 40,-52 0,-3 -33,-6 -72,-6 -115,0 -162,43 -143,130 6,26 49,90 60,90 2,0 19,-26 39,-58 z m 1251,574 c -181,-57 -292,-201 -326,-419 -27,-176 56,-354 200,-424 52,-26 65,-28 181,-28 136,0 218,19 291,69 33,23 36,30 53,120 10,54 17,99 15,101 -2,2 -32,7 -66,10 l -62,7 -10,-38 c -5,-22 -13,-51 -16,-66 -10,-39 -66,-58 -171,-58 -99,0 -137,13 -181,63 -44,50 -57,98 -57,202 -1,163 56,267 166,310 60,22 196,18 249,-8 34,-17 37,-22 42,-74 3,-30 8,-57 11,-60 3,-3 32,-2 65,2 l 61,7 v 103 103 l -47,30 c -78,49 -131,62 -251,61 -59,0 -125,-6 -147,-13 z m 574,3 c 0,-8 -3,-44 -8,-81 l -7,-68 h 43 c 28,0 43,-4 43,-12 1,-7 -12,-136 -27,-285 l -27,-273 h -48 c -46,0 -48,-1 -48,-27 0,-16 -3,-52 -6,-80 l -7,-53 h 177 176 v 34 c 0,18 3,54 6,80 l 7,46 h -48 -47 l 6,53 c 4,28 9,69 12,90 l 6,37 h 61 62 l 65,-167 66,-168 102,-3 c 116,-3 107,-10 116,91 l 7,67 h -53 -53 l -44,108 c -24,59 -45,112 -47,117 -3,6 11,16 30,23 50,18 121,86 140,134 10,23 17,69 17,104 0,115 -52,187 -158,221 -69,22 -513,32 -514,12 z m 472,-176 c 17,-17 22,-33 22,-75 0,-104 -47,-138 -191,-138 h -88 l 13,113 c 6,61 12,116 13,120 0,5 47,7 105,5 91,-3 107,-6 126,-25 z m 354,140 c -3,-27 -7,-63 -10,-80 l -4,-33 h 54 54 l -5,-32 c -6,-44 -54,-509 -54,-525 0,-9 -16,-13 -45,-13 -52,0 -51,1 -59,-92 l -7,-68 h 160 c 88,0 162,3 164,8 2,4 8,40 11,80 l 7,72 h -42 c -41,0 -41,0 -36,33 3,17 11,91 18,162 6,72 15,139 19,150 8,22 5,28 136,-267 l 69,-157 h 35 c 35,0 36,2 160,200 69,110 131,205 139,212 15,13 15,2 -11,-230 l -11,-103 h -37 -37 l -7,-61 c -11,-110 -28,-99 158,-99 h 163 l 7,53 c 12,105 12,107 -38,107 -45,0 -45,0 -40,33 6,47 54,506 54,523 0,10 14,14 55,14 53,0 55,1 55,28 0,15 3,51 6,80 l 7,52 h -121 -120 l -173,-280 c -95,-153 -175,-277 -179,-275 -4,3 -62,128 -130,280 l -122,275 H 9859 9741 Z M 1666,1495 c -20,-18 -26,-34 -26,-65 v -40 h 41 41 l -6,-37 c -3,-21 -15,-117 -26,-213 -11,-96 -23,-190 -26,-207 l -5,-33 h 81 c 44,0 80,3 80,8 0,51 52,397 63,424 19,46 52,68 102,68 30,0 47,-6 63,-23 32,-34 30,-106 -14,-434 l -5,-43 h 79 79 l 23,193 c 24,205 38,256 78,287 36,29 96,27 127,-5 32,-31 32,-74 5,-285 -11,-85 -20,-163 -20,-172 0,-16 11,-18 98,-18 89,0 100,2 119,23 11,12 23,41 27,65 l 6,42 h -40 c -22,0 -40,3 -40,8 0,4 9,79 20,167 20,161 19,197 -7,248 -37,72 -160,92 -244,38 -25,-16 -56,-45 -68,-65 -25,-40 -36,-40 -46,3 -12,57 -70,91 -152,91 -70,0 -120,-28 -168,-92 l -30,-40 -3,66 -3,66 h -88 c -80,0 -91,-2 -115,-25 z m 1085,1 c -13,-13 -25,-42 -28,-65 l -6,-41 h 42 c 33,0 41,-4 41,-17 -1,-10 -13,-120 -28,-245 l -28,-228 h 98 c 92,0 101,2 123,25 18,18 25,35 25,65 0,39 -1,40 -35,40 -19,0 -35,5 -35,11 0,12 48,420 54,457 3,22 1,22 -99,22 -94,0 -103,-2 -124,-24 z m 475,4 c -86,-34 -126,-86 -126,-167 0,-92 44,-131 195,-174 96,-27 117,-42 113,-83 -4,-40 -36,-56 -115,-56 -84,0 -93,4 -86,45 l 5,33 -57,7 c -31,4 -60,4 -64,-1 -14,-15 -42,-147 -34,-154 42,-38 283,-64 368,-40 105,29 165,110 152,205 -4,25 -14,56 -23,70 -20,30 -95,67 -197,96 -84,24 -106,44 -87,79 20,38 94,51 159,29 27,-10 31,-15 31,-48 0,-41 -2,-41 98,-25 l 33,5 -3,77 -3,77 -65,22 c -86,29 -223,31 -294,3 z m 600,0 c -86,-34 -126,-86 -126,-167 0,-92 44,-131 195,-174 96,-27 117,-42 113,-83 -4,-40 -36,-56 -115,-56 -84,0 -93,4 -86,45 l 5,33 -57,7 c -31,4 -60,4 -64,-1 -14,-15 -42,-147 -34,-154 42,-38 283,-64 368,-40 105,29 165,110 152,205 -4,25 -14,56 -23,70 -20,30 -95,67 -197,96 -84,24 -106,44 -87,79 20,38 94,51 159,29 27,-10 31,-15 31,-48 0,-41 -2,-41 98,-25 l 33,5 -3,77 -3,77 -65,22 c -86,29 -223,31 -294,3 z m 485,-4 c -13,-13 -25,-42 -28,-65 l -6,-41 h 42 c 33,0 41,-4 41,-17 -1,-10 -13,-120 -28,-245 l -28,-228 h 98 c 92,0 101,2 123,25 18,18 25,35 25,65 0,39 -1,40 -35,40 -19,0 -35,5 -35,11 0,12 48,420 54,457 3,22 1,22 -99,22 -94,0 -103,-2 -124,-24 z m 510,7 c -127,-45 -220,-239 -190,-399 14,-75 28,-102 77,-146 54,-49 98,-61 201,-56 72,3 95,9 140,33 65,36 123,105 147,177 21,64 24,176 5,240 -17,59 -72,125 -125,149 -52,24 -191,25 -255,2 z m 168,-117 c 66,-35 79,-188 24,-303 -19,-41 -58,-63 -113,-63 -50,0 -86,31 -96,85 -11,58 1,186 21,228 29,62 101,85 164,53 z m 317,109 c -20,-18 -26,-34 -26,-65 v -40 h 41 41 l -6,-37 c -3,-21 -15,-117 -26,-213 -11,-96 -23,-190 -26,-207 l -5,-33 h 81 c 44,0 80,3 80,8 1,62 51,396 64,423 21,44 62,69 115,69 49,0 77,-24 86,-73 5,-27 -17,-264 -39,-404 -3,-23 -1,-23 96,-23 92,0 101,2 123,25 18,18 25,35 25,65 0,39 -1,40 -35,40 -42,0 -42,1 -20,160 19,142 19,207 -3,250 -39,79 -176,107 -258,54 -22,-14 -50,-41 -63,-60 -13,-19 -27,-34 -32,-34 -5,0 -9,27 -9,60 v 60 h -89 c -80,0 -91,-2 -115,-25 z m 840,5 c -86,-34 -126,-86 -126,-167 0,-92 44,-131 195,-174 96,-27 117,-42 113,-83 -4,-40 -36,-56 -115,-56 -84,0 -93,4 -86,45 l 5,33 -57,7 c -31,4 -60,4 -64,-1 -14,-15 -42,-147 -34,-154 42,-38 283,-64 368,-40 105,29 165,110 152,205 -4,25 -14,56 -23,70 -20,30 -95,67 -197,96 -84,24 -106,44 -87,79 20,38 94,51 159,29 27,-10 31,-15 31,-48 0,-41 -2,-41 98,-25 l 33,5 -3,77 -3,77 -65,22 c -86,29 -223,31 -294,3 z M 0,255 v -95 h 5395 5395 V 80 0 h 95 95 V 175 350 H 5490 0 Z"
             transform="matrix(0.025,0,0,-0.025,117,115)"
             id="path500"
             inkscape:connector-curvature="0"
             style="fill:#000000;stroke:none" />
        </g>
      </g>
      <g
         id="shape-1723e7f6-b365-11eb-a19f-b902f2f7b4ee">
        <g
           class="svg-raw"
           id="g509">
          <svg
             viewBox="0 0 32 32"
             x="70"
             y="65"
             width="32"
             height="32"
             preserveAspectRatio="none"
             version="1.1"
             id="svg507">
            <path
               d="M 4,4 V 28 H 28 V 12.187 l -2,2.001 V 26 H 6 V 6 h 19.813 l 2,-2 z M 27.281,7.281 16,18.563 11.719,14.28 l -1.439,1.44 5.001,4.999 0.719,0.687 0.719,-0.686 12,-12.001 z"
               id="path505"
               inkscape:connector-curvature="0" />
          </svg>
        </g>
      </g>
      <g
         id="shape-1723e7f8-b365-11eb-a19f-b902f2f7b4ee">
        <g
           id="g514">
          <path
             d="m 8351,1806 c -13,-13 -25,-42 -28,-65 l -6,-41 h 57 c 57,0 58,0 52,-27 -3,-16 -10,-76 -17,-135 -7,-60 -15,-108 -19,-108 -4,0 -15,11 -23,24 -36,55 -161,74 -242,37 -156,-70 -232,-371 -135,-525 40,-62 76,-79 160,-74 76,4 119,29 169,99 16,21 31,35 35,32 3,-3 6,-35 6,-70 v -63 h 83 c 103,1 127,15 134,83 l 6,47 h -37 c -32,0 -36,3 -36,25 0,14 20,190 45,391 25,201 45,372 45,380 0,11 -21,14 -113,14 -107,0 -115,-1 -136,-24 z m -40,-433 c 39,-23 59,-70 59,-140 -1,-134 -98,-243 -196,-219 -84,21 -69,303 20,357 38,23 79,24 117,2 z m -6461,398 c 0,-15 -3,-56 -6,-90 l -7,-61 h 76 75 l 7,63 c 3,34 8,74 11,90 l 6,27 h -81 -81 z m 6960,0 c 0,-15 -3,-56 -6,-90 l -7,-61 h 76 75 l 7,63 c 3,34 8,74 11,90 l 6,27 h -81 -81 z M 375,1763 C 172,1690 40,1503 40,1290 c 0,-175 94,-326 236,-379 81,-31 243,-27 319,8 l 50,22 62,-68 62,-68 53,52 52,53 -40,42 c -71,76 -70,69 -20,142 59,86 86,174 86,280 0,176 -81,317 -218,379 -66,30 -236,35 -307,10 z m 218,-147 c 45,-19 93,-73 112,-125 31,-89 10,-291 -36,-335 -7,-8 -30,10 -77,62 l -67,72 -55,-48 -54,-49 61,-68 c 34,-38 60,-72 57,-77 -8,-13 -152,-9 -187,6 -18,7 -45,28 -60,46 -49,57 -60,97 -61,205 -1,90 2,106 27,160 54,116 125,164 240,165 37,0 82,-6 100,-14 z m 4433,149 c -125,-44 -191,-209 -148,-373 l 19,-73 -57,-30 c -102,-54 -140,-107 -140,-191 1,-91 68,-173 164,-199 65,-18 182,-7 257,24 l 66,27 59,-27 c 71,-33 194,-43 259,-21 43,15 44,17 30,113 l -6,40 h -83 c -47,0 -88,3 -92,7 -4,4 20,37 54,72 33,36 68,78 78,95 16,27 24,31 61,31 47,0 44,-5 57,113 l 6,47 h -165 -165 v -27 c 0,-16 -3,-52 -6,-80 l -7,-53 h 32 c 29,0 32,-2 26,-22 -9,-29 -52,-105 -65,-113 -20,-13 -170,154 -170,190 0,8 37,33 82,57 103,54 172,118 187,174 24,92 -21,181 -111,219 -46,19 -169,19 -222,0 z m 162,-138 c 27,-57 -7,-134 -87,-195 -52,-39 -59,-34 -68,53 -12,116 24,179 100,173 35,-2 44,-8 55,-31 z m -224,-435 c 19,-32 53,-79 76,-104 22,-25 40,-49 40,-52 0,-3 -33,-6 -72,-6 -115,0 -162,43 -143,130 6,26 49,90 60,90 2,0 19,-26 39,-58 z m 1236,569 c -151,-49 -264,-179 -305,-352 -39,-166 0,-330 102,-432 62,-62 128,-87 232,-87 90,0 150,18 203,60 44,36 48,36 48,8 1,-63 8,-69 74,-66 l 61,3 17,155 c 9,85 17,161 17,168 1,6 10,12 21,12 22,0 25,11 34,103 l 6,57 h -189 -190 l -5,-32 c -3,-18 -7,-54 -10,-80 l -6,-48 h 86 86 l -7,-32 c -10,-51 -57,-119 -95,-139 -24,-14 -55,-19 -105,-19 -82,0 -136,25 -172,78 -49,73 -55,233 -14,343 25,67 96,139 155,159 53,17 200,9 249,-14 33,-16 37,-23 37,-55 0,-58 8,-63 79,-55 l 61,7 v 91 92 l -42,27 c -102,66 -303,89 -428,48 z M 1021,1491 c -16,-12 -25,-31 -28,-64 l -6,-47 h 37 c 34,0 36,-2 36,-32 0,-18 -7,-80 -15,-138 -8,-58 -15,-128 -15,-155 0,-103 65,-165 175,-165 70,0 122,27 165,85 14,19 28,35 33,35 4,0 7,-27 7,-60 v -60 h 89 c 111,0 137,16 143,85 l 3,45 h -43 -42 l 5,38 c 5,36 55,442 55,449 0,2 -36,3 -80,3 -69,0 -80,-2 -80,-17 -2,-77 -50,-385 -65,-416 -28,-60 -97,-84 -159,-56 -46,21 -50,60 -27,257 12,97 23,189 26,205 l 5,27 h -98 c -78,0 -102,-4 -121,-19 z m 730,-5 c -13,-13 -25,-42 -28,-65 l -6,-41 h 42 c 33,0 41,-4 41,-17 -1,-10 -13,-120 -28,-245 l -28,-228 h 98 c 92,0 101,2 123,25 18,18 25,35 25,65 0,39 -1,40 -35,40 -19,0 -35,5 -35,11 0,12 48,420 54,457 3,22 1,22 -99,22 -94,0 -103,-2 -124,-24 z m 353,-82 c -15,-73 -18,-107 -10,-109 6,-2 32,-5 57,-8 l 46,-4 15,46 14,46 92,3 c 51,1 92,0 92,-3 0,-4 -84,-94 -186,-202 -121,-128 -183,-200 -180,-210 3,-8 6,-28 6,-44 v -29 l 257,2 256,3 28,100 c 15,55 26,102 23,104 -2,3 -30,7 -62,9 l -57,4 -16,-43 -16,-44 -102,-3 c -64,-2 -102,1 -99,7 1,5 62,72 133,148 248,263 227,235 220,287 l -7,46 h -242 -242 z m 600,0 c -15,-73 -18,-107 -10,-109 6,-2 32,-5 57,-8 l 46,-4 15,46 14,46 92,3 c 51,1 92,0 92,-3 0,-4 -84,-94 -186,-202 -121,-128 -183,-200 -180,-210 3,-8 6,-28 6,-44 v -29 l 257,2 256,3 28,100 c 15,55 26,102 23,104 -2,3 -30,7 -62,9 l -57,4 -16,-43 -16,-44 -102,-3 c -64,-2 -102,1 -99,7 1,5 62,72 133,148 248,263 227,235 220,287 l -7,46 h -242 -242 z m 786,97 c -147,-45 -248,-231 -220,-403 11,-73 30,-108 80,-150 50,-43 98,-58 186,-58 109,0 213,62 245,148 15,38 8,45 -54,58 l -56,11 -12,-29 c -35,-86 -170,-95 -204,-13 -25,57 -20,73 23,80 104,17 192,40 235,62 132,66 124,229 -15,287 -39,17 -163,20 -208,7 z m 134,-117 c 20,-20 20,-63 1,-92 -20,-27 -185,-75 -185,-54 0,30 36,118 55,138 29,29 104,34 129,8 z m 402,106 c -86,-34 -126,-86 -126,-167 0,-92 44,-131 195,-174 96,-27 117,-42 113,-83 -4,-40 -36,-56 -115,-56 -84,0 -93,4 -86,45 l 5,33 -57,7 c -31,4 -60,4 -64,-1 -14,-15 -42,-147 -34,-154 42,-38 283,-64 368,-40 105,29 165,110 152,205 -4,25 -14,56 -23,70 -20,30 -95,67 -197,96 -84,24 -106,44 -87,79 20,38 94,51 159,29 27,-10 31,-15 31,-48 0,-41 -2,-41 98,-25 l 33,5 -3,77 -3,77 -65,22 c -86,29 -223,31 -294,3 z m 2777,-2 c -12,-13 -24,-42 -28,-65 l -7,-43 h 41 c 48,0 47,11 26,-160 -24,-202 -24,-200 -49,-200 -33,0 -58,-33 -63,-85 l -6,-45 h 155 c 140,0 158,2 181,20 19,15 26,31 29,65 l 3,45 h -57 c -32,0 -58,2 -58,5 0,2 7,53 16,112 25,170 47,199 147,191 l 54,-4 12,84 c 14,96 11,102 -50,102 -46,0 -85,-41 -120,-125 l -24,-58 -7,39 c -4,21 -7,63 -7,92 l -1,52 h -83 c -74,0 -86,-3 -104,-22 z m 597,2 c -72,-38 -137,-132 -159,-230 -13,-58 -14,-175 -1,-221 14,-50 49,-99 89,-126 40,-27 135,-32 180,-9 30,16 101,90 101,106 0,6 5,10 10,10 6,0 10,-28 10,-65 v -65 h 88 c 79,0 91,2 109,23 12,12 24,41 28,65 l 7,42 h -42 -42 l 6,38 c 3,20 13,93 21,162 14,110 30,193 51,268 6,21 4,22 -69,22 h -76 l -11,-42 c -19,-73 -19,-73 -43,-37 -39,58 -81,79 -156,79 -45,-1 -77,-7 -101,-20 z m 199,-125 c 40,-34 55,-83 46,-153 -16,-141 -114,-235 -197,-191 -69,37 -62,267 12,341 38,38 96,39 139,3 z m 1112,121 c -13,-13 -25,-42 -28,-65 l -6,-41 h 42 c 33,0 41,-4 41,-17 -1,-10 -13,-120 -28,-245 l -28,-228 h 98 c 92,0 101,2 123,25 18,18 25,35 25,65 0,39 -1,40 -35,40 -19,0 -35,5 -35,11 0,12 48,420 54,457 3,22 1,22 -99,22 -94,0 -103,-2 -124,-24 z m 355,-1 c -20,-18 -26,-34 -26,-65 v -40 h 41 41 l -6,-37 c -3,-21 -15,-117 -26,-213 -11,-96 -23,-190 -26,-207 l -5,-33 h 81 c 44,0 80,3 80,8 1,62 51,396 64,423 21,44 62,69 115,69 49,0 77,-24 86,-73 5,-27 -17,-264 -39,-404 -3,-23 -1,-23 96,-23 92,0 101,2 123,25 18,18 25,35 25,65 0,39 -1,40 -35,40 -42,0 -42,1 -20,160 19,142 19,207 -3,250 -39,79 -176,107 -258,54 -22,-14 -50,-41 -63,-60 -13,-19 -27,-34 -32,-34 -5,0 -9,27 -9,60 v 60 h -89 c -80,0 -91,-2 -115,-25 z m 857,4 c -110,-54 -178,-201 -171,-368 6,-154 66,-231 180,-231 73,0 122,24 172,81 l 36,43 v -37 c 0,-55 -20,-138 -42,-175 -26,-43 -66,-62 -128,-62 -61,0 -97,18 -129,66 l -24,34 -51,-28 c -60,-32 -63,-52 -18,-116 67,-98 254,-129 380,-64 57,29 112,104 141,192 15,44 81,497 81,552 0,2 10,4 23,4 34,0 64,38 69,88 l 4,42 h -106 -106 l -13,-50 c -7,-27 -16,-50 -19,-50 -4,0 -15,14 -24,30 -9,16 -32,39 -50,50 -46,28 -148,28 -205,-1 z m 187,-114 c 42,-22 60,-63 60,-137 0,-115 -68,-216 -152,-225 -37,-4 -46,-1 -68,22 -23,25 -25,34 -25,128 0,87 4,109 23,150 36,72 97,95 162,62 z M 0,455 v -95 h 5780 5780 v 95 95 H 5780 0 Z"
             transform="matrix(0.025,0,0,-0.025,79,169)"
             id="path512"
             inkscape:connector-curvature="0"
             style="fill:#000000;stroke:none" />
        </g>
      </g>
      <g
         id="shape-1723e7f9-b365-11eb-a19f-b902f2f7b4ee">
        <g
           class="svg-raw"
           id="g521">
          <svg
             viewBox="0 0 32 32"
             x="32"
             y="119"
             width="32"
             height="32"
             preserveAspectRatio="none"
             version="1.1"
             id="svg519">
            <path
               d="M 4,4 V 28 H 28 V 12.187 l -2,2.001 V 26 H 6 V 6 h 19.813 l 2,-2 z M 27.281,7.281 16,18.563 11.719,14.28 l -1.439,1.44 5.001,4.999 0.719,0.687 0.719,-0.686 12,-12.001 z"
               id="path517"
               inkscape:connector-curvature="0" />
          </svg>
        </g>
      </g>
      <g
         id="shape-1723e7fb-b365-11eb-a19f-b902f2f7b4ee"
         style="filter:url(#filter_29f15da0-b37d-11eb-9e3b-2d69cbd459c8)">
        <defs
           id="defs539">
          <filter
             id="filter_29f15da0-b37d-11eb-9e3b-2d69cbd459c8"
             x="40.062504"
             y="148.98341"
             width="393"
             height="239.65385"
             filterUnits="userSpaceOnUse"
             style="color-interpolation-filters:sRGB">
            <feFlood
               flood-opacity="0"
               result="BackgroundImageFix"
               id="feFlood524" />
            <feColorMatrix
               in="SourceAlpha"
               type="matrix"
               values="0 0 0 0 0 0 0 0 0 0 0 0 0 0 0 0 0 0 127 0"
               id="feColorMatrix526" />
            <feOffset
               dx="4"
               dy="4"
               id="feOffset528" />
            <feGaussianBlur
               stdDeviation="3.5"
               id="feGaussianBlur530" />
            <feColorMatrix
               type="matrix"
               values="0 0 0 0 0 0 0 0 0 0 0 0 0 0 0 0 0 0 0.2 0"
               id="feColorMatrix532" />
            <feBlend
               mode="normal"
               in2="BackgroundImageFix"
               result="filter_e9d62510-6850-11eb-859f-87a287cc736d"
               id="feBlend534" />
            <feBlend
               mode="normal"
               in="SourceGraphic"
               in2="filter_e9d62510-6850-11eb-859f-87a287cc736d"
               result="shape"
               id="feBlend536" />
          </filter>
        </defs>
        <rect
           rx="0"
           ry="0"
           x="48"
           y="157"
           transform="translate(4.3899779e-6,3.3940026e-6)"
           width="365"
           height="212"
           style="fill:#fec6b4;fill-opacity:1;stroke:#000000;stroke-width:5;stroke-opacity:1"
           id="rect541" />
      </g>
      <g
         id="shape-1723e7fc-b365-11eb-a19f-b902f2f7b4ee">
        <g
           id="g546">
          <path
             d="m 0,1530 v -100 h 5535 5535 V 715 0 h 95 95 v 815 815 H 5630 0 Z"
             transform="matrix(0.025,0,0,-0.025,86,326)"
             id="path544"
             inkscape:connector-curvature="0"
             style="fill:#000000;stroke:none" />
        </g>
      </g>
      <g
         id="shape-1723e7fd-b365-11eb-a19f-b902f2f7b4ee"
         style="filter:url(#filter_29f24800-b37d-11eb-9e3b-2d69cbd459c8)">
        <defs
           id="defs564">
          <filter
             id="filter_29f24800-b37d-11eb-9e3b-2d69cbd459c8"
             x="73.197372"
             y="219.20032"
             width="393"
             height="239.65385"
             filterUnits="userSpaceOnUse"
             style="color-interpolation-filters:sRGB">
            <feFlood
               flood-opacity="0"
               result="BackgroundImageFix"
               id="feFlood549" />
            <feColorMatrix
               in="SourceAlpha"
               type="matrix"
               values="0 0 0 0 0 0 0 0 0 0 0 0 0 0 0 0 0 0 127 0"
               id="feColorMatrix551" />
            <feOffset
               dx="4"
               dy="4"
               id="feOffset553" />
            <feGaussianBlur
               stdDeviation="3.5"
               id="feGaussianBlur555" />
            <feColorMatrix
               type="matrix"
               values="0 0 0 0 0 0 0 0 0 0 0 0 0 0 0 0 0 0 0.2 0"
               id="feColorMatrix557" />
            <feBlend
               mode="normal"
               in2="BackgroundImageFix"
               result="filter_e0eb4700-6850-11eb-859f-87a287cc736d"
               id="feBlend559" />
            <feBlend
               mode="normal"
               in="SourceGraphic"
               in2="filter_e0eb4700-6850-11eb-859f-87a287cc736d"
               result="shape"
               id="feBlend561" />
          </filter>
        </defs>
        <rect
           rx="0"
           ry="0"
           x="81"
           y="227"
           transform="translate(5.5871931e-6,3.8039727e-6)"
           width="365"
           height="212"
           style="fill:#ffc700;fill-opacity:1;stroke:#000000;stroke-width:5;stroke-opacity:1"
           id="rect566" />
      </g>
      <g
         id="shape-1723e7fe-b365-11eb-a19f-b902f2f7b4ee">
        <g
           id="g571">
          <path
             d="m 8531,1806 c -13,-13 -25,-42 -28,-65 l -6,-41 h 42 c 33,0 41,-4 40,-17 0,-10 -21,-191 -48,-403 l -47,-385 95,-3 c 119,-3 143,10 151,82 l 6,46 h -38 c -30,0 -38,4 -38,18 1,9 22,191 48,405 l 48,387 h -101 c -94,0 -103,-2 -124,-24 z m 439,-35 c 0,-15 -3,-56 -6,-90 l -7,-61 h 76 75 l 7,63 c 3,34 8,74 11,90 l 6,27 h -81 -81 z m -8861,-3 c 0,-7 -3,-43 -8,-80 l -7,-68 h 43 c 28,0 43,-4 43,-12 1,-7 -12,-136 -27,-285 L 126,1050 H 78 c -46,0 -48,-1 -48,-27 0,-16 -3,-52 -6,-80 l -7,-53 h 177 176 v 34 c 0,18 3,54 6,80 l 7,46 h -47 c -25,0 -46,3 -46,8 0,15 51,498 56,530 5,30 7,32 49,32 h 44 l 6,48 c 3,26 7,62 10,80 l 4,32 H 284 c -132,0 -174,-3 -175,-12 z m 1560,1 c 0,-8 -3,-44 -8,-81 l -7,-68 h 43 c 28,0 43,-4 43,-12 1,-7 -12,-136 -27,-285 l -27,-273 h -48 c -46,0 -48,-1 -48,-27 0,-16 -3,-52 -6,-80 l -7,-53 h 192 c 145,0 193,3 195,13 3,6 7,42 10,80 l 7,67 h -67 -67 l 7,38 c 3,20 6,52 6,70 v 32 h 58 c 199,1 334,61 395,174 18,34 22,57 22,141 0,90 -3,104 -27,145 -30,51 -70,84 -131,107 -60,22 -507,33 -508,12 z m 462,-178 c 25,-26 29,-37 29,-86 0,-67 -19,-109 -63,-135 -26,-16 -50,-20 -125,-20 h -94 l 6,38 c 3,20 8,64 11,97 3,33 8,77 11,98 l 6,37 h 95 c 91,0 96,-1 124,-29 z m 3855,174 c -125,-44 -191,-209 -148,-373 l 19,-73 -57,-30 c -102,-54 -140,-107 -140,-191 1,-91 68,-173 164,-199 65,-18 182,-7 257,24 l 66,27 59,-27 c 71,-33 194,-43 259,-21 43,15 44,17 30,113 l -6,40 h -83 c -47,0 -88,3 -92,7 -4,4 20,37 54,72 33,36 68,78 78,95 16,27 24,31 61,31 47,0 44,-5 57,113 l 6,47 h -165 -165 v -27 c 0,-16 -3,-52 -6,-80 l -7,-53 h 32 c 29,0 32,-2 26,-22 -9,-29 -52,-105 -65,-113 -20,-13 -170,154 -170,190 0,8 37,33 82,57 103,54 172,118 187,174 24,92 -21,181 -111,219 -46,19 -169,19 -222,0 z m 162,-138 c 27,-57 -7,-134 -87,-195 -52,-39 -59,-34 -68,53 -12,116 24,179 100,173 35,-2 44,-8 55,-31 z m -224,-435 c 19,-32 53,-79 76,-104 22,-25 40,-49 40,-52 0,-3 -33,-6 -72,-6 -115,0 -162,43 -143,130 6,26 49,90 60,90 2,0 19,-26 39,-58 z m 1251,571 c -285,-102 -419,-436 -278,-695 37,-68 108,-131 176,-157 76,-28 209,-29 295,-3 147,46 266,170 314,325 30,98 23,248 -14,330 -36,76 -115,159 -181,188 -72,32 -238,38 -312,12 z m 236,-156 c 29,-16 54,-40 74,-72 29,-46 30,-53 30,-164 0,-106 -2,-121 -28,-176 -54,-114 -114,-154 -235,-155 -114,0 -159,28 -204,125 -19,41 -23,67 -23,145 0,81 4,103 26,150 34,72 84,128 134,151 60,28 169,26 226,-4 z M 506,1485 c -20,-18 -26,-34 -26,-65 v -40 h 41 41 l -6,-37 c -3,-21 -15,-117 -26,-213 -11,-96 -23,-190 -26,-207 l -5,-33 h 81 c 44,0 80,3 80,8 1,62 51,396 64,423 21,44 62,69 115,69 49,0 77,-24 86,-73 5,-27 -17,-264 -39,-404 -3,-23 -1,-23 96,-23 92,0 101,2 123,25 18,18 25,35 25,65 0,39 -1,40 -35,40 -42,0 -42,1 -20,160 19,142 19,207 -3,250 -39,79 -176,107 -258,54 -22,-14 -50,-41 -63,-60 -13,-19 -27,-34 -32,-34 -5,0 -9,27 -9,60 v 60 h -89 c -80,0 -91,-2 -115,-25 z m 2104,16 c -147,-45 -248,-231 -220,-403 11,-73 30,-108 80,-150 50,-43 98,-58 186,-58 109,0 213,62 245,148 15,38 8,45 -54,58 l -56,11 -12,-29 c -35,-86 -170,-95 -204,-13 -25,57 -20,73 23,80 104,17 192,40 235,62 132,66 124,229 -15,287 -39,17 -163,20 -208,7 z m 134,-117 c 20,-20 20,-63 1,-92 -20,-27 -185,-75 -185,-54 0,30 36,118 55,138 29,29 104,34 129,8 z m 299,104 c -12,-13 -24,-42 -28,-65 l -7,-43 h 41 c 48,0 47,11 26,-160 -24,-202 -24,-200 -49,-200 -33,0 -58,-33 -63,-85 l -6,-45 h 155 c 140,0 158,2 181,20 19,15 26,31 29,65 l 3,45 h -57 c -32,0 -58,2 -58,5 0,2 7,53 16,112 25,170 47,199 147,191 l 54,-4 12,84 c 14,96 11,102 -50,102 -46,0 -85,-41 -120,-125 l -24,-58 -7,39 c -4,21 -7,63 -7,92 l -1,52 h -83 c -74,0 -86,-3 -104,-22 z m 583,2 c -86,-34 -126,-86 -126,-167 0,-92 44,-131 195,-174 96,-27 117,-42 113,-83 -4,-40 -36,-56 -115,-56 -84,0 -93,4 -86,45 l 5,33 -57,7 c -31,4 -60,4 -64,-1 -14,-15 -42,-147 -34,-154 42,-38 283,-64 368,-40 105,29 165,110 152,205 -4,25 -14,56 -23,70 -20,30 -95,67 -197,96 -84,24 -106,44 -87,79 20,38 94,51 159,29 27,-10 31,-15 31,-48 0,-41 -2,-41 98,-25 l 33,5 -3,77 -3,77 -65,22 c -86,29 -223,31 -294,3 z m 635,3 c -127,-45 -220,-239 -190,-399 14,-75 28,-102 77,-146 54,-49 98,-61 201,-56 72,3 95,9 140,33 65,36 123,105 147,177 21,64 24,176 5,240 -17,59 -72,125 -125,149 -52,24 -191,25 -255,2 z m 168,-117 c 66,-35 79,-188 24,-303 -19,-41 -58,-63 -113,-63 -50,0 -86,31 -96,85 -11,58 1,186 21,228 29,62 101,85 164,53 z m 317,109 c -20,-18 -26,-34 -26,-65 v -40 h 41 41 l -6,-37 c -3,-21 -15,-117 -26,-213 -11,-96 -23,-190 -26,-207 l -5,-33 h 81 c 44,0 80,3 80,8 1,62 51,396 64,423 21,44 62,69 115,69 49,0 77,-24 86,-73 5,-27 -17,-264 -39,-404 -3,-23 -1,-23 96,-23 92,0 101,2 123,25 18,18 25,35 25,65 0,39 -1,40 -35,40 -42,0 -42,1 -20,160 19,142 19,207 -3,250 -39,79 -176,107 -258,54 -22,-14 -50,-41 -63,-60 -13,-19 -27,-34 -32,-34 -5,0 -9,27 -9,60 v 60 h -89 c -80,0 -91,-2 -115,-25 z m 3040,0 c -20,-18 -26,-34 -26,-65 v -40 h 41 41 l -6,-37 c -3,-21 -15,-117 -26,-213 -11,-96 -23,-190 -26,-207 l -5,-33 h 81 c 44,0 80,3 80,8 1,62 51,396 64,423 21,44 62,69 115,69 49,0 77,-24 86,-73 5,-27 -17,-264 -39,-404 -3,-23 -1,-23 96,-23 92,0 101,2 123,25 18,18 25,35 25,65 0,39 -1,40 -35,40 -42,0 -42,1 -20,160 19,142 19,207 -3,250 -39,79 -176,107 -258,54 -22,-14 -50,-41 -63,-60 -13,-19 -27,-34 -32,-34 -5,0 -9,27 -9,60 v 60 h -89 c -80,0 -91,-2 -115,-25 z m 1085,1 c -13,-13 -25,-42 -28,-65 l -6,-41 h 42 c 33,0 41,-4 41,-17 -1,-10 -13,-120 -28,-245 l -28,-228 h 98 c 92,0 101,2 123,25 18,18 25,35 25,65 0,39 -1,40 -35,40 -19,0 -35,5 -35,11 0,12 48,420 54,457 3,22 1,22 -99,22 -94,0 -103,-2 -124,-24 z m 355,-1 c -20,-18 -26,-34 -26,-65 v -40 h 41 41 l -6,-37 c -3,-21 -15,-117 -26,-213 -11,-96 -23,-190 -26,-207 l -5,-33 h 81 c 44,0 80,3 80,8 1,62 51,396 64,423 21,44 62,69 115,69 49,0 77,-24 86,-73 5,-27 -17,-264 -39,-404 -3,-23 -1,-23 96,-23 92,0 101,2 123,25 18,18 25,35 25,65 0,39 -1,40 -35,40 -42,0 -42,1 -20,160 19,142 19,207 -3,250 -39,79 -176,107 -258,54 -22,-14 -50,-41 -63,-60 -13,-19 -27,-34 -32,-34 -5,0 -9,27 -9,60 v 60 h -89 c -80,0 -91,-2 -115,-25 z m 904,16 c -147,-45 -248,-231 -220,-403 11,-73 30,-108 80,-150 50,-43 98,-58 186,-58 109,0 213,62 245,148 15,38 8,45 -54,58 l -56,11 -12,-29 c -35,-86 -170,-95 -204,-13 -25,57 -20,73 23,80 104,17 192,40 235,62 132,66 124,229 -15,287 -39,17 -163,20 -208,7 z m 134,-117 c 20,-20 20,-63 1,-92 -20,-27 -185,-75 -185,-54 0,30 36,118 55,138 29,29 104,34 129,8 z M 1216,1238 c -12,-108 -28,-98 149,-98 h 155 v 38 c 0,20 3,54 6,75 l 7,37 H 1378 1223 Z M 0,55 V 0 h 4510 4510 v 55 55 H 4510 0 Z"
             transform="matrix(0.025,0,0,-0.025,142,288)"
             id="path569"
             inkscape:connector-curvature="0"
             style="fill:#000000;stroke:none" />
        </g>
      </g>
      <g
         id="shape-1723e7ff-b365-11eb-a19f-b902f2f7b4ee">
        <g
           id="g576">
          <path
             d="m 2403,1808 c -11,-13 -23,-42 -26,-65 l -5,-43 h 39 c 21,0 39,-2 39,-5 0,-11 -90,-752 -95,-777 l -4,-28 h 78 79 l 5,33 c 3,17 11,76 18,130 l 11,97 h 32 c 30,0 34,-6 97,-128 l 66,-127 64,-2 c 81,-3 106,15 115,81 l 7,45 -48,3 -47,3 -50,92 -49,92 64,63 c 67,67 106,133 114,198 l 6,40 h -82 c -77,0 -81,-1 -81,-22 -1,-32 -43,-132 -76,-179 -24,-35 -31,-39 -70,-39 -39,0 -44,3 -44,23 0,12 14,128 30,257 16,129 30,245 30,258 0,21 -3,22 -98,22 -89,0 -100,-2 -119,-22 z m 1807,-37 c 0,-15 -3,-56 -6,-90 l -7,-61 h 76 75 l 7,63 c 3,34 8,74 11,90 l 6,27 h -81 -81 z M 96,1758 c -3,-13 -8,-49 -11,-80 l -6,-58 h 50 c 42,0 51,-3 51,-17 1,-10 -12,-138 -27,-285 L 126,1050 H 78 c -46,0 -48,-1 -48,-27 0,-16 -3,-52 -6,-80 l -7,-53 h 161 161 l 5,33 c 3,17 7,53 10,80 l 6,47 h -40 c -22,0 -40,3 -40,8 -1,34 34,339 40,345 4,5 51,-91 105,-213 l 99,-221 34,3 c 34,3 40,10 159,198 68,107 128,202 133,210 19,32 20,-4 3,-163 l -17,-167 h -38 c -23,0 -38,-5 -39,-12 0,-7 -3,-43 -8,-80 l -7,-68 h 168 168 v 34 c 0,18 3,54 6,80 l 7,46 h -47 c -25,0 -46,1 -46,3 0,1 14,128 30,282 16,154 30,281 30,283 0,1 23,2 50,2 57,0 56,-2 64,93 l 7,68 -123,-3 -122,-3 -170,-277 c -94,-153 -173,-278 -177,-278 -3,0 -61,126 -129,280 L 336,1780 H 218 c -114,0 -118,-1 -122,-22 z m 6330,7 c -125,-44 -191,-209 -148,-373 l 19,-73 -57,-30 c -102,-54 -140,-107 -140,-191 1,-91 68,-173 164,-199 65,-18 182,-7 257,24 l 66,27 59,-27 c 71,-33 194,-43 259,-21 43,15 44,17 30,113 l -6,40 h -83 c -47,0 -88,3 -92,7 -4,4 20,37 54,72 33,36 68,78 78,95 16,27 24,31 61,31 47,0 44,-5 57,113 l 6,47 h -165 -165 v -27 c 0,-16 -3,-52 -6,-80 l -7,-53 h 32 c 29,0 32,-2 26,-22 -9,-29 -52,-105 -65,-113 -20,-13 -170,154 -170,190 0,8 37,33 82,57 103,54 172,118 187,174 24,92 -21,181 -111,219 -46,19 -169,19 -222,0 z m 162,-138 c 27,-57 -7,-134 -87,-195 -52,-39 -59,-34 -68,53 -12,116 24,179 100,173 35,-2 44,-8 55,-31 z m -224,-435 c 19,-32 53,-79 76,-104 22,-25 40,-49 40,-52 0,-3 -33,-6 -72,-6 -115,0 -162,43 -143,130 6,26 49,90 60,90 2,0 19,-26 39,-58 z m 1251,574 c -181,-57 -292,-201 -326,-419 -27,-176 56,-354 200,-424 52,-26 65,-28 181,-28 136,0 218,19 291,69 33,23 36,30 53,120 10,54 17,99 15,101 -2,2 -32,7 -66,10 l -62,7 -10,-38 c -5,-22 -13,-51 -16,-66 -10,-39 -66,-58 -171,-58 -99,0 -137,13 -181,63 -44,50 -57,98 -57,202 -1,163 56,267 166,310 60,22 196,18 249,-8 34,-17 37,-22 42,-74 3,-30 8,-57 11,-60 3,-3 32,-2 65,2 l 61,7 v 103 103 l -47,30 c -78,49 -131,62 -251,61 -59,0 -125,-6 -147,-13 z m 560,-33 c -3,-27 -7,-63 -10,-80 l -4,-33 h 54 54 l -5,-32 c -6,-44 -54,-509 -54,-525 0,-9 -16,-13 -45,-13 -52,0 -51,1 -59,-92 l -7,-68 h 160 c 88,0 162,3 164,8 2,4 8,40 11,80 l 7,72 h -42 c -41,0 -41,0 -36,33 3,17 11,91 18,162 6,72 15,139 19,150 8,22 5,28 136,-267 l 69,-157 h 35 c 35,0 36,2 160,200 69,110 131,205 139,212 15,13 15,2 -11,-230 l -11,-103 h -37 -37 l -7,-61 c -11,-110 -28,-99 158,-99 h 163 l 7,53 c 12,105 12,107 -38,107 -45,0 -45,0 -40,33 6,47 54,506 54,523 0,10 14,14 55,14 53,0 55,1 55,28 0,15 3,51 6,80 l 7,52 h -121 -120 l -173,-280 c -95,-153 -175,-277 -179,-275 -4,3 -62,128 -130,280 l -122,275 h -119 -118 z m 1348,29 c -141,-46 -210,-154 -189,-297 5,-33 18,-58 42,-85 42,-47 79,-65 186,-91 147,-35 168,-51 168,-126 0,-62 -15,-92 -55,-108 -41,-18 -159,-20 -205,-4 -32,12 -32,12 -28,70 l 4,59 h -37 c -20,0 -49,3 -65,6 l -29,6 -24,-108 -24,-108 22,-17 c 49,-40 132,-62 252,-67 136,-5 203,10 271,61 94,70 130,228 76,335 -32,65 -82,95 -223,136 -82,24 -125,42 -137,56 -26,32 -23,83 6,117 21,25 31,28 101,31 58,3 86,0 116,-13 38,-18 39,-19 39,-69 v -51 l 60,3 c 73,5 78,11 81,117 2,76 1,79 -27,102 -73,59 -267,82 -381,45 z m -5796,-90 c -20,-21 -28,-42 -34,-92 -7,-57 -11,-65 -30,-68 -34,-5 -73,-58 -73,-98 0,-33 1,-34 40,-34 38,0 39,-1 35,-27 -10,-56 -35,-282 -35,-315 0,-51 31,-99 81,-126 61,-33 177,-29 228,7 36,26 100,146 85,160 -5,5 -30,15 -55,24 l -46,15 -12,-39 c -13,-42 -43,-69 -78,-69 -43,0 -47,33 -27,207 l 19,158 70,3 c 60,3 74,7 97,29 21,20 28,36 28,65 v 38 h -91 c -89,0 -91,0 -86,23 3,12 9,55 13,95 l 7,72 h -55 c -46,0 -58,-4 -81,-28 z M 1320,1490 c -72,-38 -137,-132 -159,-230 -13,-58 -14,-175 -1,-221 14,-50 49,-99 89,-126 40,-27 135,-32 180,-9 30,16 101,90 101,106 0,6 5,10 10,10 6,0 10,-28 10,-65 v -65 h 88 c 79,0 91,2 109,23 12,12 24,41 28,65 l 7,42 h -42 -42 l 6,38 c 3,20 13,93 21,162 14,110 30,193 51,268 6,21 4,22 -69,22 h -76 l -11,-42 c -19,-73 -19,-73 -43,-37 -39,58 -81,79 -156,79 -45,-1 -77,-7 -101,-20 z m 199,-125 c 40,-34 55,-83 46,-153 -16,-141 -114,-235 -197,-191 -69,37 -62,267 12,341 38,38 96,39 139,3 z m 404,123 c -12,-13 -24,-42 -28,-65 l -7,-43 h 41 c 48,0 47,11 26,-160 -24,-202 -24,-200 -49,-200 -33,0 -58,-33 -63,-85 l -6,-45 h 155 c 140,0 158,2 181,20 19,15 26,31 29,65 l 3,45 h -57 c -32,0 -58,2 -58,5 0,2 7,53 16,112 25,170 47,199 147,191 l 54,-4 12,84 c 14,96 11,102 -50,102 -46,0 -85,-41 -120,-125 l -24,-58 -7,39 c -4,21 -7,63 -7,92 l -1,52 h -83 c -74,0 -86,-3 -104,-22 z m 1287,13 c -147,-45 -248,-231 -220,-403 11,-73 30,-108 80,-150 50,-43 98,-58 186,-58 109,0 213,62 245,148 15,38 8,45 -54,58 l -56,11 -12,-29 c -35,-86 -170,-95 -204,-13 -25,57 -20,73 23,80 104,17 192,40 235,62 132,66 124,229 -15,287 -39,17 -163,20 -208,7 z m 134,-117 c 20,-20 20,-63 1,-92 -20,-27 -185,-75 -185,-54 0,30 36,118 55,138 29,29 104,34 129,8 z m 767,102 c -13,-13 -25,-42 -28,-65 l -6,-41 h 42 c 33,0 41,-4 41,-17 -1,-10 -13,-120 -28,-245 l -28,-228 h 98 c 92,0 101,2 123,25 18,18 25,35 25,65 0,39 -1,40 -35,40 -19,0 -35,5 -35,11 0,12 48,420 54,457 3,22 1,22 -99,22 -94,0 -103,-2 -124,-24 z m 355,-1 c -20,-18 -26,-34 -26,-65 v -40 h 41 41 l -6,-37 c -3,-21 -15,-117 -26,-213 -11,-96 -23,-190 -26,-207 l -5,-33 h 81 c 44,0 80,3 80,8 1,62 51,396 64,423 21,44 62,69 115,69 49,0 77,-24 86,-73 5,-27 -17,-264 -39,-404 -3,-23 -1,-23 96,-23 92,0 101,2 123,25 18,18 25,35 25,65 0,39 -1,40 -35,40 -42,0 -42,1 -20,160 19,142 19,207 -3,250 -39,79 -176,107 -258,54 -22,-14 -50,-41 -63,-60 -13,-19 -27,-34 -32,-34 -5,0 -9,27 -9,60 v 60 h -89 c -80,0 -91,-2 -115,-25 z m 857,4 c -110,-54 -178,-201 -171,-368 6,-154 66,-231 180,-231 73,0 122,24 172,81 l 36,43 v -37 c 0,-55 -20,-138 -42,-175 -26,-43 -66,-62 -128,-62 -61,0 -97,18 -129,66 l -24,34 -51,-28 c -42,-23 -51,-32 -48,-52 4,-42 54,-102 107,-129 43,-23 62,-26 150,-26 88,0 107,3 150,26 60,31 115,104 144,193 15,44 81,497 81,552 0,2 10,4 23,4 34,0 64,38 69,88 l 4,42 h -106 -106 l -13,-50 c -7,-27 -16,-50 -19,-50 -4,0 -15,14 -24,30 -9,16 -32,39 -50,50 -46,28 -148,28 -205,-1 z m 187,-114 c 42,-22 60,-63 60,-137 0,-115 -68,-216 -152,-225 -37,-4 -46,-1 -68,22 -23,25 -25,34 -25,128 0,87 4,109 23,150 36,72 97,95 162,62 z"
             transform="matrix(0.025,0,0,-0.025,113,218)"
             id="path574"
             inkscape:connector-curvature="0"
             style="fill:#000000;stroke:none" />
        </g>
      </g>
      <g
         id="shape-1723e800-b365-11eb-a19f-b902f2f7b4ee">
        <g
           class="svg-raw"
           transform="translate(0,1.6913551e-6)"
           id="g583">
          <svg
             viewBox="0 0 32 32"
             x="95"
             y="238"
             width="32"
             height="32"
             preserveAspectRatio="none"
             version="1.1"
             id="svg581">
            <path
               d="M 4,4 V 28 H 28 V 12.187 l -2,2.001 V 26 H 6 V 6 h 19.813 l 2,-2 z M 27.281,7.281 16,18.563 11.719,14.28 l -1.439,1.44 5.001,4.999 0.719,0.687 0.719,-0.686 12,-12.001 z"
               id="path579"
               inkscape:connector-curvature="0" />
          </svg>
        </g>
      </g>
      <g
         id="shape-1723e802-b365-11eb-a19f-b902f2f7b4ee">
        <g
           id="g588">
          <path
             d="m 0,2140 c 0,-20 7,-20 6175,-20 h 6175 V 1060 0 h 95 95 V 1080 2160 H 6270 C 7,2160 0,2160 0,2140 Z m 4191,-324 c -13,-13 -25,-42 -28,-65 l -6,-41 h 57 c 57,0 58,0 52,-27 -3,-16 -10,-76 -17,-135 -7,-60 -15,-108 -19,-108 -4,0 -15,11 -23,24 -36,55 -161,74 -242,37 -156,-70 -232,-371 -135,-525 40,-62 76,-79 160,-74 76,4 119,29 169,99 16,21 31,35 35,32 3,-3 6,-35 6,-70 v -63 h 83 c 103,1 127,15 134,83 l 6,47 h -37 c -32,0 -36,3 -36,25 0,14 20,190 45,391 25,201 45,372 45,380 0,11 -21,14 -113,14 -107,0 -115,-1 -136,-24 z m -40,-433 c 39,-23 59,-70 59,-140 -1,-134 -98,-243 -196,-219 -84,21 -69,303 20,357 38,23 79,24 117,2 z m 3892,435 c -11,-13 -23,-42 -26,-65 l -5,-43 h 39 c 21,0 39,-2 39,-5 0,-11 -90,-752 -95,-777 l -4,-28 h 78 79 l 6,38 c 3,20 15,110 25,199 26,210 46,250 135,260 59,7 93,-14 102,-63 4,-21 -3,-115 -15,-218 -12,-99 -21,-189 -21,-198 0,-16 11,-18 94,-18 116,0 142,15 148,85 l 3,45 h -37 c -44,0 -43,-11 -23,145 22,174 20,235 -7,275 -32,46 -82,70 -146,70 -69,0 -109,-18 -155,-69 -21,-24 -40,-41 -41,-39 -2,1 7,86 20,188 13,102 23,197 24,213 v 27 h -98 c -89,0 -100,-2 -119,-22 z M 890,1781 c 0,-15 -3,-56 -6,-90 l -7,-61 h 76 75 l 7,63 c 3,34 8,74 11,90 l 6,27 h -81 -81 z m 2680,0 c 0,-15 -3,-56 -6,-90 l -7,-61 h 76 75 l 7,63 c 3,34 8,74 11,90 l 6,27 h -81 -81 z M 106,1768 c -3,-13 -7,-49 -10,-80 l -6,-58 h 45 c 29,0 45,-4 45,-12 1,-7 -12,-136 -27,-285 L 126,1060 H 79 33 l -7,-46 c -3,-26 -6,-62 -6,-80 v -34 h 315 c 173,0 315,1 315,3 0,1 13,70 29,152 16,83 27,152 25,155 -3,2 -33,6 -68,8 -63,4 -63,4 -70,-24 -4,-16 -14,-53 -22,-81 l -15,-53 H 410 c -66,0 -120,1 -120,3 0,1 14,128 30,282 16,154 30,281 30,283 0,1 27,2 60,2 69,0 66,-3 74,93 l 7,67 H 300 c -189,0 -190,0 -194,-22 z m 2514,-12 c 0,-18 -3,-54 -6,-80 l -7,-46 h 41 41 l 34,-107 c 18,-60 69,-224 112,-365 l 79,-258 h 56 l 55,1 186,362 185,362 41,3 c 40,3 41,4 47,49 3,25 6,61 6,79 v 34 h -159 -158 l -7,-52 c -12,-103 -10,-108 29,-108 19,0 35,-2 35,-4 0,-6 -211,-449 -216,-455 -9,-10 -17,16 -78,230 l -63,224 39,3 c 31,3 38,7 39,25 0,12 4,48 8,80 l 7,57 h -173 -173 z m 3686,19 c -125,-44 -191,-209 -148,-373 l 19,-73 -57,-30 c -102,-54 -140,-107 -140,-191 1,-91 68,-173 164,-199 65,-18 182,-7 257,24 l 66,27 59,-27 c 71,-33 194,-43 259,-21 43,15 44,17 30,113 l -6,40 h -83 c -47,0 -88,3 -92,7 -4,4 20,37 54,72 33,36 68,78 78,95 16,27 24,31 61,31 47,0 44,-5 57,113 l 6,47 h -165 -165 v -27 c 0,-16 -3,-52 -6,-80 l -7,-53 h 32 c 29,0 32,-2 26,-22 -9,-29 -52,-105 -65,-113 -20,-13 -170,154 -170,190 0,8 37,33 82,57 103,54 172,118 187,174 24,92 -21,181 -111,219 -46,19 -169,19 -222,0 z m 162,-138 c 27,-57 -7,-134 -87,-195 -52,-39 -59,-34 -68,53 -12,116 24,179 100,173 35,-2 44,-8 55,-31 z m -224,-435 c 19,-32 53,-79 76,-104 22,-25 40,-49 40,-52 0,-3 -33,-6 -72,-6 -115,0 -162,43 -143,130 6,26 49,90 60,90 2,0 19,-26 39,-58 z m 1251,574 c -181,-57 -292,-201 -326,-419 -27,-176 56,-354 200,-424 52,-26 65,-28 181,-28 136,0 218,19 291,69 33,23 36,30 53,120 10,54 17,99 15,101 -2,2 -32,7 -66,10 l -62,7 -10,-38 c -5,-22 -13,-51 -16,-66 -10,-39 -66,-58 -171,-58 -99,0 -137,13 -181,63 -44,50 -57,98 -57,202 -1,163 56,267 166,310 60,22 196,18 249,-8 34,-17 37,-22 42,-74 3,-30 8,-57 11,-60 3,-3 32,-2 65,2 l 61,7 v 103 103 l -47,30 c -78,49 -131,62 -251,61 -59,0 -125,-6 -147,-13 z m 2072,-94 c -20,-21 -28,-42 -34,-92 -7,-57 -11,-65 -30,-68 -34,-5 -73,-58 -73,-98 0,-33 1,-34 40,-34 38,0 39,-1 35,-27 -10,-56 -35,-282 -35,-315 0,-51 31,-99 81,-126 61,-33 177,-29 228,7 36,26 100,146 85,160 -5,5 -30,15 -55,24 l -46,15 -12,-39 c -13,-42 -43,-69 -78,-69 -43,0 -47,33 -27,207 l 19,158 70,3 c 60,3 74,7 97,29 21,20 28,36 28,65 v 38 h -91 c -89,0 -91,0 -86,23 3,12 9,55 13,95 l 7,72 h -55 c -46,0 -58,-4 -81,-28 z M 791,1496 c -13,-13 -25,-42 -28,-65 l -6,-41 h 42 c 33,0 41,-4 41,-17 -1,-10 -13,-120 -28,-245 L 784,900 h 98 c 92,0 101,2 123,25 18,18 25,35 25,65 0,39 -1,40 -35,40 -19,0 -35,5 -35,11 0,12 48,420 54,457 3,22 1,22 -99,22 -94,0 -103,-2 -124,-24 z m 336,-1 c -21,-20 -27,-35 -27,-65 0,-37 2,-40 29,-40 h 29 l 82,-245 82,-245 h 32 c 28,0 44,13 125,103 118,133 168,199 198,263 30,66 46,156 38,211 l -6,43 h -89 -88 l 14,-47 c 19,-63 18,-109 -6,-184 -20,-65 -92,-189 -109,-189 -8,0 -101,260 -101,283 0,4 8,7 18,7 32,1 59,34 66,83 l 7,47 h -133 c -129,0 -134,-1 -161,-25 z m 843,16 c -147,-45 -248,-231 -220,-403 11,-73 30,-108 80,-150 50,-43 98,-58 186,-58 109,0 213,62 245,148 15,38 8,45 -54,58 l -56,11 -12,-29 c -35,-86 -170,-95 -204,-13 -25,57 -20,73 23,80 104,17 192,40 235,62 132,66 124,229 -15,287 -39,17 -163,20 -208,7 z m 134,-117 c 20,-20 20,-63 1,-92 -20,-27 -185,-75 -185,-54 0,30 36,118 55,138 29,29 104,34 129,8 z m 1367,102 c -13,-13 -25,-42 -28,-65 l -6,-41 h 42 c 33,0 41,-4 41,-17 -1,-10 -13,-120 -28,-245 l -28,-228 h 98 c 92,0 101,2 123,25 18,18 25,35 25,65 0,39 -1,40 -35,40 -19,0 -35,5 -35,11 0,12 48,420 54,457 3,22 1,22 -99,22 -94,0 -103,-2 -124,-24 z m 1259,15 c -147,-45 -248,-231 -220,-403 11,-73 30,-108 80,-150 50,-43 98,-58 186,-58 109,0 213,62 245,148 15,38 8,45 -54,58 l -56,11 -12,-29 c -35,-86 -170,-95 -204,-13 -25,57 -20,73 23,80 104,17 192,40 235,62 132,66 124,229 -15,287 -39,17 -163,20 -208,7 z m 134,-117 c 20,-20 20,-63 1,-92 -20,-27 -185,-75 -185,-54 0,30 36,118 55,138 29,29 104,34 129,8 z m 437,109 c -127,-45 -220,-239 -190,-399 14,-75 28,-102 77,-146 54,-49 98,-61 201,-56 72,3 95,9 140,33 65,36 123,105 147,177 21,64 24,176 5,240 -17,59 -72,125 -125,149 -52,24 -191,25 -255,2 z m 168,-117 c 66,-35 79,-188 24,-303 -19,-41 -58,-63 -113,-63 -50,0 -86,31 -96,85 -11,58 1,186 21,228 29,62 101,85 164,53 z m 3411,114 c -72,-38 -137,-132 -159,-230 -13,-58 -14,-175 -1,-221 14,-50 49,-99 89,-126 40,-27 135,-32 180,-9 30,16 101,90 101,106 0,6 5,10 10,10 6,0 10,-28 10,-65 v -65 h 88 c 79,0 91,2 109,23 12,12 24,41 28,65 l 7,42 h -42 -42 l 6,38 c 3,20 13,93 21,162 14,110 30,193 51,268 6,21 4,22 -69,22 h -76 l -11,-42 c -19,-73 -19,-73 -43,-37 -39,58 -81,79 -156,79 -45,-1 -77,-7 -101,-20 z m 199,-125 c 40,-34 55,-83 46,-153 -16,-141 -114,-235 -197,-191 -69,37 -62,267 12,341 38,38 96,39 139,3 z M 0,75 V 0 h 5590 5590 v 75 75 H 5590 0 Z"
             transform="matrix(0.025,0,0,-0.025,144,56)"
             id="path586"
             inkscape:connector-curvature="0"
             style="fill:#000000;stroke:none" />
        </g>
      </g>
      <g
         id="shape-1723e803-b365-11eb-a19f-b902f2f7b4ee">
        <g
           class="svg-raw"
           transform="translate(0,1.2243165e-6)"
           id="g595">
          <svg
             viewBox="0 0 32 32"
             x="64"
             y="168"
             width="32"
             height="32"
             preserveAspectRatio="none"
             version="1.1"
             id="svg593">
            <path
               d="M 4,4 V 28 H 28 V 12.187 l -2,2.001 V 26 H 6 V 6 h 19.813 l 2,-2 z M 27.281,7.281 16,18.563 11.719,14.28 l -1.439,1.44 5.001,4.999 0.719,0.687 0.719,-0.686 12,-12.001 z"
               id="path591"
               inkscape:connector-curvature="0" />
          </svg>
        </g>
      </g>
      <g
         id="shape-17240f03-b365-11eb-a19f-b902f2f7b4ee"
         style="filter:url(#filter_29f41cc0-b37d-11eb-9e3b-2d69cbd459c8)">
        <defs
           id="defs613">
          <filter
             id="filter_29f41cc0-b37d-11eb-9e3b-2d69cbd459c8"
             x="-7.9375019"
             y="279.38626"
             width="393"
             height="239.65385"
             filterUnits="userSpaceOnUse"
             style="color-interpolation-filters:sRGB">
            <feFlood
               flood-opacity="0"
               result="BackgroundImageFix"
               id="feFlood598" />
            <feColorMatrix
               in="SourceAlpha"
               type="matrix"
               values="0 0 0 0 0 0 0 0 0 0 0 0 0 0 0 0 0 0 127 0"
               id="feColorMatrix600" />
            <feOffset
               dx="4"
               dy="4"
               id="feOffset602" />
            <feGaussianBlur
               stdDeviation="3.5"
               id="feGaussianBlur604" />
            <feColorMatrix
               type="matrix"
               values="0 0 0 0 0 0 0 0 0 0 0 0 0 0 0 0 0 0 0.2 0"
               id="feColorMatrix606" />
            <feBlend
               mode="normal"
               in2="BackgroundImageFix"
               result="filter_d19298d0-6850-11eb-859f-87a287cc736d"
               id="feBlend608" />
            <feBlend
               mode="normal"
               in="SourceGraphic"
               in2="filter_d19298d0-6850-11eb-859f-87a287cc736d"
               result="shape"
               id="feBlend610" />
          </filter>
        </defs>
        <rect
           rx="0"
           ry="0"
           x="0"
           y="287"
           transform="translate(-1.5593025e-7,5.4299281e-6)"
           width="365"
           height="212"
           style="fill:#db353f;fill-opacity:1;stroke:#000000;stroke-width:5;stroke-opacity:1"
           id="rect615" />
      </g>
      <g
         id="shape-17240f09-b365-11eb-a19f-b902f2f7b4ee">
        <g
           id="g622">
          <path
             d="M 0,10 C 0,3 2047,0 6120,0 c 4073,0 6120,3 6120,10 0,7 -2047,10 -6120,10 C 2047,20 0,17 0,10 Z"
             transform="matrix(0.025,0,0,-0.025,51,498)"
             id="path618"
             inkscape:connector-curvature="0"
             style="fill:#000000;stroke:none" />
          <path
             d="m 9211,7886 c -13,-13 -25,-42 -28,-65 l -6,-41 h 42 c 33,0 41,-4 40,-17 0,-10 -21,-191 -48,-403 l -47,-385 95,-3 c 119,-3 143,10 151,82 l 6,46 h -38 c -30,0 -38,4 -38,18 1,9 22,191 48,405 l 48,387 h -101 c -94,0 -103,-2 -124,-24 z m -1721,-35 c 0,-15 -3,-56 -6,-90 l -7,-61 h 76 75 l 7,63 c 3,34 8,74 11,90 l 6,27 h -81 -81 z m -7384,-3 c -3,-7 -7,-43 -10,-80 l -7,-68 h 46 c 25,0 45,-3 45,-7 1,-17 -51,-520 -56,-540 -4,-20 -11,-23 -48,-23 H 33 l -7,-46 c -3,-26 -6,-62 -6,-80 v -34 h 194 193 l 7,46 c 3,26 6,62 6,80 v 34 h -65 c -74,0 -71,-6 -59,109 l 7,61 h 178 178 l 5,43 c 3,23 7,57 9,75 l 4,32 H 498 c -136,0 -178,3 -177,13 0,6 6,62 12,122 l 12,110 121,3 122,3 7,-67 c 6,-61 8,-65 28,-60 12,3 43,6 70,6 h 47 v 140 140 H 425 c -244,0 -317,-3 -319,-12 z m 760,-10 c -3,-13 -7,-49 -10,-80 l -6,-58 h 45 c 25,0 45,-3 45,-7 1,-17 -51,-520 -56,-540 -4,-20 -11,-23 -48,-23 h -43 l -7,-46 c -3,-26 -6,-62 -6,-80 v -34 h 170 169 l 5,33 c 3,17 8,53 11,80 l 6,47 h -45 c -56,0 -55,-26 -18,315 l 27,250 46,3 46,3 7,46 c 3,25 6,61 6,79 v 34 h -170 c -168,0 -170,0 -174,-22 z m 470,0 c -3,-13 -8,-49 -11,-80 l -6,-58 h 53 54 l -12,-112 c -6,-62 -20,-191 -29,-285 l -18,-173 h -49 c -46,0 -48,-1 -48,-27 0,-16 -3,-52 -6,-80 l -7,-53 h 182 c 138,0 181,3 182,13 0,6 3,42 8,80 l 7,67 h -59 -59 l 6,48 c 3,26 13,117 22,202 9,85 18,157 21,160 2,2 7,-1 11,-7 4,-6 95,-135 202,-287 l 195,-276 h 42 c 50,0 41,-39 83,380 17,168 33,315 35,328 5,19 12,22 50,22 40,0 45,3 46,23 0,12 4,48 8,80 l 7,57 h -183 -182 l -5,-32 c -3,-18 -7,-54 -10,-80 l -6,-48 h 60 c 71,0 66,22 43,-203 -10,-102 -21,-166 -27,-164 -6,2 -94,121 -195,265 l -186,262 h -107 c -104,0 -108,-1 -112,-22 z m 1134,-12 c 0,-18 -3,-54 -6,-80 l -7,-46 h 57 c 31,0 56,-3 56,-7 0,-4 -66,-132 -147,-285 l -148,-278 h -38 c -43,0 -43,0 -51,-92 l -7,-68 h 161 c 120,0 162,3 164,13 3,6 7,42 10,80 l 7,67 h -41 -40 l 22,45 22,45 150,-2 150,-3 12,-42 13,-43 h -34 c -33,0 -34,-1 -40,-47 -3,-27 -8,-63 -11,-80 l -5,-33 h 166 c 164,0 165,0 166,23 0,12 4,48 8,80 l 7,57 h -41 -41 l -114,365 -115,365 h -142 -143 z m 220,-230 c 0,-2 13,-55 30,-117 16,-63 30,-117 30,-121 0,-5 -45,-8 -100,-8 -55,0 -100,2 -100,5 0,16 122,245 130,245 6,0 10,-2 10,-4 z m 496,242 c -3,-13 -7,-49 -10,-80 l -6,-58 h 45 c 29,0 45,-4 45,-12 1,-7 -12,-136 -27,-285 l -27,-273 h -47 -46 l -7,-46 c -3,-26 -6,-62 -6,-80 v -34 h 315 c 173,0 315,1 315,3 0,1 13,70 29,152 16,83 27,152 25,155 -3,2 -33,6 -68,8 -63,4 -63,4 -70,-24 -4,-16 -14,-53 -22,-81 l -15,-53 h -119 c -66,0 -120,1 -120,3 0,1 14,128 30,282 16,154 30,281 30,283 0,1 27,2 60,2 69,0 66,-3 74,93 l 7,67 h -191 c -189,0 -190,0 -194,-22 z m 720,0 c -3,-13 -7,-49 -10,-80 l -6,-58 h 45 c 29,0 45,-4 45,-12 1,-7 -12,-136 -27,-285 l -27,-273 h -47 -46 l -7,-46 c -3,-26 -6,-62 -6,-80 v -34 h 315 c 173,0 315,1 315,3 0,1 13,70 29,152 16,83 27,152 25,155 -3,2 -33,6 -68,8 -63,4 -63,4 -70,-24 -4,-16 -14,-53 -22,-81 l -15,-53 h -119 c -66,0 -120,1 -120,3 0,1 14,128 30,282 16,154 30,281 30,283 0,1 27,2 60,2 69,0 66,-3 74,93 l 7,67 h -191 c -189,0 -190,0 -194,-22 z m 594,-5 c 0,-16 -3,-52 -6,-80 l -7,-53 h 39 39 l 107,-189 106,-188 -9,-74 c -4,-41 -8,-84 -9,-96 0,-21 -4,-23 -65,-23 h -64 l -5,-32 c -3,-18 -8,-54 -11,-80 l -6,-48 h 216 c 164,0 217,3 219,13 3,6 7,42 10,80 l 7,67 h -71 c -63,0 -71,2 -66,18 2,9 7,53 11,96 l 7,79 142,189 c 139,185 142,188 178,188 42,0 42,1 52,103 l 6,57 h -165 -165 v -34 c 0,-18 -3,-54 -6,-79 l -7,-46 41,-3 40,-3 -82,-112 c -44,-62 -85,-111 -90,-110 -8,3 -125,206 -126,220 0,4 15,7 34,7 33,0 33,1 40,53 3,28 6,64 6,80 v 27 h -170 -170 z m 1460,-263 c -72,-38 -137,-132 -159,-230 -13,-58 -14,-175 -1,-221 14,-50 49,-99 89,-126 40,-27 135,-32 180,-9 30,16 101,90 101,106 0,6 5,10 10,10 6,0 10,-28 10,-65 v -65 h 88 c 79,0 91,2 109,23 12,12 24,41 28,65 l 7,42 h -42 -42 l 6,38 c 3,20 13,93 21,162 14,110 30,193 51,268 6,21 4,22 -69,22 h -76 l -11,-42 c -19,-73 -19,-73 -43,-37 -39,58 -81,79 -156,79 -45,-1 -77,-7 -101,-20 z m 199,-125 c 40,-34 55,-83 46,-153 -16,-141 -114,-235 -197,-191 -69,37 -62,267 12,341 38,38 96,39 139,3 z m 747,125 c -86,-34 -126,-86 -126,-167 0,-92 44,-131 195,-174 96,-27 117,-42 113,-83 -4,-40 -36,-56 -115,-56 -84,0 -93,4 -86,45 l 5,33 -57,7 c -31,4 -60,4 -64,-1 -14,-15 -42,-147 -34,-154 42,-38 283,-64 368,-40 105,29 165,110 152,205 -4,25 -14,56 -23,70 -20,30 -95,67 -197,96 -84,24 -106,44 -87,79 20,38 94,51 159,29 27,-10 31,-15 31,-48 0,-41 -2,-41 98,-25 l 33,5 -3,77 -3,77 -65,22 c -86,29 -223,31 -294,3 z m 485,-4 c -13,-13 -25,-42 -28,-65 l -6,-41 h 42 c 33,0 41,-4 41,-17 -1,-10 -13,-120 -28,-245 l -28,-228 h 98 c 92,0 101,2 123,25 18,18 25,35 25,65 0,39 -1,40 -35,40 -19,0 -35,5 -35,11 0,12 48,420 54,457 3,22 1,22 -99,22 -94,0 -103,-2 -124,-24 z m 355,-1 c -20,-18 -26,-34 -26,-65 v -40 h 41 41 l -6,-37 c -3,-21 -15,-117 -26,-213 -11,-96 -23,-190 -26,-207 l -5,-33 h 81 c 44,0 80,3 80,8 1,62 51,396 64,423 21,44 62,69 115,69 49,0 77,-24 86,-73 5,-27 -17,-264 -39,-404 -3,-23 -1,-23 96,-23 92,0 101,2 123,25 18,18 25,35 25,65 0,39 -1,40 -35,40 -42,0 -42,1 -20,160 19,142 19,207 -3,250 -39,79 -176,107 -258,54 -22,-14 -50,-41 -63,-60 -13,-19 -27,-34 -32,-34 -5,0 -9,27 -9,60 v 60 h -89 c -80,0 -91,-2 -115,-25 z m 857,4 c -110,-54 -178,-201 -171,-368 6,-154 66,-231 180,-231 73,0 122,24 172,81 l 36,43 v -37 c 0,-55 -20,-138 -42,-175 -26,-43 -66,-62 -128,-62 -61,0 -97,18 -129,66 l -24,34 -51,-28 c -42,-23 -51,-32 -48,-52 4,-42 54,-102 107,-129 43,-23 62,-26 150,-26 88,0 107,3 150,26 60,31 115,104 144,193 15,44 81,497 81,552 0,2 10,4 23,4 34,0 64,38 69,88 l 4,42 h -106 -106 l -13,-50 c -7,-27 -16,-50 -19,-50 -4,0 -15,14 -24,30 -9,16 -32,39 -50,50 -46,28 -148,28 -205,-1 z m 187,-114 c 42,-22 60,-63 60,-137 0,-115 -68,-216 -152,-225 -37,-4 -46,-1 -68,22 -23,25 -25,34 -25,128 0,87 4,109 23,150 36,72 97,95 162,62 z m 940,126 c -147,-45 -248,-231 -220,-403 11,-73 30,-108 80,-150 50,-43 98,-58 186,-58 109,0 213,62 245,148 15,38 8,45 -54,58 l -56,11 -12,-29 c -35,-86 -170,-95 -204,-13 -25,57 -20,73 23,80 104,17 192,40 235,62 132,66 124,229 -15,287 -39,17 -163,20 -208,7 z m 134,-117 c 20,-20 20,-63 1,-92 -20,-27 -185,-75 -185,-54 0,30 36,118 55,138 29,29 104,34 129,8 z M 5267,7153 c -3,-10 -28,-82 -56,-160 l -50,-143 h 78 79 l 53,152 c 30,83 56,155 57,160 2,4 -32,8 -76,8 -67,0 -80,-3 -85,-17 z M 2095,6287 c -87,-41 -140,-124 -151,-236 -7,-60 -7,-61 -38,-61 -47,-1 -83,-37 -88,-87 l -4,-43 h 53 53 l -5,-37 c -3,-21 -19,-150 -35,-286 -36,-300 -48,-336 -111,-337 -32,0 -54,24 -64,68 -3,17 -9,32 -12,32 -3,0 -30,-7 -60,-16 -55,-16 -55,-16 -50,-50 15,-93 73,-145 168,-152 82,-6 124,4 165,40 72,63 85,110 124,428 16,135 32,260 35,278 l 6,32 h 104 c 58,0 105,-3 105,-7 0,-13 -50,-428 -55,-455 l -4,-28 h 97 c 120,0 141,13 149,83 l 6,47 h -37 c -28,0 -36,4 -36,18 0,9 11,107 25,217 14,110 25,212 25,228 v 27 h -183 -184 l 10,63 c 11,78 30,115 65,128 27,11 146,8 157,-3 4,-4 9,-25 12,-48 l 6,-42 45,6 c 25,3 53,6 63,6 21,0 24,29 12,115 -6,45 -9,49 -52,68 -35,16 -73,21 -156,24 -100,4 -115,2 -160,-20 z m 1496,-1 c -13,-13 -25,-42 -28,-65 l -6,-41 h 57 c 57,0 58,0 52,-27 -3,-16 -10,-76 -17,-135 -7,-60 -15,-108 -19,-108 -4,0 -15,11 -23,24 -36,55 -161,74 -242,37 -156,-70 -232,-371 -135,-525 40,-62 76,-79 160,-74 76,4 119,29 169,99 16,21 31,35 35,32 3,-3 6,-35 6,-70 v -63 h 83 c 103,1 127,15 134,83 l 6,47 h -37 c -32,0 -36,3 -36,25 0,14 20,190 45,391 25,201 45,372 45,380 0,11 -21,14 -113,14 -107,0 -115,-1 -136,-24 z m -40,-433 c 39,-23 59,-70 59,-140 -1,-134 -98,-243 -196,-219 -84,21 -69,303 20,357 38,23 79,24 117,2 z m 1380,433 c -13,-13 -25,-42 -28,-65 l -6,-41 h 42 c 33,0 41,-4 40,-17 0,-10 -21,-191 -48,-403 l -47,-385 95,-3 c 119,-3 143,10 151,82 l 6,46 h -38 c -30,0 -38,4 -38,18 1,9 22,191 48,405 l 48,387 h -101 c -94,0 -103,-2 -124,-24 z m 1769,3 c -91,-41 -133,-103 -151,-224 l -11,-75 h -32 c -46,0 -86,-44 -86,-93 v -37 h 50 c 36,0 50,-4 50,-14 0,-44 -71,-567 -80,-594 -28,-77 -117,-68 -129,14 l -6,40 -63,-19 -63,-19 7,-36 c 9,-47 26,-81 56,-109 34,-32 71,-43 147,-43 55,0 74,5 107,26 48,31 81,76 100,141 11,36 83,555 84,606 0,4 24,7 53,7 65,0 93,24 103,88 l 7,42 h -73 -72 l 6,58 c 14,113 33,142 93,142 40,0 50,-10 58,-57 l 7,-43 56,6 c 32,4 58,8 60,10 2,1 0,38 -5,81 l -8,78 -45,23 c -59,29 -156,30 -220,1 z m 2991,1 c -16,-14 -25,-34 -29,-65 l -5,-45 h 37 c 26,0 36,-4 36,-16 0,-8 -16,-146 -35,-307 -30,-251 -46,-356 -72,-464 -5,-22 -3,-23 70,-23 h 75 l 12,38 c 6,20 14,43 16,51 3,10 11,5 24,-17 31,-51 75,-72 150,-72 42,0 79,7 105,19 161,75 240,370 137,516 -44,63 -84,85 -156,85 -75,0 -119,-21 -163,-79 -32,-41 -33,-42 -33,-16 0,27 36,338 45,388 l 5,27 h -98 c -82,-1 -101,-4 -121,-20 z m 340,-430 c 86,-47 62,-307 -34,-356 -45,-24 -105,-13 -139,26 -25,27 -28,38 -28,100 0,132 66,240 146,240 19,0 44,-5 55,-10 z m 1420,426 c -13,-13 -25,-42 -28,-65 l -6,-41 h 42 c 33,0 41,-4 40,-17 0,-10 -21,-191 -48,-403 l -47,-385 95,-3 c 119,-3 143,10 151,82 l 6,46 h -38 c -30,0 -38,4 -38,18 1,9 22,191 48,405 l 48,387 h -101 c -94,0 -103,-2 -124,-24 z m -9842,-28 c 0,-13 -3,-53 -8,-90 l -7,-68 h 77 76 l 7,61 c 3,34 6,75 6,90 v 29 h -75 c -71,0 -75,-1 -76,-22 z m 9561,-7 c 0,-15 -3,-56 -6,-90 l -7,-61 h 76 75 l 7,63 c 3,34 8,74 11,90 l 6,27 h -81 -81 z m -5083,-99 c -20,-21 -28,-42 -34,-92 -7,-57 -11,-65 -30,-68 -34,-5 -73,-58 -73,-98 0,-33 1,-34 40,-34 38,0 39,-1 35,-27 -10,-56 -35,-282 -35,-315 0,-51 31,-99 81,-126 61,-33 177,-29 228,7 36,26 100,146 85,160 -5,5 -30,15 -55,24 l -46,15 -12,-39 c -13,-42 -43,-69 -78,-69 -43,0 -47,33 -27,207 l 19,158 70,3 c 60,3 74,7 97,29 21,20 28,36 28,65 v 38 h -91 c -89,0 -91,0 -86,23 3,12 9,55 13,95 l 7,72 h -55 c -46,0 -58,-4 -81,-28 z m 5800,0 c -20,-21 -28,-42 -34,-92 -7,-57 -11,-65 -30,-68 -34,-5 -73,-58 -73,-98 0,-33 1,-34 40,-34 38,0 39,-1 35,-27 -10,-56 -35,-282 -35,-315 0,-51 31,-99 81,-126 61,-33 177,-29 228,7 36,26 100,146 85,160 -5,5 -30,15 -55,24 l -46,15 -12,-39 c -13,-42 -43,-69 -78,-69 -43,0 -47,33 -27,207 l 19,158 70,3 c 60,3 74,7 97,29 21,20 28,36 28,65 v 38 h -91 c -89,0 -91,0 -86,23 3,12 9,55 13,95 l 7,72 h -55 c -46,0 -58,-4 -81,-28 z M 61,5971 c -16,-12 -25,-31 -28,-64 l -6,-47 h 37 c 34,0 36,-2 36,-32 0,-18 -7,-80 -15,-138 -8,-58 -15,-128 -15,-155 0,-103 65,-165 175,-165 70,0 122,27 165,85 14,19 28,35 33,35 4,0 7,-27 7,-60 v -60 h 89 c 111,0 137,16 143,85 l 3,45 h -43 -42 l 5,38 c 5,36 55,442 55,449 0,2 -36,3 -80,3 -69,0 -80,-2 -80,-17 -2,-77 -50,-385 -65,-416 -28,-60 -97,-84 -159,-56 -46,21 -50,60 -27,257 12,97 23,189 26,205 l 5,27 h -98 c -78,0 -102,-4 -121,-19 z m 722,-3 c -11,-13 -23,-42 -26,-65 l -5,-43 h 44 c 42,0 43,-1 39,-27 -5,-28 -55,-443 -55,-456 0,-4 35,-7 79,-7 h 78 l 22,193 c 25,213 42,266 90,291 67,35 144,7 154,-56 4,-27 -16,-241 -38,-390 l -5,-38 h 97 c 118,1 140,13 149,84 l 7,46 h -40 -40 l 13,103 c 29,225 29,260 4,305 -48,85 -171,110 -262,53 -25,-16 -54,-43 -64,-60 -10,-17 -22,-31 -26,-31 -4,0 -8,26 -10,58 l -3,57 -90,3 c -84,2 -92,1 -112,-20 z m 723,-3 c -20,-18 -26,-34 -26,-65 v -40 h 41 41 l -6,-37 c -3,-21 -15,-117 -26,-213 -11,-96 -22,-190 -25,-207 l -6,-33 h 98 c 120,0 140,11 149,83 l 7,47 h -37 c -44,0 -43,-16 -11,245 14,110 25,210 25,223 0,21 -3,22 -99,22 -90,0 -100,-2 -125,-25 z m 1268,1 c -133,-62 -214,-232 -186,-394 14,-86 50,-137 122,-175 51,-26 62,-28 146,-25 80,3 96,6 140,33 51,32 117,117 112,144 -2,10 -23,19 -61,27 l -58,11 -19,-38 c -24,-46 -46,-59 -100,-59 -52,0 -76,13 -95,50 -13,26 -21,80 -11,80 29,0 188,35 230,50 164,62 178,240 24,304 -59,25 -182,21 -244,-8 z m 168,-103 c 22,-20 23,-61 3,-91 -15,-21 -74,-42 -154,-56 l -33,-6 7,37 c 9,48 40,109 62,122 28,16 94,13 115,-6 z m 1244,102 c -20,-18 -26,-34 -26,-65 v -40 h 41 41 l -6,-37 c -3,-21 -20,-150 -36,-288 -41,-344 -37,-325 -65,-325 -34,0 -65,-44 -65,-91 v -39 h 154 c 138,0 156,2 179,20 19,15 26,31 29,65 l 3,45 h -57 c -42,0 -58,4 -58,13 0,20 20,178 26,206 l 5,24 29,-31 c 37,-41 67,-52 142,-52 74,0 133,26 178,76 128,146 135,418 13,511 -28,21 -49,28 -99,31 -38,3 -77,-1 -94,-8 -31,-13 -110,-92 -110,-110 0,-5 -4,-10 -10,-10 -6,0 -10,28 -10,65 v 65 h -89 c -80,0 -91,-2 -115,-25 z m 394,-105 c 32,-17 54,-92 47,-168 -10,-125 -62,-202 -136,-202 -50,0 -83,19 -104,60 -40,77 4,257 75,300 36,21 88,26 118,10 z m 820,110 c -72,-38 -137,-132 -159,-230 -13,-58 -14,-175 -1,-221 14,-50 49,-99 89,-126 40,-27 135,-32 180,-9 30,16 101,90 101,106 0,6 5,10 10,10 6,0 10,-28 10,-65 v -65 h 88 c 79,0 91,2 109,23 12,12 24,41 28,65 l 7,42 h -42 -42 l 6,38 c 3,20 13,93 21,162 14,110 30,193 51,268 6,21 4,22 -69,22 h -76 l -11,-42 c -19,-73 -19,-73 -43,-37 -39,58 -81,79 -156,79 -45,-1 -77,-7 -101,-20 z m 199,-125 c 40,-34 55,-83 46,-153 -16,-141 -114,-235 -197,-191 -69,37 -62,267 12,341 38,38 96,39 139,3 z m 1462,128 c -127,-45 -220,-239 -190,-399 14,-75 28,-102 77,-146 54,-49 98,-61 201,-56 72,3 95,9 140,33 65,36 123,105 147,177 21,64 24,176 5,240 -17,59 -72,125 -125,149 -52,24 -191,25 -255,2 z m 168,-117 c 66,-35 79,-188 24,-303 -19,-41 -58,-63 -113,-63 -50,0 -86,31 -96,85 -11,58 1,186 21,228 29,62 101,85 164,53 z m 334,112 c -12,-13 -24,-42 -28,-65 l -7,-43 h 41 c 48,0 47,11 26,-160 -24,-202 -24,-200 -49,-200 -33,0 -58,-33 -63,-85 l -6,-45 h 155 c 140,0 158,2 181,20 19,15 26,31 29,65 l 3,45 h -57 c -32,0 -58,2 -58,5 0,2 7,53 16,112 25,170 47,199 147,191 l 54,-4 12,84 c 14,96 11,102 -50,102 -46,0 -85,-41 -120,-125 l -24,-58 -7,39 c -4,21 -7,63 -7,92 l -1,52 h -83 c -74,0 -86,-3 -104,-22 z m 463,-3 c -20,-18 -26,-34 -26,-65 v -40 h 41 41 l -6,-37 c -3,-21 -15,-117 -26,-213 -11,-96 -23,-190 -26,-207 l -5,-33 h 81 c 44,0 80,3 80,8 0,51 52,397 63,424 19,46 52,68 102,68 30,0 47,-6 63,-23 32,-34 30,-106 -14,-434 l -5,-43 h 79 79 l 23,193 c 24,205 38,256 78,287 36,29 96,27 127,-5 32,-31 32,-74 5,-285 -11,-85 -20,-163 -20,-172 0,-16 11,-18 98,-18 89,0 100,2 119,23 11,12 23,41 27,65 l 6,42 h -40 c -22,0 -40,3 -40,8 0,4 9,79 20,167 20,161 19,197 -7,248 -37,72 -160,92 -244,38 -25,-16 -56,-45 -68,-65 -25,-40 -36,-40 -46,3 -12,57 -70,91 -152,91 -70,0 -120,-28 -168,-92 l -30,-40 -3,66 -3,66 h -88 c -80,0 -91,-2 -115,-25 z m 2317,6 c -13,-11 -24,-35 -28,-64 l -7,-47 h 41 c 38,0 41,-2 37,-22 -15,-72 -37,-313 -32,-343 8,-40 46,-89 87,-110 41,-22 132,-19 180,5 22,12 52,38 67,60 15,22 30,39 35,40 4,0 7,-17 7,-37 0,-82 2,-83 99,-83 78,0 90,2 108,23 11,12 23,41 27,65 l 6,42 h -43 -43 l 28,228 c 15,125 27,235 28,245 0,15 -10,17 -78,17 h -78 l -23,-192 c -25,-214 -41,-267 -90,-292 -42,-22 -93,-20 -125,5 -23,18 -26,27 -26,88 0,57 10,159 36,349 l 5,42 h -98 c -80,-1 -102,-4 -120,-19 z m 728,-5 c -13,-13 -25,-42 -28,-65 l -6,-41 h 42 c 33,0 41,-4 41,-17 -1,-10 -13,-120 -28,-245 l -28,-228 h 98 c 92,0 101,2 123,25 18,18 25,35 25,65 0,39 -1,40 -35,40 -19,0 -35,5 -35,11 0,12 48,420 54,457 3,22 1,22 -99,22 -94,0 -103,-2 -124,-24 z M 9107,5553 c -3,-10 -28,-82 -56,-160 l -50,-143 h 78 79 l 53,152 c 30,83 56,155 57,160 2,4 -32,8 -76,8 -67,0 -80,-3 -85,-17 z M 87,4690 c -19,-15 -26,-31 -29,-65 l -3,-45 h 37 c 21,0 38,-2 38,-5 0,-51 -86,-689 -99,-737 l -18,-68 h 77 78 l 13,50 c 12,46 29,68 29,37 0,-15 45,-59 77,-76 34,-17 142,-13 188,8 144,65 225,319 154,481 -39,87 -89,120 -185,120 -67,0 -106,-20 -159,-83 l -36,-42 6,35 c 9,62 45,368 45,389 0,20 -6,21 -94,21 -78,0 -97,-3 -119,-20 z m 358,-444 c 64,-64 39,-272 -41,-335 -59,-46 -149,-13 -174,65 -25,75 29,247 88,279 43,23 99,19 127,-9 z m 2101,439 c -20,-18 -26,-34 -26,-65 v -40 h 53 53 l -17,-132 c -9,-73 -17,-135 -18,-138 -1,-3 -10,5 -20,17 -54,64 -170,84 -250,43 -54,-27 -116,-102 -142,-169 -48,-129 -49,-239 -1,-333 37,-73 78,-98 156,-98 77,0 127,27 176,93 l 35,47 5,-67 5,-68 85,-2 c 103,-3 125,9 135,80 l 7,47 h -40 c -40,0 -41,0 -36,33 5,37 94,766 94,773 0,2 -51,4 -114,4 -106,0 -115,-1 -140,-25 z m -21,-448 c 41,-41 52,-90 37,-170 -23,-122 -115,-202 -197,-171 -52,20 -67,184 -25,282 28,66 60,92 112,92 32,0 47,-7 73,-33 z m 2522,315 c -20,-21 -28,-42 -34,-92 -7,-57 -11,-65 -30,-68 -34,-5 -73,-58 -73,-98 0,-33 1,-34 40,-34 38,0 39,-1 35,-27 -10,-56 -35,-282 -35,-315 0,-51 31,-99 81,-126 61,-33 177,-29 228,7 36,26 100,146 85,160 -5,5 -30,15 -55,24 l -46,15 -12,-39 c -13,-42 -43,-69 -78,-69 -43,0 -47,33 -27,207 l 19,158 70,3 c 60,3 74,7 97,29 21,20 28,36 28,65 v 38 h -91 c -89,0 -91,0 -86,23 3,12 9,55 13,95 l 7,72 h -55 c -46,0 -58,-4 -81,-28 z M 687,4368 c -17,-15 -27,-38 -30,-65 -5,-43 -5,-43 27,-43 h 32 l 68,-208 69,-208 -17,-117 -18,-117 h -32 c -43,0 -73,-33 -78,-87 l -4,-43 h 151 c 144,0 153,1 173,23 11,12 24,41 28,65 l 7,42 h -42 c -48,0 -47,-6 -25,133 l 16,100 89,106 c 52,62 105,137 127,180 33,67 37,84 40,168 l 4,93 h -89 -90 l 13,-62 c 18,-87 4,-164 -47,-254 -50,-89 -67,-110 -78,-98 -8,8 -91,263 -91,278 0,3 8,6 18,6 29,0 59,41 65,88 l 5,42 H 845 c -125,0 -136,-2 -158,-22 z m 1047,-2 c -133,-62 -214,-232 -186,-394 14,-86 50,-137 122,-175 51,-26 62,-28 146,-25 80,3 96,6 140,33 51,32 117,117 112,144 -2,10 -23,19 -61,27 l -58,11 -19,-38 c -24,-46 -46,-59 -100,-59 -52,0 -76,13 -95,50 -13,26 -21,80 -11,80 29,0 188,35 230,50 164,62 178,240 24,304 -59,25 -182,21 -244,-8 z m 168,-103 c 22,-20 23,-61 3,-91 -15,-21 -74,-42 -154,-56 l -33,-6 7,37 c 9,48 40,109 62,122 28,16 94,13 115,-6 z m 1001,108 c -13,-11 -24,-35 -28,-64 l -7,-47 h 41 c 38,0 41,-2 37,-22 -15,-72 -37,-313 -32,-343 8,-40 46,-89 87,-110 41,-22 132,-19 180,5 22,12 52,38 67,60 15,22 30,39 35,40 4,0 7,-17 7,-37 0,-82 2,-83 99,-83 78,0 90,2 108,23 11,12 23,41 27,65 l 6,42 h -43 -43 l 28,228 c 15,125 27,235 28,245 0,15 -10,17 -78,17 h -78 l -23,-192 c -25,-214 -41,-267 -90,-292 -42,-22 -93,-20 -125,5 -23,18 -26,27 -26,88 0,57 10,159 36,349 l 5,42 h -98 c -80,-1 -102,-4 -120,-19 z m 862,-4 c -106,-52 -166,-155 -173,-300 -3,-53 0,-105 8,-132 16,-56 72,-122 124,-146 56,-25 176,-25 231,0 48,21 110,88 136,145 30,66 33,64 -73,82 -28,4 -38,3 -38,-7 0,-28 -42,-97 -66,-107 -31,-15 -79,-15 -106,-1 -30,16 -48,71 -48,147 0,146 48,222 140,222 75,0 80,-4 80,-67 v -55 l 31,6 c 17,3 47,6 65,6 h 34 v 91 90 l -47,22 c -36,16 -73,22 -148,24 -90,4 -105,1 -150,-20 z m 595,3 c -72,-38 -137,-132 -159,-230 -13,-58 -14,-175 -1,-221 14,-50 49,-99 89,-126 40,-27 135,-32 180,-9 30,16 101,90 101,106 0,6 5,10 10,10 6,0 10,-28 10,-65 v -65 h 88 c 79,0 91,2 109,23 12,12 24,41 28,65 l 7,42 h -42 -42 l 6,38 c 3,20 13,93 21,162 14,110 30,193 51,268 6,21 4,22 -69,22 h -76 l -11,-42 c -19,-73 -19,-73 -43,-37 -39,58 -81,79 -156,79 -45,-1 -77,-7 -101,-20 z m 199,-125 c 40,-34 55,-83 46,-153 -16,-141 -114,-235 -197,-191 -69,37 -62,267 12,341 38,38 96,39 139,3 z m 1022,128 c -127,-45 -220,-239 -190,-399 14,-75 28,-102 77,-146 54,-49 98,-61 201,-56 72,3 95,9 140,33 65,36 123,105 147,177 21,64 24,176 5,240 -17,59 -72,125 -125,149 -52,24 -191,25 -255,2 z m 168,-117 c 66,-35 79,-188 24,-303 -19,-41 -58,-63 -113,-63 -50,0 -86,31 -96,85 -11,58 1,186 21,228 29,62 101,85 164,53 z m 334,112 c -12,-13 -24,-42 -28,-65 l -7,-43 h 41 c 48,0 47,11 26,-160 -24,-202 -24,-200 -49,-200 -33,0 -58,-33 -63,-85 l -6,-45 h 155 c 140,0 158,2 181,20 19,15 26,31 29,65 l 3,45 h -57 c -32,0 -58,2 -58,5 0,2 7,53 16,112 25,170 47,199 147,191 l 54,-4 12,84 c 14,96 11,102 -50,102 -46,0 -85,-41 -120,-125 l -24,-58 -7,39 c -4,21 -7,63 -7,92 l -1,52 h -83 c -74,0 -86,-3 -104,-22 z m 583,2 c -86,-34 -126,-86 -126,-167 0,-92 44,-131 195,-174 96,-27 117,-42 113,-83 -4,-40 -36,-56 -115,-56 -84,0 -93,4 -86,45 l 5,33 -57,7 c -31,4 -60,4 -64,-1 -14,-15 -42,-147 -34,-154 42,-38 283,-64 368,-40 105,29 165,110 152,205 -4,25 -14,56 -23,70 -20,30 -95,67 -197,96 -84,24 -106,44 -87,79 20,38 94,51 159,29 27,-10 31,-15 31,-48 0,-41 -2,-41 98,-25 l 33,5 -3,77 -3,77 -65,22 c -86,29 -223,31 -294,3 z m 481,-417 c -3,-10 -28,-82 -56,-160 l -50,-143 h 78 79 l 53,152 c 30,83 56,155 57,160 2,4 -32,8 -76,8 -67,0 -80,-3 -85,-17 z M 1520,3625 v -55 h 2690 2690 v 55 55 H 4210 1520 Z m 5820,0 c 0,-52 1,-55 25,-55 24,0 25,3 25,55 0,52 -1,55 -25,55 -24,0 -25,-3 -25,-55 z M 563,3078 c -12,-13 -24,-42 -28,-65 l -7,-43 h 42 c 41,0 41,0 35,-32 -3,-18 -23,-184 -45,-368 -22,-184 -43,-352 -46,-372 l -6,-38 h 81 c 45,0 81,3 81,8 -1,58 47,377 62,413 29,70 96,98 162,68 46,-22 50,-60 27,-262 -12,-100 -24,-192 -27,-204 -4,-23 -3,-23 93,-23 121,0 142,13 150,83 l 6,47 h -37 c -43,0 -42,-5 -21,165 26,210 17,255 -60,300 -85,50 -204,25 -263,-55 -13,-17 -25,-30 -28,-28 -2,2 8,94 21,203 14,110 25,206 25,213 0,9 -26,12 -98,12 -89,0 -100,-2 -119,-22 z m 2503,-3 c -20,-18 -26,-34 -26,-65 v -40 h 53 53 l -17,-132 c -9,-73 -17,-135 -18,-138 -1,-3 -10,5 -20,17 -54,64 -170,84 -250,43 -54,-27 -116,-102 -142,-169 -48,-129 -49,-239 -1,-333 37,-73 78,-98 156,-98 77,0 127,27 176,93 l 35,47 5,-67 5,-68 85,-2 c 103,-3 125,9 135,80 l 7,47 h -40 c -40,0 -41,0 -36,33 5,37 94,766 94,773 0,2 -51,4 -114,4 -106,0 -115,-1 -140,-25 z m -21,-448 c 41,-41 52,-90 37,-170 -23,-122 -115,-202 -197,-171 -52,20 -67,184 -25,282 28,66 60,92 112,92 32,0 47,-7 73,-33 z m 4286,449 c -13,-13 -25,-42 -28,-65 l -6,-41 h 42 c 33,0 41,-4 40,-17 0,-10 -21,-191 -48,-403 l -47,-385 95,-3 c 119,-3 143,10 151,82 l 6,46 h -38 c -30,0 -38,4 -38,18 1,9 22,191 48,405 l 48,387 h -101 c -94,0 -103,-2 -124,-24 z m 360,0 c -13,-13 -25,-42 -28,-65 l -6,-41 h 42 c 33,0 41,-4 40,-17 0,-10 -21,-191 -48,-403 l -47,-385 95,-3 c 119,-3 143,10 151,82 l 6,46 h -38 c -30,0 -38,4 -38,18 1,9 22,191 48,405 l 48,387 h -101 c -94,0 -103,-2 -124,-24 z m -2081,-35 c 0,-15 -3,-56 -6,-90 l -7,-61 h 76 75 l 7,63 c 3,34 8,74 11,90 l 6,27 h -81 -81 z m 2626,-7 c -3,-9 -6,-42 -6,-75 0,-32 -3,-59 -7,-59 -3,0 -30,18 -59,40 l -53,40 -30,-42 c -17,-23 -31,-45 -31,-48 0,-3 27,-20 60,-38 33,-19 60,-37 60,-40 0,-4 -29,-20 -65,-36 -36,-16 -67,-32 -70,-36 -4,-7 19,-56 41,-88 1,-2 30,15 65,37 35,22 65,36 67,31 2,-6 -1,-33 -7,-60 -17,-81 -18,-80 44,-80 h 54 l 3,76 3,75 55,-41 55,-41 32,38 c 18,21 31,42 30,48 -2,5 -29,23 -60,40 -31,16 -57,33 -57,37 0,4 31,24 70,43 l 70,35 -22,45 c -25,50 -12,52 -111,-13 -20,-14 -40,-22 -43,-19 -3,3 -1,31 5,63 16,86 17,84 -38,84 -35,0 -51,-4 -55,-16 z M 167,2942 c -15,-15 -29,-41 -31,-57 -3,-17 -8,-47 -11,-67 -4,-27 -11,-38 -24,-38 -28,0 -68,-51 -73,-92 -4,-38 -4,-38 34,-38 45,0 44,7 23,-165 -8,-65 -15,-142 -15,-170 0,-100 66,-155 186,-155 104,0 161,42 198,147 l 15,42 -46,15 c -26,9 -50,16 -54,16 -5,0 -17,-20 -28,-45 -31,-69 -101,-76 -110,-9 -1,16 5,95 14,177 l 18,147 h 72 c 63,0 74,3 94,24 13,13 25,42 28,65 l 6,41 h -93 -92 l 6,43 c 3,23 8,66 12,95 l 7,52 h -55 c -46,0 -58,-4 -81,-28 z m 1920,0 c -15,-15 -29,-41 -31,-57 -3,-17 -8,-47 -11,-67 -4,-27 -11,-38 -24,-38 -28,0 -68,-51 -73,-92 -4,-38 -4,-38 34,-38 45,0 44,7 23,-165 -8,-65 -15,-142 -15,-170 0,-100 66,-155 186,-155 104,0 161,42 198,147 l 15,42 -46,15 c -26,9 -50,16 -54,16 -5,0 -17,-20 -28,-45 -31,-69 -101,-76 -110,-9 -1,16 5,95 14,177 l 18,147 h 72 c 63,0 74,3 94,24 13,13 25,42 28,65 l 6,41 h -93 -92 l 6,43 c 3,23 8,66 12,95 l 7,52 h -55 c -46,0 -58,-4 -81,-28 z m 3880,0 c -20,-21 -28,-42 -34,-92 -7,-57 -11,-65 -30,-68 -34,-5 -73,-58 -73,-98 0,-33 1,-34 40,-34 38,0 39,-1 35,-27 -10,-56 -35,-282 -35,-315 0,-51 31,-99 81,-126 61,-33 177,-29 228,7 36,26 100,146 85,160 -5,5 -30,15 -55,24 l -46,15 -12,-39 c -13,-42 -43,-69 -78,-69 -43,0 -47,33 -27,207 l 19,158 70,3 c 60,3 74,7 97,29 21,20 28,36 28,65 v 38 h -91 c -89,0 -91,0 -86,23 3,12 9,55 13,95 l 7,72 h -55 c -46,0 -58,-4 -81,-28 z M 1404,2766 c -112,-49 -203,-262 -176,-409 15,-78 47,-142 85,-169 27,-19 45,-23 108,-23 68,0 79,3 113,28 20,16 47,44 59,63 12,18 25,34 30,34 4,0 7,-29 7,-65 v -65 h 88 c 79,0 91,2 109,23 11,12 23,41 26,65 l 5,42 h -39 c -25,0 -39,5 -39,13 0,72 55,407 76,460 6,16 0,18 -72,15 l -78,-3 -12,-48 c -7,-27 -14,-51 -17,-53 -2,-3 -14,11 -25,30 -32,55 -75,76 -152,76 -36,-1 -79,-7 -96,-14 z m 196,-133 c 100,-90 19,-353 -109,-353 -27,0 -44,7 -62,26 -21,22 -24,37 -27,114 -5,108 15,177 59,215 43,35 98,34 139,-2 z m 1981,130 c -127,-45 -220,-239 -190,-399 14,-75 28,-102 77,-146 54,-49 98,-61 201,-56 72,3 95,9 140,33 65,36 123,105 147,177 21,64 24,176 5,240 -17,59 -72,125 -125,149 -52,24 -191,25 -255,2 z m 168,-117 c 66,-35 79,-188 24,-303 -19,-41 -58,-63 -113,-63 -50,0 -86,31 -96,85 -11,58 1,186 21,228 29,62 101,85 164,53 z m 501,125 c -147,-45 -248,-231 -220,-403 11,-73 30,-108 80,-150 50,-43 98,-58 186,-58 109,0 213,62 245,148 15,38 8,45 -54,58 l -56,11 -12,-29 c -35,-86 -170,-95 -204,-13 -25,57 -20,73 23,80 104,17 192,40 235,62 132,66 124,229 -15,287 -39,17 -163,20 -208,7 z m 134,-117 c 20,-20 20,-63 1,-92 -20,-27 -185,-75 -185,-54 0,30 36,118 55,138 29,29 104,34 129,8 z m 402,106 c -86,-34 -126,-86 -126,-167 0,-92 44,-131 195,-174 96,-27 117,-42 113,-83 -4,-40 -36,-56 -115,-56 -84,0 -93,4 -86,45 l 5,33 -57,7 c -31,4 -60,4 -64,-1 -14,-15 -42,-147 -34,-154 42,-38 283,-64 368,-40 105,29 165,110 152,205 -4,25 -14,56 -23,70 -20,30 -95,67 -197,96 -84,24 -106,44 -87,79 20,38 94,51 159,29 27,-10 31,-15 31,-48 0,-41 -2,-41 98,-25 l 33,5 -3,77 -3,77 -65,22 c -86,29 -223,31 -294,3 z m 725,-4 c -13,-13 -25,-42 -28,-65 l -6,-41 h 42 c 33,0 41,-4 41,-17 -1,-10 -13,-120 -28,-245 l -28,-228 h 98 c 92,0 101,2 123,25 18,18 25,35 25,65 0,39 -1,40 -35,40 -19,0 -35,5 -35,11 0,12 48,420 54,457 3,22 1,22 -99,22 -94,0 -103,-2 -124,-24 z m 1209,4 c -72,-38 -137,-132 -159,-230 -13,-58 -14,-175 -1,-221 14,-50 49,-99 89,-126 40,-27 135,-32 180,-9 30,16 101,90 101,106 0,6 5,10 10,10 6,0 10,-28 10,-65 v -65 h 88 c 79,0 91,2 109,23 12,12 24,41 28,65 l 7,42 h -42 -42 l 6,38 c 3,20 13,93 21,162 14,110 30,193 51,268 6,21 4,22 -69,22 h -76 l -11,-42 c -19,-73 -19,-73 -43,-37 -39,58 -81,79 -156,79 -45,-1 -77,-7 -101,-20 z m 199,-125 c 40,-34 55,-83 46,-153 -16,-141 -114,-235 -197,-191 -69,37 -62,267 12,341 38,38 96,39 139,3 z"
             transform="matrix(0.025,0,0,-0.025,51,498)"
             id="path620"
             inkscape:connector-curvature="0"
             style="fill:#ffffff;stroke:none" />
        </g>
      </g>
      <g
         id="shape-17240f04-b365-11eb-a19f-b902f2f7b4ee">
        <g
           class="svg-raw"
           transform="translate(0,2.075007e-6)"
           id="g629">
          <svg
             viewBox="0 0 32 32"
             x="9"
             y="296"
             width="32"
             height="32"
             preserveAspectRatio="none"
             style="fill:#ffffff;fill-opacity:1"
             version="1.1"
             id="svg627">
            <path
               d="M 4,4 V 28 H 28 V 12.187 l -2,2.001 V 26 H 6 V 6 h 19.813 l 2,-2 z M 27.281,7.281 16,18.563 11.719,14.28 l -1.439,1.44 5.001,4.999 0.719,0.687 0.719,-0.686 12,-12.001 z"
               id="path625"
               inkscape:connector-curvature="0" />
          </svg>
        </g>
      </g>
    </g>
  </g>
</svg>
